{
copyright = "Font Data Copyright (c) 2013 Vernon Adams";
customParameters = (
{
name = glyphOrder;
value = (
    space,
    exclam,
    quotesingle,
    quotedbl,
    numbersign,
    dollar,
    percent,
    ampersand,
    parenleft,
    parenright,
    asterisk,
    plus,
    comma,
    hyphen,
    period,
    slash,
    zero,
    one,
    two,
    three,
    four,
    five,
    six,
    seven,
    eight,
    nine,
    colon,
    semicolon,
    equal,
    question,
    at,
    A,
    B,
    C,
    D,
    E,
    F,
    G,
    H,
    I,
    J,
    K,
    L,
    M,
    N,
    O,
    P,
    Q,
    R,
    S,
    T,
    U,
    V,
    W,
    X,
    Y,
    Z,
    bracketleft,
    backslash,
    bracketright,
    asciicircum,
    underscore,
    grave,
    a,
    b,
    c,
    d,
    e,
    f,
    g,
    h,
    i,
    j,
    k,
    l,
    m,
    n,
    o,
    p,
    q,
    r,
    s,
    t,
    u,
    v,
    w,
    x,
    y,
    z,
    bar,
    asciitilde,
    exclamdown,
    sterling,
    currency,
    yen,
    brokenbar,
    section,
    dieresis,
    copyright,
    guillemotleft,
    logicalnot,
    registered,
    macron,
    degree,
    plusminus,
    acute,
    mu,
    paragraph,
    periodcentered,
    cedilla,
    guillemotright,
    onequarter,
    onehalf,
    threequarters,
    questiondown,
    Agrave,
    Aacute,
    Acircumflex,
    Atilde,
    Adieresis,
    Aring,
    AE,
    Ccedilla,
    Egrave,
    Eacute,
    Ecircumflex,
    Edieresis,
    Igrave,
    Iacute,
    Icircumflex,
    Idieresis,
    Eth,
    Ntilde,
    Ograve,
    Oacute,
    Ocircumflex,
    Otilde,
    Odieresis,
    multiply,
    Ugrave,
    Uacute,
    Ucircumflex,
    Udieresis,
    Yacute,
    germandbls,
    agrave,
    aacute,
    acircumflex,
    atilde,
    adieresis,
    aring,
    ae,
    ccedilla,
    egrave,
    eacute,
    ecircumflex,
    edieresis,
    igrave,
    iacute,
    icircumflex,
    idieresis,
    eth,
    ntilde,
    ograve,
    oacute,
    ocircumflex,

glyphs = (
{
glyphname = exclam;
lastChange = "2014-02-15 22:20:08 -0800";
layers = (
{
layerId = "67845082-4271-4E32-8C80-EE8FB13E39CE";
name = Light;
paths = (
{
closed = 1;
nodes = (
"230 0 CURVE SMOOTH",
"277 0 OFFCURVE",
"300 35 OFFCURVE",
"300 70 CURVE SMOOTH",
"300 106 OFFCURVE",
"277 141 OFFCURVE",
"230 141 CURVE SMOOTH",
"183 141 OFFCURVE",
"160 106 OFFCURVE",
"160 70 CURVE SMOOTH",
"160 35 OFFCURVE",
"183 0 OFFCURVE"
);
},
{
closed = 1;
nodes = (
"207 321 LINE",
"247 321 LINE",
"276 1620 LINE",
"178 1620 LINE"
);
}
);
width = 476;
},
{
layerId = "B5E80BC0-A253-4265-9E84-E8FF94ED18F5";
name = Regular;
paths = (
{
closed = 1;
nodes = (
"289 0 CURVE SMOOTH",
"354 0 OFFCURVE",
"397 53 OFFCURVE",
"397 115 CURVE SMOOTH",
"397 177 OFFCURVE",
"354 230 OFFCURVE",
"289 230 CURVE SMOOTH",
"225 230 OFFCURVE",
"177 178 OFFCURVE",
"177 115 CURVE SMOOTH",
"177 53 OFFCURVE",
"226 0 OFFCURVE"
);
},
{
closed = 1;
nodes = (
"240 408 LINE",
"330 408 LINE",
"380 1577 LINE",
"190 1577 LINE"
);
}
);
width = 535;
},
{
layerId = "5F2F3E34-E24A-4A89-B41B-C326736566A0";
name = Bold;
paths = (
{
closed = 1;
nodes = (
"370 0 CURVE SMOOTH",
"495 0 OFFCURVE",
"601 98 OFFCURVE",
"601 225 CURVE SMOOTH",
"601 353 OFFCURVE",
"497 449 OFFCURVE",
"370 449 CURVE SMOOTH",
"240 449 OFFCURVE",
"146 348 OFFCURVE",
"146 225 CURVE SMOOTH",
"146 98 OFFCURVE",
"244 0 OFFCURVE"
);
},
{
closed = 1;
nodes = (
"251 622 LINE",
"473 622 LINE",
"563 1578 LINE",
"151 1578 LINE"
);
}
);
width = 727;
}
);
unicode = 0021;
userData = {
position = "-94";
width = 437;
};
},
{
glyphname = quotesingle;
lastChange = "2014-02-15 22:20:08 -0800";
layers = (
{
layerId = "67845082-4271-4E32-8C80-EE8FB13E39CE";
name = Light;
paths = (
{
closed = 1;
nodes = (
"94 1172 LINE",
"137 1172 LINE",
"158 1533 LINE",
"158 1620 LINE",
"66 1620 LINE",
"66 1530 LINE"
);
}
);
width = 224;
},
{
layerId = "B5E80BC0-A253-4265-9E84-E8FF94ED18F5";
name = Regular;
paths = (
{
closed = 1;
nodes = (
"257 1058 LINE",
"365 1058 LINE",
"405 1508 LINE SMOOTH",
"407 1529 OFFCURVE",
"405 1557 OFFCURVE",
"405 1579 CURVE",
"217 1579 LINE",
"217 1557 OFFCURVE",
"215 1529 OFFCURVE",
"217 1508 CURVE SMOOTH"
);
}
);
width = 624;
},
{
layerId = "5F2F3E34-E24A-4A89-B41B-C326736566A0";
name = Bold;
paths = (
{
closed = 1;
nodes = (
"286 816 LINE",
"494 816 LINE",
"590 1483 LINE",
"590 1578 LINE",
"196 1578 LINE",
"196 1483 LINE"
);
}
);
width = 822;
}
);
unicode = 0027;
userData = {
position = 6;
width = 157;
};
},
{
glyphname = quotedbl;
lastChange = "2014-02-15 22:20:08 -0800";
layers = (
{
layerId = "67845082-4271-4E32-8C80-EE8FB13E39CE";
name = Light;
paths = (
{
closed = 1;
nodes = (
"84 1172 LINE",
"127 1172 LINE",
"148 1533 LINE",
"148 1620 LINE",
"56 1620 LINE",
"56 1530 LINE"
);
},
{
closed = 1;
nodes = (
"304 1172 LINE",
"347 1172 LINE",
"368 1533 LINE",
"368 1620 LINE",
"276 1620 LINE",
"276 1530 LINE"
);
}
);
width = 414;
},
{
layerId = "B5E80BC0-A253-4265-9E84-E8FF94ED18F5";
name = Regular;
paths = (
{
closed = 1;
nodes = (
"102 1058 LINE",
"210 1058 LINE",
"240 1508 LINE SMOOTH",
"241 1529 OFFCURVE",
"240 1557 OFFCURVE",
"240 1579 CURVE",
"62 1579 LINE",
"62 1557 OFFCURVE",
"60 1529 OFFCURVE",
"62 1508 CURVE SMOOTH"
);
},
{
closed = 1;
nodes = (
"422 1058 LINE",
"530 1058 LINE",
"570 1508 LINE SMOOTH",
"572 1529 OFFCURVE",
"570 1557 OFFCURVE",
"570 1579 CURVE",
"402 1579 LINE",
"402 1557 OFFCURVE",
"401 1529 OFFCURVE",
"402 1508 CURVE SMOOTH"
);
}
);
width = 624;
},
{
layerId = "5F2F3E34-E24A-4A89-B41B-C326736566A0";
name = Bold;
paths = (
{
closed = 1;
nodes = (
"226 816 LINE",
"434 816 LINE",
"510 1483 LINE",
"510 1578 LINE",
"136 1578 LINE",
"136 1483 LINE"
);
},
{
closed = 1;
nodes = (
"735 816 LINE",
"943 816 LINE",
"1039 1483 LINE",
"1039 1578 LINE",
"665 1578 LINE",
"665 1483 LINE"
);
}
);
width = 1149;
}
);
unicode = 0022;
userData = {
position = 6;
width = 157;
};
},
{
glyphname = numbersign;
lastChange = "2014-02-15 22:20:08 -0800";
layers = (
{
layerId = "67845082-4271-4E32-8C80-EE8FB13E39CE";
name = Light;
paths = (
{
closed = 1;
nodes = (
"236 0 LINE",
"298 0 LINE",
"618 1620 LINE",
"548 1620 LINE"
);
},
{
closed = 1;
nodes = (
"132 554 LINE",
"1234 554 LINE",
"1234 603 LINE",
"132 603 LINE"
);
},
{
closed = 1;
nodes = (
"162 954 LINE",
"1264 954 LINE",
"1264 1003 LINE",
"162 1003 LINE"
);
},
{
closed = 1;
nodes = (
"746 0 LINE",
"808 0 LINE",
"1128 1620 LINE",
"1058 1620 LINE"
);
}
);
width = 1380;
},
{
layerId = "B5E80BC0-A253-4265-9E84-E8FF94ED18F5";
name = Regular;
paths = (
{
closed = 1;
nodes = (
"225.032 0 LINE",
"353.088 0 LINE",
"663.088 1578 LINE",
"517.032 1578 LINE"
);
},
{
closed = 1;
nodes = (
"154 533 LINE",
"1276 533 LINE",
"1276 624 LINE",
"154 624 LINE"
);
},
{
closed = 1;
nodes = (
"184 933 LINE",
"1306 933 LINE",
"1306 1024 LINE",
"184 1024 LINE"
);
},
{
closed = 1;
nodes = (
"795.032 0 LINE",
"923.088 0 LINE",
"1233.09 1578 LINE",
"1087.03 1578 LINE"
);
}
);
width = 1460;
},
{
layerId = "5F2F3E34-E24A-4A89-B41B-C326736566A0";
name = Bold;
paths = (
{
closed = 1;
nodes = (
"168 0 LINE",
"410 0 LINE",
"720 1578 LINE",
"460 1578 LINE"
);
},
{
closed = 1;
nodes = (
"96 497 LINE",
"1334 497 LINE",
"1334 660 LINE",
"96 660 LINE"
);
},
{
closed = 1;
nodes = (
"126 897 LINE",
"1364 897 LINE",
"1364 1060 LINE",
"126 1060 LINE"
);
},
{
closed = 1;
nodes = (
"738 0 LINE",
"980 0 LINE",
"1290 1578 LINE",
"1030 1578 LINE"
);
}
);
width = 1417;
}
);
unicode = 0023;
userData = {
position = 946;
width = 110;
};
},
{
glyphname = dollar;
lastChange = "2014-02-15 22:20:08 -0800";
layers = (
{
components = (
{
name = s;
transform = "{1, 0, 0, 1, 0, 94}";
}
);
layerId = "67845082-4271-4E32-8C80-EE8FB13E39CE";
name = Light;
paths = (
{
closed = 1;
nodes = (
"451 -195 LINE",
"511 -195 LINE",
"511 1620 LINE",
"451 1620 LINE"
);
}
);
width = 948;
},
{
components = (
{
name = s;
transform = "{1, 0, 0, 1, 0, 133}";
}
);
layerId = "B5E80BC0-A253-4265-9E84-E8FF94ED18F5";
name = Regular;
paths = (
{
closed = 1;
nodes = (
"474 -195 LINE",
"565 -195 LINE",
"565 1620 LINE",
"474 1620 LINE"
);
}
);
width = 1008;
},
{
components = (
{
name = s;
transform = "{1, 0, 0, 1, -28, 70}";
}
);
layerId = "5F2F3E34-E24A-4A89-B41B-C326736566A0";
name = Bold;
paths = (
{
closed = 1;
nodes = (
"344 -195 LINE",
"448 -195 LINE",
"748 1620 LINE",
"644 1620 LINE"
);
}
);
width = 1101;
}
);
unicode = 0024;
userData = {
position = 736;
width = 73;
};
},
{
glyphname = percent;
lastChange = "2014-02-15 22:20:08 -0800";
layers = (
{
layerId = "67845082-4271-4E32-8C80-EE8FB13E39CE";
name = Light;
paths = (
{
closed = 1;
nodes = (
"455 906 CURVE SMOOTH",
"327 906 OFFCURVE",
"245 1028 OFFCURVE",
"245 1224 CURVE SMOOTH",
"245 1430 OFFCURVE",
"327 1559 OFFCURVE",
"455 1559 CURVE SMOOTH",
"583 1559 OFFCURVE",
"665 1430 OFFCURVE",
"665 1224 CURVE SMOOTH",
"665 1028 OFFCURVE",
"583 906 OFFCURVE"
);
},
{
closed = 1;
nodes = (
"455 821 CURVE SMOOTH",
"644 821 OFFCURVE",
"763 977 OFFCURVE",
"763 1225 CURVE SMOOTH",
"763 1479 OFFCURVE",
"644 1638 OFFCURVE",
"455 1638 CURVE SMOOTH",
"266 1638 OFFCURVE",
"147 1479 OFFCURVE",
"147 1225 CURVE SMOOTH",
"147 977 OFFCURVE",
"266 821 OFFCURVE"
);
},
{
closed = 1;
nodes = (
"490 -43 LINE",
"1489 1612 LINE",
"1421 1646 LINE",
"420 -13 LINE"
);
},
{
closed = 1;
nodes = (
"1455 67 CURVE SMOOTH",
"1327 67 OFFCURVE",
"1245 189 OFFCURVE",
"1245 385 CURVE SMOOTH",
"1245 591 OFFCURVE",
"1327 720 OFFCURVE",
"1455 720 CURVE SMOOTH",
"1583 720 OFFCURVE",
"1665 591 OFFCURVE",
"1665 385 CURVE SMOOTH",
"1665 189 OFFCURVE",
"1583 67 OFFCURVE"
);
},
{
closed = 1;
nodes = (
"1455 -18 CURVE SMOOTH",
"1644 -18 OFFCURVE",
"1763 138 OFFCURVE",
"1763 386 CURVE SMOOTH",
"1763 640 OFFCURVE",
"1644 799 OFFCURVE",
"1455 799 CURVE SMOOTH",
"1266 799 OFFCURVE",
"1147 640 OFFCURVE",
"1147 386 CURVE SMOOTH",
"1147 138 OFFCURVE",
"1266 -18 OFFCURVE"
);
}
);
width = 1895;
},
{
layerId = "B5E80BC0-A253-4265-9E84-E8FF94ED18F5";
name = Regular;
paths = (
{
closed = 1;
nodes = (
"455 889 CURVE SMOOTH",
"340 889 OFFCURVE",
"267 1002 OFFCURVE",
"267 1183 CURVE SMOOTH",
"267 1373 OFFCURVE",
"340 1492 OFFCURVE",
"455 1492 CURVE SMOOTH",
"570 1492 OFFCURVE",
"643 1373 OFFCURVE",
"643 1183 CURVE SMOOTH",
"643 1002 OFFCURVE",
"570 889 OFFCURVE"
);
},
{
closed = 1;
nodes = (
"455 779 CURVE SMOOTH",
"652 779 OFFCURVE",
"776 935 OFFCURVE",
"776 1183 CURVE SMOOTH",
"776 1437 OFFCURVE",
"652 1596 OFFCURVE",
"455 1596 CURVE SMOOTH",
"258 1596 OFFCURVE",
"134 1437 OFFCURVE",
"134 1183 CURVE SMOOTH",
"134 935 OFFCURVE",
"258 779 OFFCURVE"
);
},
{
closed = 1;
nodes = (
"548 -42 LINE",
"1496 1580 LINE",
"1380 1633 LINE",
"430 7 LINE"
);
},
{
closed = 1;
nodes = (
"1440 92 CURVE SMOOTH",
"1325 92 OFFCURVE",
"1252 205 OFFCURVE",
"1252 386 CURVE SMOOTH",
"1252 576 OFFCURVE",
"1325 695 OFFCURVE",
"1440 695 CURVE SMOOTH",
"1555 695 OFFCURVE",
"1628 576 OFFCURVE",
"1628 386 CURVE SMOOTH",
"1628 205 OFFCURVE",
"1555 92 OFFCURVE"
);
},
{
closed = 1;
nodes = (
"1440 -18 CURVE SMOOTH",
"1637 -18 OFFCURVE",
"1761 138 OFFCURVE",
"1761 386 CURVE SMOOTH",
"1761 640 OFFCURVE",
"1637 799 OFFCURVE",
"1440 799 CURVE SMOOTH",
"1243 799 OFFCURVE",
"1119 640 OFFCURVE",
"1119 386 CURVE SMOOTH",
"1119 138 OFFCURVE",
"1243 -18 OFFCURVE"
);
}
);
width = 1848;
},
{
layerId = "5F2F3E34-E24A-4A89-B41B-C326736566A0";
name = Bold;
paths = (
{
closed = 1;
nodes = (
"516 951 CURVE SMOOTH",
"426 951 OFFCURVE",
"369 1029 OFFCURVE",
"369 1152 CURVE SMOOTH",
"369 1279 OFFCURVE",
"426 1358 OFFCURVE",
"516 1358 CURVE SMOOTH",
"606 1358 OFFCURVE",
"662 1279 OFFCURVE",
"662 1152 CURVE SMOOTH",
"662 1029 OFFCURVE",
"606 951 OFFCURVE"
);
},
{
closed = 1;
nodes = (
"516 708 CURVE SMOOTH",
"770 708 OFFCURVE",
"930 879 OFFCURVE",
"930 1152 CURVE SMOOTH",
"930 1425 OFFCURVE",
"770 1596 OFFCURVE",
"516 1596 CURVE SMOOTH",
"261 1596 OFFCURVE",
"101 1425 OFFCURVE",
"101 1152 CURVE SMOOTH",
"101 879 OFFCURVE",
"261 708 OFFCURVE"
);
},
{
closed = 1;
nodes = (
"888 -161 LINE",
"1752 1635 LINE",
"1498 1743 LINE",
"638 -55 LINE"
);
},
{
closed = 1;
nodes = (
"1878 225 CURVE SMOOTH",
"1788 225 OFFCURVE",
"1731 303 OFFCURVE",
"1731 426 CURVE SMOOTH",
"1731 553 OFFCURVE",
"1788 632 OFFCURVE",
"1878 632 CURVE SMOOTH",
"1968 632 OFFCURVE",
"2024 553 OFFCURVE",
"2024 426 CURVE SMOOTH",
"2024 303 OFFCURVE",
"1968 225 OFFCURVE"
);
},
{
closed = 1;
nodes = (
"1878 -18 CURVE SMOOTH",
"2132 -18 OFFCURVE",
"2292 153 OFFCURVE",
"2292 426 CURVE SMOOTH",
"2292 699 OFFCURVE",
"2132 870 OFFCURVE",
"1878 870 CURVE SMOOTH",
"1623 870 OFFCURVE",
"1463 699 OFFCURVE",
"1463 426 CURVE SMOOTH",
"1463 153 OFFCURVE",
"1623 -18 OFFCURVE"
);
}
);
width = 2379;
}
);
unicode = 0025;
userData = {
position = 1324;
width = 74;
};
},
{
glyphname = ampersand;
lastChange = "2014-02-15 23:33:44 -0800";
layers = (
{
layerId = "67845082-4271-4E32-8C80-EE8FB13E39CE";
name = Light;
paths = (
{
closed = 1;
nodes = (
"725 -18 CURVE SMOOTH",
"1099 -18 OFFCURVE",
"1281 22 OFFCURVE",
"1388 256 CURVE",
"1637 62 LINE",
"1674 117 LINE",
"1411 325 LINE",
"1465 491 OFFCURVE",
"1460 628 OFFCURVE",
"1460 884 CURVE",
"1381 883 LINE",
"1381 636 OFFCURVE",
"1380 522 OFFCURVE",
"1344 368 CURVE",
"632 926 LINE",
"900 1017 OFFCURVE",
"1100 1051 OFFCURVE",
"1117 1266 CURVE SMOOTH",
"1141 1578 OFFCURVE",
"916 1638 OFFCURVE",
"674 1638 CURVE SMOOTH",
"433 1638 OFFCURVE",
"253 1569 OFFCURVE",
"253 1300 CURVE SMOOTH",
"253 1139 OFFCURVE",
"360 1050 OFFCURVE",
"495 947 CURVE",
"213 862 OFFCURVE",
"125 675 OFFCURVE",
"125 450 CURVE SMOOTH",
"125 67 OFFCURVE",
"451 -18 OFFCURVE"
);
},
{
closed = 1;
nodes = (
"720 63 CURVE SMOOTH",
"565 63 OFFCURVE",
"220 99 OFFCURVE",
"220 450 CURVE SMOOTH",
"220 674 OFFCURVE",
"304 822 OFFCURVE",
"548 898 CURVE",
"1318 296 LINE",
"1220 82 OFFCURVE",
"1082 63 OFFCURVE"
);
},
{
closed = 1;
nodes = (
"581 980 CURVE",
"465 1067 OFFCURVE",
"340 1160 OFFCURVE",
"340 1308 CURVE SMOOTH",
"340 1540 OFFCURVE",
"508 1568 OFFCURVE",
"675 1568 CURVE SMOOTH",
"879 1568 OFFCURVE",
"1061 1518 OFFCURVE",
"1036 1270 CURVE SMOOTH",
"1020 1104 OFFCURVE",
"884 1088 OFFCURVE"
);
}
);
width = 1681;
},
{
layerId = "B5E80BC0-A253-4265-9E84-E8FF94ED18F5";
name = Regular;
paths = (
{
closed = 1;
nodes = (
"734 -18 CURVE SMOOTH",
"1016 -18 OFFCURVE",
"1247 44 OFFCURVE",
"1343 225 CURVE",
"1603 17 LINE",
"1677 129 LINE",
"1409 340 LINE",
"1455 467 OFFCURVE",
"1481 703 OFFCURVE",
"1481 892 CURVE",
"1320 892 LINE",
"1320 734 OFFCURVE",
"1324 574 OFFCURVE",
"1284 434 CURVE",
"740 876 LINE",
"934 936 OFFCURVE",
"1135 1006 OFFCURVE",
"1135 1246 CURVE SMOOTH",
"1135 1497 OFFCURVE",
"923 1596 OFFCURVE",
"694 1596 CURVE SMOOTH",
"434 1596 OFFCURVE",
"255 1490 OFFCURVE",
"255 1240 CURVE SMOOTH",
"255 1112 OFFCURVE",
"356 1002 OFFCURVE",
"486 919 CURVE",
"251 830 OFFCURVE",
"122 678 OFFCURVE",
"122 438 CURVE SMOOTH",
"122 85 OFFCURVE",
"398 -18 OFFCURVE"
);
},
{
closed = 1;
nodes = (
"734 125 CURVE SMOOTH",
"477 125 OFFCURVE",
"310 192 OFFCURVE",
"310 455 CURVE SMOOTH",
"310 638 OFFCURVE",
"414 770 OFFCURVE",
"595 830 CURVE",
"1228 306 LINE",
"1131 155 OFFCURVE",
"969 125 OFFCURVE"
);
},
{
closed = 1;
nodes = (
"632 976 CURVE",
"514 1042 OFFCURVE",
"438 1139 OFFCURVE",
"438 1240 CURVE SMOOTH",
"438 1407 OFFCURVE",
"551 1458 OFFCURVE",
"694 1458 CURVE SMOOTH",
"829 1458 OFFCURVE",
"959 1401 OFFCURVE",
"959 1246 CURVE SMOOTH",
"959 1065 OFFCURVE",
"777 1019 OFFCURVE"
);
}
);
width = 1677;
},
{
layerId = "5F2F3E34-E24A-4A89-B41B-C326736566A0";
name = Bold;
paths = (
{
closed = 1;
nodes = (
"776 -18 CURVE SMOOTH",
"1072 -18 OFFCURVE",
"1217 58 OFFCURVE",
"1334 162 CURVE",
"1595 -72 LINE",
"1767 144 LINE",
"1504 364 LINE",
"1567 471 OFFCURVE",
"1620 646 OFFCURVE",
"1620 848 CURVE",
"1355 858 LINE",
"1355 767 OFFCURVE",
"1322 603 OFFCURVE",
"1282 543 CURVE",
"961 823 LINE",
"1183 972 OFFCURVE",
"1252 1090 OFFCURVE",
"1252 1273 CURVE SMOOTH",
"1252 1444 OFFCURVE",
"1065 1596 OFFCURVE",
"773 1596 CURVE SMOOTH",
"461 1596 OFFCURVE",
"288 1447 OFFCURVE",
"288 1255 CURVE SMOOTH",
"288 1072 OFFCURVE",
"372 973 OFFCURVE",
"518 865 CURVE",
"384 775 OFFCURVE",
"160 657 OFFCURVE",
"160 389 CURVE SMOOTH",
"160 85 OFFCURVE",
"428 -18 OFFCURVE"
);
},
{
closed = 1;
nodes = (
"934 262 OFFCURVE",
"838 262 CURVE SMOOTH",
"644 262 OFFCURVE",
"563 347 OFFCURVE",
"563 441 CURVE SMOOTH",
"563 540 OFFCURVE",
"626 616 OFFCURVE",
"721 675 CURVE",
"1116 334 LINE",
"1031 282 OFFCURVE"
);
},
{
closed = 1;
nodes = (
"758 996 CURVE",
"688 1040 OFFCURVE",
"616 1127 OFFCURVE",
"616 1228 CURVE SMOOTH",
"616 1305 OFFCURVE",
"662 1356 OFFCURVE",
"785 1356 CURVE SMOOTH",
"897 1356 OFFCURVE",
"950 1308 OFFCURVE",
"950 1219 CURVE SMOOTH",
"950 1107 OFFCURVE",
"845 1041 OFFCURVE"
);
}
);
width = 1779;
}
);
unicode = 0026;
userData = {
position = 1068;
width = 98;
};
},
{
glyphname = parenleft;
lastChange = "2014-02-15 22:20:08 -0800";
layers = (
{
layerId = "67845082-4271-4E32-8C80-EE8FB13E39CE";
name = Light;
paths = (
{
closed = 1;
nodes = (
"471 -148 CURVE",
"514 -103 LINE",
"348 62 OFFCURVE",
"265 432 OFFCURVE",
"265 801 CURVE SMOOTH",
"265 1171 OFFCURVE",
"348 1540 OFFCURVE",
"514 1705 CURVE",
"471 1750 LINE",
"268 1581 OFFCURVE",
"166 1191 OFFCURVE",
"166 801 CURVE SMOOTH",
"166 411 OFFCURVE",
"268 22 OFFCURVE"
);
}
);
width = 616;
},
{
layerId = "B5E80BC0-A253-4265-9E84-E8FF94ED18F5";
name = Regular;
paths = (
{
closed = 1;
nodes = (
"613 -183 CURVE",
"696 -78 LINE",
"508 101 OFFCURVE",
"413 423 OFFCURVE",
"413 760 CURVE SMOOTH",
"413 1086 OFFCURVE",
"512 1427 OFFCURVE",
"712 1629 CURVE",
"601 1728 LINE",
"342 1509 OFFCURVE",
"212 1137 OFFCURVE",
"212 760 CURVE SMOOTH",
"212 394 OFFCURVE",
"345 24 OFFCURVE"
);
}
);
width = 852;
},
{
layerId = "5F2F3E34-E24A-4A89-B41B-C326736566A0";
name = Bold;
paths = (
{
closed = 1;
nodes = (
"688 -324 CURVE",
"870 -132 LINE",
"682 62 OFFCURVE",
"591 370 OFFCURVE",
"591 682 CURVE SMOOTH",
"591 1006 OFFCURVE",
"690 1333 OFFCURVE",
"882 1539 CURVE",
"694 1730 LINE",
"358 1493 OFFCURVE",
"190 1097 OFFCURVE",
"190 701 CURVE SMOOTH",
"190 307 OFFCURVE",
"356 -87 OFFCURVE"
);
}
);
width = 968;
}
);
unicode = 0028;
userData = {
position = "-65";
width = 115;
};
},
{
glyphname = parenright;
lastChange = "2014-02-15 22:20:08 -0800";
layers = (
{
layerId = "67845082-4271-4E32-8C80-EE8FB13E39CE";
name = Light;
paths = (
{
closed = 1;
nodes = (
"145 -148 LINE",
"348 22 OFFCURVE",
"450 411 OFFCURVE",
"450 801 CURVE SMOOTH",
"450 1191 OFFCURVE",
"348 1581 OFFCURVE",
"145 1750 CURVE",
"102 1705 LINE",
"268 1540 OFFCURVE",
"351 1171 OFFCURVE",
"351 801 CURVE SMOOTH",
"351 432 OFFCURVE",
"268 62 OFFCURVE",
"102 -103 CURVE"
);
}
);
width = 616;
},
{
layerId = "B5E80BC0-A253-4265-9E84-E8FF94ED18F5";
name = Regular;
paths = (
{
closed = 1;
nodes = (
"239 -183 LINE",
"507 24 OFFCURVE",
"640 394 OFFCURVE",
"640 760 CURVE SMOOTH",
"640 1137 OFFCURVE",
"510 1509 OFFCURVE",
"251 1728 CURVE",
"140 1629 LINE",
"340 1427 OFFCURVE",
"439 1086 OFFCURVE",
"439 760 CURVE SMOOTH",
"439 423 OFFCURVE",
"344 101 OFFCURVE",
"156 -78 CURVE"
);
}
);
width = 852;
},
{
layerId = "5F2F3E34-E24A-4A89-B41B-C326736566A0";
name = Bold;
paths = (
{
closed = 1;
nodes = (
"333 -324 LINE",
"665 -87 OFFCURVE",
"831 307 OFFCURVE",
"831 701 CURVE SMOOTH",
"831 1097 OFFCURVE",
"663 1493 OFFCURVE",
"327 1730 CURVE",
"139 1539 LINE",
"331 1333 OFFCURVE",
"430 1006 OFFCURVE",
"430 682 CURVE SMOOTH",
"430 370 OFFCURVE",
"339 62 OFFCURVE",
"151 -132 CURVE"
);
}
);
width = 966;
}
);
unicode = 0029;
userData = {
position = 234;
width = 116;
};
},
{
glyphname = asterisk;
lastChange = "2014-02-15 22:20:08 -0800";
layers = (
{
layerId = "67845082-4271-4E32-8C80-EE8FB13E39CE";
name = Light;
paths = (
{
closed = 1;
nodes = (
"331 829 LINE",
"499 1126 LINE",
"667 829 LINE",
"728 863 LINE",
"541 1150 LINE",
"864 1145 LINE",
"864 1208 LINE",
"542 1201 LINE",
"724 1490 LINE",
"667 1523 LINE",
"499 1214 LINE",
"331 1523 LINE",
"274 1490 LINE",
"456 1201 LINE",
"134 1208 LINE",
"134 1145 LINE",
"457 1150 LINE",
"270 863 LINE"
);
}
);
width = 1019;
},
{
layerId = "B5E80BC0-A253-4265-9E84-E8FF94ED18F5";
name = Regular;
paths = (
{
closed = 1;
nodes = (
"304 814 LINE",
"458 1095 LINE",
"612 814 LINE",
"714 868 LINE",
"537 1144 LINE",
"843 1137 LINE",
"843 1241 LINE",
"535 1234 LINE",
"700 1509 LINE",
"597 1561 LINE",
"458 1283 LINE",
"319 1561 LINE",
"216 1509 LINE",
"379 1234 LINE",
"73 1241 LINE",
"73 1137 LINE",
"377 1144 LINE",
"202 868 LINE"
);
}
);
width = 924;
},
{
layerId = "5F2F3E34-E24A-4A89-B41B-C326736566A0";
name = Bold;
paths = (
{
closed = 1;
nodes = (
"398 778 CURVE",
"423 822 OFFCURVE",
"393 767 OFFCURVE",
"530 1005 CURVE",
"661 775 LINE",
"854 893 LINE",
"716 1137 LINE",
"975 1137 LINE",
"975 1322 LINE",
"711 1322 LINE",
"857 1574 LINE",
"779 1620 OFFCURVE",
"745 1639 OFFCURVE",
"666 1686 CURVE",
"626 1620 OFFCURVE",
"641 1655 OFFCURVE",
"525 1454 CURVE",
"388 1685 LINE",
"202 1580 LINE",
"346 1322 LINE",
"58 1322 LINE",
"58 1137 LINE",
"346 1137 LINE",
"206 893 LINE",
"284 847 OFFCURVE",
"319 826 OFFCURVE"
);
}
);
width = 1010;
}
);
unicode = 002A;
userData = {
anchors = (
);
com.typemytype.robofont.layerData = {
b = {
anchors = (
);
components = (
);
contours = (
);
lib = {
};
name = asterisk;
unicodes = (
);
width = 1019;
};
};
components = (
);
contours = (
);
name = asterisk;
position = 1148;
unicodes = (
);
width = 56;
};
},
{
glyphname = plus;
lastChange = "2014-02-15 22:20:08 -0800";
layers = (
{
layerId = "67845082-4271-4E32-8C80-EE8FB13E39CE";
name = Light;
paths = (
{
closed = 1;
nodes = (
"452 215 LINE",
"514 215 LINE",
"514 554 LINE",
"847 554 LINE",
"847 622 LINE",
"514 622 LINE",
"514 962 LINE",
"452 962 LINE",
"452 622 LINE",
"120 622 LINE",
"120 554 LINE",
"452 554 LINE"
);
}
);
width = 972;
},
{
layerId = "B5E80BC0-A253-4265-9E84-E8FF94ED18F5";
name = Regular;
paths = (
{
closed = 1;
nodes = (
"459 174 LINE",
"600 174 LINE",
"600 518 LINE",
"914 518 LINE",
"914 651 LINE",
"600 651 LINE",
"600 995 LINE",
"459 995 LINE",
"459 651 LINE",
"146 651 LINE",
"146 518 LINE",
"459 518 LINE"
);
}
);
width = 1068;
},
{
layerId = "5F2F3E34-E24A-4A89-B41B-C326736566A0";
name = Bold;
paths = (
{
closed = 1;
nodes = (
"371 67 LINE",
"716 67 LINE",
"716 424 LINE",
"1070 424 LINE",
"1070 727 LINE",
"716 727 LINE",
"716 1080 LINE",
"371 1080 LINE",
"371 727 LINE",
"17 727 LINE",
"17 424 LINE",
"371 424 LINE"
);
}
);
width = 1087;
}
);
unicode = 002B;
userData = {
position = 452;
width = 62;
};
},
{
glyphname = comma;
lastChange = "2014-02-15 22:20:08 -0800";
layers = (
{
layerId = "67845082-4271-4E32-8C80-EE8FB13E39CE";
name = Light;
paths = (
{
closed = 1;
nodes = (
"145 -234 LINE",
"279 -196 OFFCURVE",
"267 -79 OFFCURVE",
"267 29 CURVE SMOOTH",
"267 218 LINE",
"155 218 LINE",
"155 30 LINE",
"221 30 LINE",
"221 -114 OFFCURVE",
"213 -168 OFFCURVE",
"130 -201 CURVE"
);
}
);
width = 414;
},
{
layerId = "B5E80BC0-A253-4265-9E84-E8FF94ED18F5";
name = Regular;
paths = (
{
closed = 1;
nodes = (
"267 -273 LINE",
"413 -231 OFFCURVE",
"496 -110 OFFCURVE",
"496 44 CURVE SMOOTH",
"496 293 LINE",
"235 293 LINE",
"235 0 LINE",
"346 0 LINE",
"347 -95 OFFCURVE",
"311 -161 OFFCURVE",
"226 -190 CURVE"
);
}
);
width = 720;
},
{
layerId = "5F2F3E34-E24A-4A89-B41B-C326736566A0";
name = Bold;
paths = (
{
closed = 1;
nodes = (
"275 -328 LINE",
"452 -275 OFFCURVE",
"649 -217 OFFCURVE",
"649 56 CURVE SMOOTH",
"649 462 LINE",
"208 462 LINE",
"208 0 LINE",
"374 0 LINE",
"374 -105 OFFCURVE",
"352 -154 OFFCURVE",
"209 -206 CURVE"
);
}
);
width = 799;
}
);
unicode = 002C;
userData = {
position = 205;
width = 102;
};
},
{
glyphname = hyphen;
lastChange = "2014-02-15 22:20:08 -0800";
layers = (
{
anchors = (
{
name = _mid;
position = "{413, 523}";
}
);
layerId = "67845082-4271-4E32-8C80-EE8FB13E39CE";
name = Light;
paths = (
{
closed = 1;
nodes = (
"102 477 LINE",
"715 477 LINE",
"715 564 LINE",
"102 564 LINE"
);
}
);
width = 816;
},
{
anchors = (
{
name = _mid;
position = "{495, 588}";
}
);
layerId = "B5E80BC0-A253-4265-9E84-E8FF94ED18F5";
name = Regular;
paths = (
{
closed = 1;
nodes = (
"160 508 LINE",
"836 508 LINE",
"836 665 LINE",
"160 665 LINE"
);
}
);
width = 996;
},
{
anchors = (
{
name = _mid;
position = "{586, 750}";
}
);
layerId = "5F2F3E34-E24A-4A89-B41B-C326736566A0";
name = Bold;
paths = (
{
closed = 1;
nodes = (
"169 601 LINE",
"1008 601 LINE",
"1008 883 LINE",
"169 883 LINE"
);
}
);
width = 1196;
}
);
unicode = 002D;
userData = {
position = 105;
width = 613;
};
},
{
glyphname = period;
lastChange = "2014-02-15 22:20:08 -0800";
layers = (
{
layerId = "67845082-4271-4E32-8C80-EE8FB13E39CE";
name = Light;
paths = (
{
closed = 1;
nodes = (
"197 -26 CURVE SMOOTH",
"239 -26 OFFCURVE",
"258 10 OFFCURVE",
"258 47 CURVE SMOOTH",
"258 83 OFFCURVE",
"239 119 OFFCURVE",
"197 119 CURVE SMOOTH",
"159 119 OFFCURVE",
"129 83 OFFCURVE",
"129 47 CURVE SMOOTH",
"129 7 OFFCURVE",
"159 -26 OFFCURVE"
);
}
);
width = 393;
},
{
layerId = "B5E80BC0-A253-4265-9E84-E8FF94ED18F5";
name = Regular;
paths = (
{
closed = 1;
nodes = (
"327 -17 CURVE SMOOTH",
"392 -17 OFFCURVE",
"435 36 OFFCURVE",
"435 98 CURVE SMOOTH",
"435 160 OFFCURVE",
"392 213 OFFCURVE",
"327 213 CURVE SMOOTH",
"264 213 OFFCURVE",
"215 160 OFFCURVE",
"215 98 CURVE SMOOTH",
"215 35 OFFCURVE",
"263 -17 OFFCURVE"
);
}
);
width = 660;
},
{
layerId = "5F2F3E34-E24A-4A89-B41B-C326736566A0";
name = Bold;
paths = (
{
closed = 1;
nodes = (
"315 7 CURVE SMOOTH",
"441 7 OFFCURVE",
"545 103 OFFCURVE",
"545 231 CURVE SMOOTH",
"545 358 OFFCURVE",
"439 456 OFFCURVE",
"315 456 CURVE SMOOTH",
"188 456 OFFCURVE",
"90 358 OFFCURVE",
"90 231 CURVE SMOOTH",
"90 109 OFFCURVE",
"184 7 OFFCURVE"
);
}
);
width = 616;
}
);
unicode = 002E;
userData = {
position = 129;
width = 129;
};
},
{
glyphname = slash;
lastChange = "2014-02-15 22:20:08 -0800";
layers = (
{
layerId = "67845082-4271-4E32-8C80-EE8FB13E39CE";
name = Light;
paths = (
{
closed = 1;
nodes = (
"139 -175 LINE",
"835 1718 LINE",
"766 1748 LINE",
"72 -148 LINE"
);
}
);
width = 907;
},
{
layerId = "B5E80BC0-A253-4265-9E84-E8FF94ED18F5";
name = Regular;
paths = (
{
closed = 1;
nodes = (
"128 -173 LINE",
"872 1685 LINE",
"755 1731 LINE",
"10 -127 LINE"
);
}
);
width = 934;
},
{
layerId = "5F2F3E34-E24A-4A89-B41B-C326736566A0";
name = Bold;
paths = (
{
closed = 1;
nodes = (
"95 -158 LINE",
"1081 1626 LINE",
"874 1728 LINE",
"-105 -59 LINE"
);
}
);
width = 988;
}
);
unicode = 002F;
},
{
glyphname = zero;
lastChange = "2014-02-16 00:03:09 -0800";
layers = (
{
layerId = "67845082-4271-4E32-8C80-EE8FB13E39CE";
name = Light;
paths = (
{
closed = 1;
nodes = (
"645 61 CURVE SMOOTH",
"381 61 OFFCURVE",
"215 269 OFFCURVE",
"215 599 CURVE SMOOTH",
"215 915 OFFCURVE",
"381 1113 OFFCURVE",
"645 1113 CURVE SMOOTH",
"897 1113 OFFCURVE",
"1055 915 OFFCURVE",
"1055 599 CURVE SMOOTH",
"1055 269 OFFCURVE",
"897 61 OFFCURVE"
);
},
{
closed = 1;
nodes = (
"645 -18 CURVE SMOOTH",
"964 -18 OFFCURVE",
"1164 220 OFFCURVE",
"1164 599 CURVE SMOOTH",
"1164 962 OFFCURVE",
"964 1190 OFFCURVE",
"645 1190 CURVE SMOOTH",
"314 1190 OFFCURVE",
"106 962 OFFCURVE",
"106 599 CURVE SMOOTH",
"106 220 OFFCURVE",
"314 -18 OFFCURVE"
);
}
);
width = 1270;
},
{
layerId = "B5E80BC0-A253-4265-9E84-E8FF94ED18F5";
name = Regular;
paths = (
{
closed = 1;
nodes = (
"672 124 CURVE SMOOTH",
"386 124 OFFCURVE",
"291 349 OFFCURVE",
"291 592 CURVE SMOOTH",
"291 822 OFFCURVE",
"382 1045 OFFCURVE",
"672 1045 CURVE SMOOTH",
"953 1045 OFFCURVE",
"1057 833 OFFCURVE",
"1057 606 CURVE SMOOTH",
"1057 361 OFFCURVE",
"972 124 OFFCURVE"
);
},
{
closed = 1;
nodes = (
"672 -18 CURVE SMOOTH",
"1042 -18 OFFCURVE",
"1243 251 OFFCURVE",
"1243 590 CURVE SMOOTH",
"1243 918 OFFCURVE",
"1044 1186 OFFCURVE",
"672 1186 CURVE SMOOTH",
"298 1186 OFFCURVE",
"105 921 OFFCURVE",
"105 590 CURVE SMOOTH",
"105 257 OFFCURVE",
"305 -18 OFFCURVE"
);
}
);
width = 1356;
},
{
layerId = "5F2F3E34-E24A-4A89-B41B-C326736566A0";
name = Bold;
paths = (
{
closed = 1;
nodes = (
"740 287 CURVE SMOOTH",
"589 287 OFFCURVE",
"536 396 OFFCURVE",
"536 578 CURVE SMOOTH",
"536 725 OFFCURVE",
"580 874 OFFCURVE",
"740 874 CURVE SMOOTH",
"902 874 OFFCURVE",
"952 744 OFFCURVE",
"952 586 CURVE SMOOTH",
"952 417 OFFCURVE",
"903 287 OFFCURVE"
);
},
{
closed = 1;
nodes = (
"738 -18 CURVE SMOOTH",
"1119 -18 OFFCURVE",
"1335 205 OFFCURVE",
"1335 565 CURVE SMOOTH",
"1335 949 OFFCURVE",
"1139 1180 OFFCURVE",
"740 1180 CURVE SMOOTH",
"358 1180 OFFCURVE",
"150 961 OFFCURVE",
"150 576 CURVE SMOOTH",
"150 214 OFFCURVE",
"353 -18 OFFCURVE"
);
}
);
width = 1489;
}
);
unicode = 0030;
userData = {
position = 1116;
width = 109;
};
},
{
glyphname = one;
lastChange = "2014-02-16 00:02:10 -0800";
layers = (
{
layerId = "67845082-4271-4E32-8C80-EE8FB13E39CE";
name = Light;
paths = (
{
closed = 1;
nodes = (
"713 0 LINE",
"811 0 LINE",
"811 1172 LINE",
"699 1172 LINE",
"418 1027 LINE",
"449 961 LINE",
"713 1098 LINE"
);
}
);
width = 1270;
},
{
layerId = "B5E80BC0-A253-4265-9E84-E8FF94ED18F5";
name = Regular;
paths = (
{
closed = 1;
nodes = (
"440 0 LINE",
"627 0 LINE",
"627 1168 LINE",
"437 1168 LINE",
"158 1029 LINE",
"211 903 LINE",
"440 1013 LINE"
);
}
);
width = 828;
},
{
layerId = "5F2F3E34-E24A-4A89-B41B-C326736566A0";
name = Bold;
paths = (
{
closed = 1;
nodes = (
"377 0 LINE",
"787 0 LINE",
"787 1162 LINE",
"402 1162 LINE",
"81 1008 LINE",
"191 747 LINE",
"377 831 LINE"
);
}
);
width = 1013;
}
);
unicode = 0031;
userData = {
position = 347;
width = 101;
};
},
{
glyphname = two;
lastChange = "2014-02-16 00:01:14 -0800";
layers = (
{
layerId = "67845082-4271-4E32-8C80-EE8FB13E39CE";
name = Light;
paths = (
{
closed = 1;
nodes = (
"258 0 LINE",
"1012 0 LINE",
"1012 71 LINE",
"376 71 LINE",
"713 382 LINE SMOOTH",
"844 502 OFFCURVE",
"998 648 OFFCURVE",
"998 853 CURVE SMOOTH",
"998 1083 OFFCURVE",
"844 1190 OFFCURVE",
"612 1190 CURVE SMOOTH",
"447 1190 OFFCURVE",
"342 1130 OFFCURVE",
"264 1080 CURVE",
"293 1006 LINE",
"372 1057 OFFCURVE",
"479 1113 OFFCURVE",
"612 1113 CURVE SMOOTH",
"758 1113 OFFCURVE",
"903 1061 OFFCURVE",
"903 853 CURVE SMOOTH",
"903 673 OFFCURVE",
"793 572 OFFCURVE",
"657 444 CURVE SMOOTH",
"258 67 LINE"
);
}
);
width = 1270;
},
{
layerId = "B5E80BC0-A253-4265-9E84-E8FF94ED18F5";
name = Regular;
paths = (
{
closed = 1;
nodes = (
"124 0 LINE",
"920 0 LINE",
"920 136 LINE",
"333 136 LINE",
"614 362 LINE SMOOTH",
"778 494 OFFCURVE",
"920 652 OFFCURVE",
"920 832 CURVE SMOOTH",
"920 1083 OFFCURVE",
"724 1186 OFFCURVE",
"510 1186 CURVE SMOOTH",
"390 1186 OFFCURVE",
"264 1153 OFFCURVE",
"164 1095 CURVE",
"218 973 LINE",
"308 1017 OFFCURVE",
"418 1047 OFFCURVE",
"515 1047 CURVE SMOOTH",
"649 1047 OFFCURVE",
"758 990 OFFCURVE",
"758 833 CURVE SMOOTH",
"758 669 OFFCURVE",
"631 569 OFFCURVE",
"513 467 CURVE SMOOTH",
"124 130 LINE"
);
}
);
width = 1056;
},
{
layerId = "5F2F3E34-E24A-4A89-B41B-C326736566A0";
name = Bold;
paths = (
{
closed = 1;
nodes = (
"166 0 LINE",
"1049 0 LINE",
"1049 307 LINE",
"721 307 LINE",
"821 398 LINE SMOOTH",
"1030 588 OFFCURVE",
"1062 673 OFFCURVE",
"1062 824 CURVE SMOOTH",
"1062 1079 OFFCURVE",
"849 1180 OFFCURVE",
"613 1180 CURVE SMOOTH",
"433 1180 OFFCURVE",
"248 1126 OFFCURVE",
"105 1041 CURVE",
"206 767 LINE",
"309 825 OFFCURVE",
"429 869 OFFCURVE",
"529 869 CURVE SMOOTH",
"612 869 OFFCURVE",
"673 838 OFFCURVE",
"673 757 CURVE SMOOTH",
"673 667 OFFCURVE",
"504 542 OFFCURVE",
"447 491 CURVE SMOOTH",
"166 238 LINE"
);
}
);
width = 1206;
}
);
unicode = 0032;
userData = {
position = 796;
width = 71;
};
},
{
glyphname = three;
lastChange = "2014-02-16 00:00:38 -0800";
layers = (
{
layerId = "67845082-4271-4E32-8C80-EE8FB13E39CE";
name = Light;
paths = (
{
closed = 1;
nodes = (
"619 -213 CURVE SMOOTH",
"844 -213 OFFCURVE",
"1034 -110 OFFCURVE",
"1041 141 CURVE SMOOTH",
"1048 377 OFFCURVE",
"911 506 OFFCURVE",
"679 540 CURVE",
"824 540 OFFCURVE",
"993 607 OFFCURVE",
"993 853 CURVE SMOOTH",
"993 1083 OFFCURVE",
"839 1190 OFFCURVE",
"607 1190 CURVE SMOOTH",
"442 1190 OFFCURVE",
"337 1130 OFFCURVE",
"259 1080 CURVE",
"288 1006 LINE",
"367 1057 OFFCURVE",
"474 1113 OFFCURVE",
"607 1113 CURVE SMOOTH",
"753 1113 OFFCURVE",
"899 1061 OFFCURVE",
"899 853 CURVE SMOOTH",
"899 619 OFFCURVE",
"728 583 OFFCURVE",
"572 583 CURVE",
"572 502 LINE",
"831 462 OFFCURVE",
"958 384 OFFCURVE",
"949 142 CURVE SMOOTH",
"942 -54 OFFCURVE",
"804 -136 OFFCURVE",
"619 -136 CURVE SMOOTH",
"511 -136 OFFCURVE",
"394 -118 OFFCURVE",
"286 -69 CURVE",
"260 -141 LINE",
"375 -191 OFFCURVE",
"502 -213 OFFCURVE"
);
}
);
width = 1270;
},
{
layerId = "B5E80BC0-A253-4265-9E84-E8FF94ED18F5";
name = Regular;
paths = (
{
closed = 1;
nodes = (
"559 -218 CURVE SMOOTH",
"780 -218 OFFCURVE",
"1027 -108 OFFCURVE",
"1027 146 CURVE SMOOTH",
"1027 357 OFFCURVE",
"897 484 OFFCURVE",
"699 525 CURVE",
"871 526 OFFCURVE",
"988 684 OFFCURVE",
"988 846 CURVE SMOOTH",
"988 1101 OFFCURVE",
"758 1186 OFFCURVE",
"540 1186 CURVE SMOOTH",
"426 1186 OFFCURVE",
"292 1152 OFFCURVE",
"187 1105 CURVE",
"237 972 LINE",
"330 1017 OFFCURVE",
"430 1043 OFFCURVE",
"534 1043 CURVE SMOOTH",
"689 1043 OFFCURVE",
"823 1002 OFFCURVE",
"823 823 CURVE SMOOTH",
"823 644 OFFCURVE",
"661 594 OFFCURVE",
"511 594 CURVE",
"511 451 LINE",
"683 432 OFFCURVE",
"847 364 OFFCURVE",
"847 166 CURVE SMOOTH",
"847 -11 OFFCURVE",
"727 -79 OFFCURVE",
"563 -79 CURVE SMOOTH",
"449 -79 OFFCURVE",
"309 -43 OFFCURVE",
"208 11 CURVE",
"154 -122 LINE",
"279 -183 OFFCURVE",
"419 -218 OFFCURVE"
);
}
);
width = 1176;
},
{
layerId = "5F2F3E34-E24A-4A89-B41B-C326736566A0";
name = Bold;
paths = (
{
closed = 1;
nodes = (
"610 -206 CURVE SMOOTH",
"870 -206 OFFCURVE",
"1090 -92 OFFCURVE",
"1090 210 CURVE SMOOTH",
"1090 273 OFFCURVE",
"1060 484 OFFCURVE",
"833 522 CURVE",
"961 552 OFFCURVE",
"1038 686 OFFCURVE",
"1042 803 CURVE SMOOTH",
"1051 1069 OFFCURVE",
"849 1180 OFFCURVE",
"603 1180 CURVE SMOOTH",
"452 1179 OFFCURVE",
"281 1136 OFFCURVE",
"139 1063 CURVE",
"269 797 LINE",
"365 850 OFFCURVE",
"457 875 OFFCURVE",
"529 875 CURVE SMOOTH",
"640 875 OFFCURVE",
"677 821 OFFCURVE",
"677 763 CURVE SMOOTH",
"677 673 OFFCURVE",
"589 630 OFFCURVE",
"416 630 CURVE",
"416 380 LINE",
"606 387 OFFCURVE",
"697 327 OFFCURVE",
"697 231 CURVE SMOOTH",
"697 135 OFFCURVE",
"624 94 OFFCURVE",
"525 94 CURVE SMOOTH",
"449 94 OFFCURVE",
"358 118 OFFCURVE",
"273 162 CURVE",
"177 -116 LINE",
"313 -172 OFFCURVE",
"468 -206 OFFCURVE"
);
}
);
width = 1253;
}
);
unicode = 0033;
userData = {
position = 771;
width = 102;
};
},
{
glyphname = four;
lastChange = "2014-02-16 00:00:18 -0800";
layers = (
{
layerId = "67845082-4271-4E32-8C80-EE8FB13E39CE";
name = Light;
paths = (
{
closed = 1;
nodes = (
"857 -283 LINE",
"953 -283 LINE",
"953 73 LINE",
"1155 73 LINE",
"1155 148 LINE",
"953 148 LINE",
"953 1179 LINE",
"852 1203 LINE",
"149 136 LINE",
"170 73 LINE",
"857 73 LINE"
);
},
{
closed = 1;
nodes = (
"255 146 LINE",
"857 1076 LINE",
"857 146 LINE"
);
}
);
width = 1270;
},
{
layerId = "B5E80BC0-A253-4265-9E84-E8FF94ED18F5";
name = Regular;
paths = (
{
closed = 1;
nodes = (
"784 -260 LINE",
"955 -260 LINE",
"955 68 LINE",
"1141 68 LINE",
"1141 207 LINE",
"955 207 LINE",
"955 1169 LINE",
"793 1208 LINE",
"109 205 LINE",
"137 68 LINE",
"784 68 LINE"
);
},
{
closed = 1;
nodes = (
"294 205 LINE",
"784 930 LINE",
"784 205 LINE"
);
}
);
width = 1200;
},
{
layerId = "5F2F3E34-E24A-4A89-B41B-C326736566A0";
name = Bold;
paths = (
{
closed = 1;
nodes = (
"668 -200 LINE",
"1001 -200 LINE",
"1001 56 LINE",
"1179 56 LINE",
"1179 329 LINE",
"1001 329 LINE",
"1001 1144 LINE",
"714 1220 LINE",
"79 281 LINE",
"125 56 LINE",
"668 56 LINE"
);
},
{
closed = 1;
nodes = (
"439 329 LINE",
"668 727 LINE",
"668 329 LINE"
);
}
);
width = 1292;
}
);
unicode = 0034;
userData = {
position = 832;
width = 108;
};
},
{
glyphname = five;
lastChange = "2014-02-15 22:20:08 -0800";
layers = (
{
layerId = "67845082-4271-4E32-8C80-EE8FB13E39CE";
name = Light;
paths = (
{
closed = 1;
nodes = (
"641 -217 CURVE SMOOTH",
"904 -217 OFFCURVE",
"1098 -57 OFFCURVE",
"1098 226 CURVE SMOOTH",
"1098 492 OFFCURVE",
"955 678 OFFCURVE",
"671 678 CURVE SMOOTH",
"540 678 OFFCURVE",
"447 629 OFFCURVE",
"393 584 CURVE",
"393 1097 LINE",
"1008 1097 LINE",
"1008 1172 LINE",
"321 1172 LINE",
"321 534 LINE",
"370 484 LINE",
"429 542 OFFCURVE",
"522 595 OFFCURVE",
"671 595 CURVE SMOOTH",
"914 595 OFFCURVE",
"1000 441 OFFCURVE",
"1000 226 CURVE SMOOTH",
"1000 -6 OFFCURVE",
"871 -140 OFFCURVE",
"641 -140 CURVE SMOOTH",
"487 -140 OFFCURVE",
"376 -88 OFFCURVE",
"297 -23 CURVE",
"268 -97 LINE",
"339 -152 OFFCURVE",
"466 -217 OFFCURVE"
);
}
);
width = 1270;
},
{
layerId = "B5E80BC0-A253-4265-9E84-E8FF94ED18F5";
name = Regular;
paths = (
{
closed = 1;
nodes = (
"549 -207 CURVE SMOOTH",
"833 -207 OFFCURVE",
"1040 -49 OFFCURVE",
"1040 248 CURVE SMOOTH",
"1040 518 OFFCURVE",
"858 698 OFFCURVE",
"589 698 CURVE SMOOTH",
"519 698 OFFCURVE",
"400 679 OFFCURVE",
"349 622 CURVE",
"349 1018 LINE",
"952 1018 LINE",
"952 1169 LINE",
"204 1169 LINE",
"204 537 LINE",
"272 468 LINE",
"358 510 OFFCURVE",
"473 562 OFFCURVE",
"571 562 CURVE SMOOTH",
"770 562 OFFCURVE",
"868 435 OFFCURVE",
"868 244 CURVE SMOOTH",
"868 36 OFFCURVE",
"752 -56 OFFCURVE",
"551 -56 CURVE SMOOTH",
"441 -56 OFFCURVE",
"317 -19 OFFCURVE",
"219 31 CURVE",
"168 -114 LINE",
"296 -165 OFFCURVE",
"407 -207 OFFCURVE"
);
}
);
width = 1200;
},
{
layerId = "5F2F3E34-E24A-4A89-B41B-C326736566A0";
name = Bold;
paths = (
{
closed = 1;
nodes = (
"590 -181 CURVE SMOOTH",
"883 -181 OFFCURVE",
"1095 15 OFFCURVE",
"1095 283 CURVE SMOOTH",
"1095 569 OFFCURVE",
"920 751 OFFCURVE",
"625 751 CURVE SMOOTH",
"544 751 OFFCURVE",
"499 705 OFFCURVE",
"519 722 CURVE",
"519 881 LINE",
"1013 881 LINE",
"1013 1162 LINE",
"186 1162 LINE",
"186 547 LINE",
"353 401 LINE",
"457 460 OFFCURVE",
"529 477 OFFCURVE",
"584 477 CURVE SMOOTH",
"688 477 OFFCURVE",
"747 404 OFFCURVE",
"747 287 CURVE SMOOTH",
"747 187 OFFCURVE",
"679 134 OFFCURVE",
"559 134 CURVE SMOOTH",
"401 134 OFFCURVE",
"296 176 OFFCURVE",
"195 204 CURVE",
"156 -88 LINE",
"275 -141 OFFCURVE",
"459 -181 OFFCURVE"
);
}
);
width = 1245;
}
);
unicode = 0035;
userData = {
position = 762;
width = 104;
};
},
{
glyphname = six;
lastChange = "2014-02-15 23:59:37 -0800";
layers = (
{
layerId = "67845082-4271-4E32-8C80-EE8FB13E39CE";
name = Light;
paths = (
{
closed = 1;
nodes = (
"694 -125 CURVE SMOOTH",
"940 -125 OFFCURVE",
"1126 45 OFFCURVE",
"1126 369 CURVE SMOOTH",
"1126 678 OFFCURVE",
"919 813 OFFCURVE",
"712 813 CURVE SMOOTH",
"552 813 OFFCURVE",
"391 734 OFFCURVE",
"323 592 CURVE",
"347 915 OFFCURVE",
"540 1188 OFFCURVE",
"880 1286 CURVE",
"863 1359 LINE",
"458 1259 OFFCURVE",
"220 892 OFFCURVE",
"220 469 CURVE SMOOTH",
"220 134 OFFCURVE",
"354 -125 OFFCURVE"
);
},
{
closed = 1;
nodes = (
"695 -45 CURVE SMOOTH",
"376 -45 OFFCURVE",
"316 256 OFFCURVE",
"316 448 CURVE SMOOTH",
"316 472 OFFCURVE",
"317 494 OFFCURVE",
"318 513 CURVE",
"408 652 OFFCURVE",
"562 732 OFFCURVE",
"705 732 CURVE SMOOTH",
"877 732 OFFCURVE",
"1031 615 OFFCURVE",
"1031 345 CURVE SMOOTH",
"1031 122 OFFCURVE",
"894 -45 OFFCURVE"
);
}
);
width = 1270;
},
{
layerId = "B5E80BC0-A253-4265-9E84-E8FF94ED18F5";
name = Regular;
paths = (
{
closed = 1;
nodes = (
"658 -72 CURVE SMOOTH",
"953 -72 OFFCURVE",
"1158 122 OFFCURVE",
"1158 419 CURVE SMOOTH",
"1158 696 OFFCURVE",
"967 877 OFFCURVE",
"692 877 CURVE SMOOTH",
"561 877 OFFCURVE",
"437 836 OFFCURVE",
"351 733 CURVE",
"403 1015 OFFCURVE",
"641 1201 OFFCURVE",
"911 1258 CURVE",
"868 1403 LINE",
"430 1300 OFFCURVE",
"153 962 OFFCURVE",
"153 509 CURVE SMOOTH",
"153 183 OFFCURVE",
"305 -72 OFFCURVE"
);
},
{
closed = 1;
nodes = (
"658 70 CURVE SMOOTH",
"408 70 OFFCURVE",
"331 268 OFFCURVE",
"331 485 CURVE SMOOTH",
"331 526 OFFCURVE",
"331 567 OFFCURVE",
"337 607 CURVE",
"406 684 OFFCURVE",
"592 741 OFFCURVE",
"692 741 CURVE SMOOTH",
"883 741 OFFCURVE",
"982 600 OFFCURVE",
"982 419 CURVE SMOOTH",
"982 222 OFFCURVE",
"865 70 OFFCURVE"
);
}
);
width = 1308;
},
{
layerId = "5F2F3E34-E24A-4A89-B41B-C326736566A0";
name = Bold;
paths = (
{
closed = 1;
nodes = (
"694 -78 CURVE SMOOTH",
"1015 -78 OFFCURVE",
"1195 125 OFFCURVE",
"1195 406 CURVE SMOOTH",
"1195 662 OFFCURVE",
"1046 885 OFFCURVE",
"743 885 CURVE SMOOTH",
"664 885 OFFCURVE",
"568 860 OFFCURVE",
"530 838 CURVE",
"611 989 OFFCURVE",
"848 1120 OFFCURVE",
"1026 1143 CURVE",
"932 1453 LINE",
"533 1351 OFFCURVE",
"103 1078 OFFCURVE",
"125 468 CURVE SMOOTH",
"136 166 OFFCURVE",
"346 -78 OFFCURVE"
);
},
{
closed = 1;
nodes = (
"682 212 CURVE SMOOTH",
"522 212 OFFCURVE",
"471 315 OFFCURVE",
"471 440 CURVE SMOOTH",
"471 476 OFFCURVE",
"477 513 OFFCURVE",
"487 547 CURVE",
"544 586 OFFCURVE",
"624 606 OFFCURVE",
"687 606 CURVE SMOOTH",
"804 606 OFFCURVE",
"860 521 OFFCURVE",
"860 412 CURVE SMOOTH",
"860 292 OFFCURVE",
"795 212 OFFCURVE"
);
}
);
width = 1279;
}
);
unicode = 0036;
userData = {
position = 983;
width = 102;
};
},
{
glyphname = seven;
lastChange = "2014-02-15 23:59:09 -0800";
layers = (
{
layerId = "67845082-4271-4E32-8C80-EE8FB13E39CE";
name = Light;
paths = (
{
closed = 1;
nodes = (
"492 -219 LINE",
"1049 1098 LINE",
"1016 1172 LINE",
"211 1172 LINE",
"211 1089 LINE",
"951 1089 LINE",
"406 -187 LINE"
);
}
);
width = 1270;
},
{
layerId = "B5E80BC0-A253-4265-9E84-E8FF94ED18F5";
name = Regular;
paths = (
{
closed = 1;
nodes = (
"455 -237 LINE",
"1027 1046 LINE",
"970 1168 LINE",
"134 1168 LINE",
"134 1013 LINE",
"812 1013 LINE",
"287 -161 LINE"
);
}
);
width = 1152;
},
{
layerId = "5F2F3E34-E24A-4A89-B41B-C326736566A0";
name = Bold;
paths = (
{
closed = 1;
nodes = (
"527 -259 LINE",
"1121 959 LINE",
"1030 1162 LINE",
"135 1162 LINE",
"135 864 LINE",
"654 864 LINE",
"180 -106 LINE"
);
}
);
width = 1131;
}
);
unicode = 0037;
userData = {
position = 1161;
width = 100;
};
},
{
glyphname = eight;
lastChange = "2014-02-15 22:20:08 -0800";
layers = (
{
layerId = "67845082-4271-4E32-8C80-EE8FB13E39CE";
name = Light;
paths = (
{
closed = 1;
nodes = (
"644 -159 CURVE SMOOTH",
"916 -159 OFFCURVE",
"1086 -4 OFFCURVE",
"1086 242 CURVE SMOOTH",
"1086 429 OFFCURVE",
"975 576 OFFCURVE",
"799 623 CURVE",
"961 670 OFFCURVE",
"1062 806 OFFCURVE",
"1062 976 CURVE SMOOTH",
"1062 1200 OFFCURVE",
"901 1340 OFFCURVE",
"644 1340 CURVE SMOOTH",
"376 1340 OFFCURVE",
"207 1200 OFFCURVE",
"207 976 CURVE SMOOTH",
"207 806 OFFCURVE",
"309 671 OFFCURVE",
"471 626 CURVE",
"295 581 OFFCURVE",
"184 433 OFFCURVE",
"184 242 CURVE SMOOTH",
"184 -4 OFFCURVE",
"361 -159 OFFCURVE"
);
},
{
closed = 1;
nodes = (
"644 -87 CURVE SMOOTH",
"422 -87 OFFCURVE",
"282 40 OFFCURVE",
"282 242 CURVE SMOOTH",
"282 456 OFFCURVE",
"422 591 OFFCURVE",
"644 591 CURVE SMOOTH",
"855 591 OFFCURVE",
"988 456 OFFCURVE",
"988 242 CURVE SMOOTH",
"988 40 OFFCURVE",
"855 -87 OFFCURVE"
);
},
{
closed = 1;
nodes = (
"644 665 CURVE SMOOTH",
"435 665 OFFCURVE",
"303 785 OFFCURVE",
"303 976 CURVE SMOOTH",
"303 1156 OFFCURVE",
"435 1269 OFFCURVE",
"644 1269 CURVE SMOOTH",
"842 1269 OFFCURVE",
"967 1156 OFFCURVE",
"967 976 CURVE SMOOTH",
"967 785 OFFCURVE",
"842 665 OFFCURVE"
);
}
);
width = 1270;
},
{
layerId = "B5E80BC0-A253-4265-9E84-E8FF94ED18F5";
name = Regular;
paths = (
{
closed = 1;
nodes = (
"640 -148 CURVE SMOOTH",
"927 -148 OFFCURVE",
"1107 8 OFFCURVE",
"1107 257 CURVE SMOOTH",
"1107 430 OFFCURVE",
"1031 576 OFFCURVE",
"845 634 CURVE",
"1000 687 OFFCURVE",
"1087 795 OFFCURVE",
"1087 966 CURVE SMOOTH",
"1087 1192 OFFCURVE",
"915 1334 OFFCURVE",
"640 1334 CURVE SMOOTH",
"358 1334 OFFCURVE",
"181 1192 OFFCURVE",
"181 966 CURVE SMOOTH",
"181 798 OFFCURVE",
"268 687 OFFCURVE",
"423 636 CURVE",
"237 578 OFFCURVE",
"161 432 OFFCURVE",
"161 257 CURVE SMOOTH",
"161 8 OFFCURVE",
"346 -148 OFFCURVE"
);
},
{
closed = 1;
nodes = (
"640 -9 CURVE SMOOTH",
"455 -9 OFFCURVE",
"339 94 OFFCURVE",
"339 257 CURVE SMOOTH",
"339 444 OFFCURVE",
"459 575 OFFCURVE",
"640 575 CURVE SMOOTH",
"819 575 OFFCURVE",
"929 436 OFFCURVE",
"929 257 CURVE SMOOTH",
"929 94 OFFCURVE",
"818 -9 OFFCURVE"
);
},
{
closed = 1;
nodes = (
"640 691 CURVE SMOOTH",
"486 691 OFFCURVE",
"359 805 OFFCURVE",
"359 966 CURVE SMOOTH",
"359 1109 OFFCURVE",
"467 1199 OFFCURVE",
"640 1199 CURVE SMOOTH",
"805 1199 OFFCURVE",
"909 1109 OFFCURVE",
"909 966 CURVE SMOOTH",
"909 806 OFFCURVE",
"793 691 OFFCURVE"
);
}
);
width = 1284;
},
{
layerId = "5F2F3E34-E24A-4A89-B41B-C326736566A0";
name = Bold;
paths = (
{
closed = 1;
nodes = (
"674 -149 CURVE SMOOTH",
"946 -149 OFFCURVE",
"1206 -31 OFFCURVE",
"1206 262 CURVE SMOOTH",
"1206 441 OFFCURVE",
"1039 567 OFFCURVE",
"905 573 CURVE",
"1056 595 OFFCURVE",
"1169 734 OFFCURVE",
"1169 894 CURVE SMOOTH",
"1169 1142 OFFCURVE",
"964 1289 OFFCURVE",
"674 1289 CURVE SMOOTH",
"387 1289 OFFCURVE",
"184 1144 OFFCURVE",
"184 894 CURVE SMOOTH",
"184 732 OFFCURVE",
"299 595 OFFCURVE",
"447 573 CURVE",
"317 565 OFFCURVE",
"146 443 OFFCURVE",
"146 264 CURVE SMOOTH",
"146 -31 OFFCURVE",
"402 -149 OFFCURVE"
);
},
{
closed = 1;
nodes = (
"674 164 CURVE SMOOTH",
"570 164 OFFCURVE",
"524 199 OFFCURVE",
"524 283 CURVE SMOOTH",
"524 394 OFFCURVE",
"571 455 OFFCURVE",
"674 455 CURVE SMOOTH",
"778 455 OFFCURVE",
"828 398 OFFCURVE",
"828 284 CURVE SMOOTH",
"828 199 OFFCURVE",
"781 164 OFFCURVE"
);
},
{
closed = 1;
nodes = (
"674 748 CURVE SMOOTH",
"573 748 OFFCURVE",
"549 775 OFFCURVE",
"549 875 CURVE SMOOTH",
"549 942 OFFCURVE",
"573 989 OFFCURVE",
"674 989 CURVE SMOOTH",
"774 989 OFFCURVE",
"803 944 OFFCURVE",
"803 876 CURVE SMOOTH",
"803 775 OFFCURVE",
"777 748 OFFCURVE"
);
}
);
width = 1352;
}
);
unicode = 0038;
userData = {
position = 911;
width = 101;
};
},
{
glyphname = nine;
lastChange = "2014-02-15 23:48:19 -0800";
layers = (
{
layerId = "67845082-4271-4E32-8C80-EE8FB13E39CE";
name = Light;
paths = (
{
closed = 1;
nodes = (
"441 -294 LINE",
"846 -194 OFFCURVE",
"1084 173 OFFCURVE",
"1084 596 CURVE SMOOTH",
"1084 931 OFFCURVE",
"950 1190 OFFCURVE",
"610 1190 CURVE SMOOTH",
"364 1190 OFFCURVE",
"178 1020 OFFCURVE",
"178 696 CURVE SMOOTH",
"178 387 OFFCURVE",
"385 252 OFFCURVE",
"592 252 CURVE SMOOTH",
"752 252 OFFCURVE",
"913 331 OFFCURVE",
"981 473 CURVE",
"957 150 OFFCURVE",
"749 -115 OFFCURVE",
"420 -219 CURVE"
);
},
{
closed = 1;
nodes = (
"599 333 CURVE SMOOTH",
"427 333 OFFCURVE",
"273 450 OFFCURVE",
"273 720 CURVE SMOOTH",
"273 943 OFFCURVE",
"410 1110 OFFCURVE",
"609 1110 CURVE SMOOTH",
"928 1110 OFFCURVE",
"988 809 OFFCURVE",
"988 617 CURVE SMOOTH",
"988 593 OFFCURVE",
"987 571 OFFCURVE",
"986 552 CURVE",
"896 413 OFFCURVE",
"742 333 OFFCURVE"
);
}
);
width = 1270;
},
{
layerId = "B5E80BC0-A253-4265-9E84-E8FF94ED18F5";
name = Regular;
paths = (
{
closed = 1;
nodes = (
"444 -289 LINE",
"882 -187 OFFCURVE",
"1159 152 OFFCURVE",
"1159 605 CURVE SMOOTH",
"1159 931 OFFCURVE",
"1007 1186 OFFCURVE",
"654 1186 CURVE SMOOTH",
"359 1186 OFFCURVE",
"154 992 OFFCURVE",
"154 695 CURVE SMOOTH",
"154 416 OFFCURVE",
"344 237 OFFCURVE",
"620 237 CURVE SMOOTH",
"751 237 OFFCURVE",
"875 278 OFFCURVE",
"961 381 CURVE",
"909 101 OFFCURVE",
"671 -89 OFFCURVE",
"401 -144 CURVE"
);
},
{
closed = 1;
nodes = (
"620 373 CURVE SMOOTH",
"429 373 OFFCURVE",
"330 514 OFFCURVE",
"330 695 CURVE SMOOTH",
"330 892 OFFCURVE",
"447 1044 OFFCURVE",
"654 1044 CURVE SMOOTH",
"904 1044 OFFCURVE",
"981 846 OFFCURVE",
"981 629 CURVE SMOOTH",
"981 588 OFFCURVE",
"981 547 OFFCURVE",
"975 507 CURVE",
"908 428 OFFCURVE",
"719 373 OFFCURVE"
);
}
);
width = 1308;
},
{
layerId = "5F2F3E34-E24A-4A89-B41B-C326736566A0";
name = Bold;
paths = (
{
closed = 1;
nodes = (
"382 -363 LINE",
"840 -241 OFFCURVE",
"1190 43 OFFCURVE",
"1190 593 CURVE SMOOTH",
"1190 836 OFFCURVE",
"1095 1180 OFFCURVE",
"630 1180 CURVE SMOOTH",
"309 1180 OFFCURVE",
"119 977 OFFCURVE",
"119 696 CURVE SMOOTH",
"119 440 OFFCURVE",
"269 205 OFFCURVE",
"572 205 CURVE SMOOTH",
"672 205 OFFCURVE",
"754 231 OFFCURVE",
"784 255 CURVE",
"705 109 OFFCURVE",
"505 -12 OFFCURVE",
"283 -56 CURVE"
);
},
{
closed = 1;
nodes = (
"624 487 CURVE SMOOTH",
"503 487 OFFCURVE",
"446 587 OFFCURVE",
"446 687 CURVE SMOOTH",
"446 790 OFFCURVE",
"507 889 OFFCURVE",
"633 893 CURVE SMOOTH",
"801 898 OFFCURVE",
"847 776 OFFCURVE",
"847 658 CURVE SMOOTH",
"847 621 OFFCURVE",
"841 583 OFFCURVE",
"830 547 CURVE",
"772 508 OFFCURVE",
"690 487 OFFCURVE"
);
}
);
width = 1277;
}
);
unicode = 0039;
userData = {
position = 995;
width = 98;
};
},
{
glyphname = colon;
lastChange = "2014-02-15 22:20:08 -0800";
layers = (
{
layerId = "67845082-4271-4E32-8C80-EE8FB13E39CE";
name = Light;
paths = (
{
closed = 1;
nodes = (
"184 0 LINE",
"259 0 LINE",
"259 200 LINE",
"184 200 LINE"
);
},
{
closed = 1;
nodes = (
"184 501 LINE",
"259 501 LINE",
"259 703 LINE",
"184 703 LINE"
);
}
);
width = 403;
},
{
layerId = "B5E80BC0-A253-4265-9E84-E8FF94ED18F5";
name = Regular;
paths = (
{
closed = 1;
nodes = (
"221 0 LINE",
"491 0 LINE",
"491 281 LINE",
"221 281 LINE"
);
},
{
closed = 1;
nodes = (
"221 583 LINE",
"491 583 LINE",
"491 864 LINE",
"221 864 LINE"
);
}
);
width = 720;
},
{
layerId = "5F2F3E34-E24A-4A89-B41B-C326736566A0";
name = Bold;
paths = (
{
closed = 1;
nodes = (
"200 0 LINE",
"649 0 LINE",
"649 490 LINE",
"200 490 LINE"
);
},
{
closed = 1;
nodes = (
"200 795 LINE",
"649 795 LINE",
"649 1280 LINE",
"200 1280 LINE"
);
}
);
width = 848;
}
);
unicode = 003A;
userData = {
anchors = (
);
components = (
);
contours = (
);
name = colon;
position = 102;
unicodes = (
);
width = 404;
};
},
{
glyphname = semicolon;
lastChange = "2014-02-15 22:20:08 -0800";
layers = (
{
layerId = "67845082-4271-4E32-8C80-EE8FB13E39CE";
name = Light;
paths = (
{
closed = 1;
nodes = (
"139 -224 LINE",
"224 -197 OFFCURVE",
"269 -123 OFFCURVE",
"269 5 CURVE SMOOTH",
"269 228 LINE",
"194 228 LINE",
"194 0 LINE",
"230 0 LINE",
"230 -106 OFFCURVE",
"201 -173 OFFCURVE",
"128 -197 CURVE"
);
},
{
closed = 1;
nodes = (
"196 501 LINE",
"270 501 LINE",
"270 703 LINE",
"196 703 LINE"
);
}
);
width = 419;
},
{
layerId = "B5E80BC0-A253-4265-9E84-E8FF94ED18F5";
name = Regular;
paths = (
{
closed = 1;
nodes = (
"267 -253 LINE",
"413 -211 OFFCURVE",
"496 -110 OFFCURVE",
"496 44 CURVE SMOOTH",
"496 293 LINE",
"215 293 LINE",
"215 0 LINE",
"346 0 LINE",
"347 -95 OFFCURVE",
"301 -130 OFFCURVE",
"216 -159 CURVE"
);
},
{
closed = 1;
nodes = (
"216 583 LINE",
"496 583 LINE",
"496 864 LINE",
"216 864 LINE"
);
}
);
width = 720;
},
{
layerId = "5F2F3E34-E24A-4A89-B41B-C326736566A0";
name = Bold;
paths = (
{
closed = 1;
nodes = (
"286 -328 LINE",
"462 -275 OFFCURVE",
"684 -217 OFFCURVE",
"684 56 CURVE SMOOTH",
"684 462 LINE",
"219 462 LINE",
"219 0 LINE",
"415 0 LINE",
"414 -105 OFFCURVE",
"363 -154 OFFCURVE",
"220 -206 CURVE"
);
},
{
closed = 1;
nodes = (
"215 795 LINE",
"681 795 LINE",
"681 1280 LINE",
"215 1280 LINE"
);
}
);
width = 832;
}
);
unicode = 003B;
userData = {
anchors = (
);
components = (
);
contours = (
);
name = semicolon;
position = 197;
unicodes = (
);
width = 420;
};
},
{
glyphname = equal;
lastChange = "2014-02-15 22:20:08 -0800";
layers = (
{
layerId = "67845082-4271-4E32-8C80-EE8FB13E39CE";
name = Light;
paths = (
{
closed = 1;
nodes = (
"86 371 LINE",
"685 371 LINE",
"685 437 LINE",
"86 437 LINE"
);
},
{
closed = 1;
nodes = (
"86 665 LINE",
"685 665 LINE",
"685 731 LINE",
"86 731 LINE"
);
}
);
width = 771;
},
{
layerId = "B5E80BC0-A253-4265-9E84-E8FF94ED18F5";
name = Regular;
paths = (
{
closed = 1;
nodes = (
"133 330 LINE",
"801 330 LINE",
"801 461 LINE",
"133 461 LINE"
);
},
{
closed = 1;
nodes = (
"133 618 LINE",
"801 618 LINE",
"801 749 LINE",
"133 749 LINE"
);
}
);
width = 936;
},
{
layerId = "5F2F3E34-E24A-4A89-B41B-C326736566A0";
name = Bold;
paths = (
{
closed = 1;
nodes = (
"59 265 LINE",
"1213 265 LINE",
"1213 537 LINE",
"59 537 LINE"
);
},
{
closed = 1;
nodes = (
"59 697 LINE",
"1213 697 LINE",
"1213 969 LINE",
"59 969 LINE"
);
}
);
width = 1325;
}
);
unicode = 003D;
userData = {
position = 148;
width = 369;
};
},
{
glyphname = question;
lastChange = "2014-02-15 22:20:08 -0800";
layers = (
{
layerId = "67845082-4271-4E32-8C80-EE8FB13E39CE";
name = Light;
paths = (
{
closed = 1;
nodes = (
"333 323 LINE",
"409 323 LINE",
"409 718 LINE",
"636 811 OFFCURVE",
"970 932 OFFCURVE",
"970 1269 CURVE SMOOTH",
"970 1536 OFFCURVE",
"753 1638 OFFCURVE",
"513 1638 CURVE SMOOTH",
"370 1638 OFFCURVE",
"217 1596 OFFCURVE",
"108 1536 CURVE",
"145 1463 LINE",
"247 1517 OFFCURVE",
"384 1553 OFFCURVE",
"512 1553 CURVE SMOOTH",
"788 1553 OFFCURVE",
"875 1407 OFFCURVE",
"875 1255 CURVE SMOOTH",
"875 959 OFFCURVE",
"583 871 OFFCURVE",
"333 758 CURVE"
);
},
{
closed = 1;
nodes = (
"375 -18 CURVE SMOOTH",
"413 -18 OFFCURVE",
"437 7 OFFCURVE",
"437 47 CURVE SMOOTH",
"437 82 OFFCURVE",
"413 104 OFFCURVE",
"375 104 CURVE SMOOTH",
"334 104 OFFCURVE",
"308 82 OFFCURVE",
"308 47 CURVE SMOOTH",
"308 7 OFFCURVE",
"334 -18 OFFCURVE"
);
}
);
width = 1090;
},
{
layerId = "B5E80BC0-A253-4265-9E84-E8FF94ED18F5";
name = Regular;
paths = (
{
closed = 1;
nodes = (
"247 412 LINE",
"387 412 LINE",
"387 675 LINE",
"648 767 OFFCURVE",
"961 896 OFFCURVE",
"961 1216 CURVE SMOOTH",
"961 1491 OFFCURVE",
"733 1591 OFFCURVE",
"491 1591 CURVE SMOOTH",
"340 1591 OFFCURVE",
"182 1552 OFFCURVE",
"72 1492 CURVE",
"121 1359 LINE",
"228 1412 OFFCURVE",
"358 1447 OFFCURVE",
"473 1447 CURVE SMOOTH",
"636 1447 OFFCURVE",
"770 1378 OFFCURVE",
"770 1197 CURVE SMOOTH",
"770 947 OFFCURVE",
"437 841 OFFCURVE",
"247 777 CURVE"
);
},
{
closed = 1;
nodes = (
"314 -18 CURVE SMOOTH",
"390 -18 OFFCURVE",
"439 30 OFFCURVE",
"439 106 CURVE SMOOTH",
"439 183 OFFCURVE",
"393 232 OFFCURVE",
"319 232 CURVE SMOOTH",
"240 232 OFFCURVE",
"190 187 OFFCURVE",
"190 114 CURVE SMOOTH",
"190 32 OFFCURVE",
"237 -18 OFFCURVE"
);
}
);
width = 1104;
},
{
layerId = "5F2F3E34-E24A-4A89-B41B-C326736566A0";
name = Bold;
paths = (
{
closed = 1;
nodes = (
"227 500 LINE",
"572 500 LINE",
"572 664 LINE",
"936 743 OFFCURVE",
"1059 863 OFFCURVE",
"1059 1120 CURVE SMOOTH",
"1059 1433 OFFCURVE",
"793 1562 OFFCURVE",
"491 1562 CURVE SMOOTH",
"328 1562 OFFCURVE",
"155 1525 OFFCURVE",
"7 1458 CURVE",
"97 1163 LINE",
"171 1197 OFFCURVE",
"320 1234 OFFCURVE",
"447 1234 CURVE SMOOTH",
"565 1234 OFFCURVE",
"664 1202 OFFCURVE",
"664 1107 CURVE SMOOTH",
"664 957 OFFCURVE",
"449 895 OFFCURVE",
"227 849 CURVE"
);
},
{
closed = 1;
nodes = (
"411 -80 CURVE SMOOTH",
"547 -80 OFFCURVE",
"633 1 OFFCURVE",
"633 129 CURVE SMOOTH",
"633 257 OFFCURVE",
"547 337 OFFCURVE",
"409 337 CURVE SMOOTH",
"274 337 OFFCURVE",
"189 256 OFFCURVE",
"189 126 CURVE SMOOTH",
"189 -1 OFFCURVE",
"275 -80 OFFCURVE"
);
}
);
width = 1124;
}
);
unicode = 003F;
userData = {
position = 754;
width = 112;
};
},
{
glyphname = at;
lastChange = "2014-02-15 22:20:08 -0800";
layers = (
{
layerId = "67845082-4271-4E32-8C80-EE8FB13E39CE";
name = Light;
paths = (
{
closed = 1;
nodes = (
"979 -85 CURVE SMOOTH",
"1132 -85 OFFCURVE",
"1305 -57 OFFCURVE",
"1429 -12 CURVE",
"1401 71 LINE",
"1282 25 OFFCURVE",
"1119 -4 OFFCURVE",
"979 -4 CURVE SMOOTH",
"511 -4 OFFCURVE",
"212 281 OFFCURVE",
"221 716 CURVE SMOOTH",
"231 1250 OFFCURVE",
"558 1557 OFFCURVE",
"1052 1557 CURVE SMOOTH",
"1492 1557 OFFCURVE",
"1748 1291 OFFCURVE",
"1748 871 CURVE SMOOTH",
"1748 566 OFFCURVE",
"1650 378 OFFCURVE",
"1487 378 CURVE SMOOTH",
"1432 378 OFFCURVE",
"1398 415 OFFCURVE",
"1398 475 CURVE SMOOTH",
"1398 480 OFFCURVE",
"1398.57 485.019 OFFCURVE",
"1452 1098 CURVE SMOOTH",
"1460 1189 OFFCURVE",
"1336 1253 OFFCURVE",
"1144 1253 CURVE SMOOTH",
"786 1253 OFFCURVE",
"547 1009 OFFCURVE",
"547 633 CURVE SMOOTH",
"547 450 OFFCURVE",
"667 295 OFFCURVE",
"880 295 CURVE SMOOTH",
"1085 295 OFFCURVE",
"1289 455 OFFCURVE",
"1353 730 CURVE",
"1362 730 LINE",
"1357 696 OFFCURVE",
"1333 527 OFFCURVE",
"1333 457 CURVE SMOOTH",
"1333 369 OFFCURVE",
"1399 324 OFFCURVE",
"1481 324 CURVE SMOOTH",
"1704 324 OFFCURVE",
"1830 529 OFFCURVE",
"1830 874 CURVE SMOOTH",
"1830 1343 OFFCURVE",
"1540 1637 OFFCURVE",
"1052 1637 CURVE SMOOTH",
"489 1637 OFFCURVE",
"125 1289 OFFCURVE",
"125 716 CURVE SMOOTH",
"125 231 OFFCURVE",
"461 -85 OFFCURVE"
);
},
{
closed = 1;
nodes = (
"889 373 CURVE SMOOTH",
"732 373 OFFCURVE",
"636 469 OFFCURVE",
"636 633 CURVE SMOOTH",
"636 977 OFFCURVE",
"843 1186 OFFCURVE",
"1143 1188 CURVE SMOOTH",
"1269 1188 OFFCURVE",
"1351 1158 OFFCURVE",
"1379 1137 CURVE",
"1349 665 OFFCURVE",
"1169 373 OFFCURVE"
);
}
);
width = 1911;
},
{
layerId = "B5E80BC0-A253-4265-9E84-E8FF94ED18F5";
name = Regular;
paths = (
{
closed = 1;
nodes = (
"995 -127 CURVE SMOOTH",
"1159 -127 OFFCURVE",
"1343 -96 OFFCURVE",
"1471 -46 CURVE",
"1431 73 LINE",
"1312 22 OFFCURVE",
"1144 -10 OFFCURVE",
"995 -10 CURVE SMOOTH",
"544 -10 OFFCURVE",
"267 261 OFFCURVE",
"276 692 CURVE SMOOTH",
"286 1176 OFFCURVE",
"591 1480 OFFCURVE",
"1068 1480 CURVE SMOOTH",
"1495 1480 OFFCURVE",
"1763 1237 OFFCURVE",
"1763 850 CURVE SMOOTH",
"1763 556 OFFCURVE",
"1669 372 OFFCURVE",
"1520 372 CURVE SMOOTH",
"1474 372 OFFCURVE",
"1449 407 OFFCURVE",
"1454 464 CURVE SMOOTH",
"1507 1072 LINE SMOOTH",
"1516 1176 OFFCURVE",
"1382 1241 OFFCURVE",
"1160 1241 CURVE SMOOTH",
"768 1241 OFFCURVE",
"522 996 OFFCURVE",
"522 606 CURVE SMOOTH",
"522 391 OFFCURVE",
"655 256 OFFCURVE",
"868 256 CURVE SMOOTH",
"1092 256 OFFCURVE",
"1276 424 OFFCURVE",
"1344 692 CURVE",
"1360 690 LINE",
"1360 638 OFFCURVE",
"1344 516 OFFCURVE",
"1344 433 CURVE SMOOTH",
"1344 333 OFFCURVE",
"1404 271 OFFCURVE",
"1500 271 CURVE SMOOTH",
"1741 271 OFFCURVE",
"1893 494 OFFCURVE",
"1893 850 CURVE SMOOTH",
"1893 1308 OFFCURVE",
"1575 1596 OFFCURVE",
"1068 1596 CURVE SMOOTH",
"492 1596 OFFCURVE",
"130 1238 OFFCURVE",
"130 668 CURVE SMOOTH",
"130 180 OFFCURVE",
"464 -127 OFFCURVE"
);
},
{
closed = 1;
nodes = (
"895 367 CURVE SMOOTH",
"751 366 OFFCURVE",
"661 464 OFFCURVE",
"661 622 CURVE SMOOTH",
"661 942 OFFCURVE",
"853 1144 OFFCURVE",
"1159 1146 CURVE SMOOTH",
"1222 1146 OFFCURVE",
"1311 1129 OFFCURVE",
"1389 1102 CURVE",
"1343 652 OFFCURVE",
"1152 368 OFFCURVE"
);
}
);
width = 1995;
},
{
layerId = "5F2F3E34-E24A-4A89-B41B-C326736566A0";
name = Bold;
paths = (
{
closed = 1;
nodes = (
"995 -157 CURVE SMOOTH",
"1175.68 -157 OFFCURVE",
"1384.41 -119 OFFCURVE",
"1513.59 -62 CURVE",
"1453.35 117.593 LINE",
"1334.7 57.4034 OFFCURVE",
"1155.8 20 OFFCURVE",
"995 20 CURVE SMOOTH",
"564.43 20 OFFCURVE",
"331 264 OFFCURVE",
"312 679 CURVE SMOOTH",
"290 1149 OFFCURVE",
"611.633 1450 OFFCURVE",
"1068 1450 CURVE SMOOTH",
"1475.39 1450 OFFCURVE",
"1727 1221.49 OFFCURVE",
"1727 850 CURVE SMOOTH",
"1727 567.906 OFFCURVE",
"1639.36 402 OFFCURVE",
"1520 402 CURVE SMOOTH",
"1499.99 402 OFFCURVE",
"1486.22 419.857 OFFCURVE",
"1489.86 461.378 CURVE SMOOTH",
"1542.86 1069.39 LINE SMOOTH",
"1553.86 1196.44 OFFCURVE",
"1395.53 1271 OFFCURVE",
"1160 1271 CURVE SMOOTH",
"747.366 1271 OFFCURVE",
"454 1011 OFFCURVE",
"486 606 CURVE SMOOTH",
"504 377 OFFCURVE",
"634.151 226 OFFCURVE",
"868 226 CURVE SMOOTH",
"1103.9 226 OFFCURVE",
"1295.61 394.784 OFFCURVE",
"1371.73 658.207 CURVE",
"1323.11 664.285 LINE",
"1319.75 605.433 OFFCURVE",
"1308 505.473 OFFCURVE",
"1308 433 CURVE SMOOTH",
"1308 318.569 OFFCURVE",
"1382.94 241 OFFCURVE",
"1500 241 CURVE SMOOTH",
"1765.83 241 OFFCURVE",
"1929 482.266 OFFCURVE",
"1929 850 CURVE SMOOTH",
"1929 1323.53 OFFCURVE",
"1594.6 1626 OFFCURVE",
"1068 1626 CURVE SMOOTH",
"471.445 1626 OFFCURVE",
"62 1241 OFFCURVE",
"94 656 CURVE SMOOTH",
"122 153 OFFCURVE",
"444.239 -157 OFFCURVE"
);
},
{
closed = 1;
nodes = (
"894.86 397 CURVE SMOOTH",
"772.486 396.15 OFFCURVE",
"712 479 OFFCURVE",
"697 622 CURVE SMOOTH",
"665 928 OFFCURVE",
"874.33 1114.14 OFFCURVE",
"1159.24 1116 CURVE SMOOTH",
"1211.3 1116 OFFCURVE",
"1281.79 1103.67 OFFCURVE",
"1350.72 1082.33 CURVE",
"1301.99 657.46 OFFCURVE",
"1121.02 397.88 OFFCURVE"
);
}
);
width = 1992;
}
);
unicode = 0040;
userData = {
anchors = (
);
components = (
);
contours = (
);
name = at;
position = 1599;
unicodes = (
);
width = 1827;
};
},
{
glyphname = A;
lastChange = "2014-02-15 22:20:08 -0800";
layers = (
{
anchors = (
{
name = ogonek;
position = "{1256, 0}";
},
{
name = top;
position = "{671, 1620}";
}
);
layerId = "67845082-4271-4E32-8C80-EE8FB13E39CE";
name = Light;
paths = (
{
closed = 1;
nodes = (
"49 0 LINE",
"146 0 LINE",
"288 401 LINE",
"1069 401 LINE",
"1211 0 LINE",
"1308 0 LINE",
"745 1620 LINE",
"603 1620 LINE"
);
},
{
closed = 1;
nodes = (
"314 482 LINE",
"675 1549 LINE",
"1039 482 LINE"
);
}
);
width = 1356;
},
{
anchors = (
{
name = ogonek;
position = "{1255, 0}";
},
{
name = top;
position = "{702, 1578}";
}
);
layerId = "B5E80BC0-A253-4265-9E84-E8FF94ED18F5";
name = Regular;
paths = (
{
closed = 1;
nodes = (
"37 0 LINE",
"230 0 LINE",
"353 383 LINE",
"1053 383 LINE",
"1176 0 LINE",
"1369 0 LINE",
"853 1579 LINE",
"553 1579 LINE"
);
},
{
closed = 1;
nodes = (
"386 485 LINE",
"703 1460 LINE",
"1020 485 LINE"
);
}
);
width = 1416;
},
{
anchors = (
{
name = ogonek;
position = "{1282, 0}";
},
{
name = top;
position = "{762, 1578}";
}
);
layerId = "5F2F3E34-E24A-4A89-B41B-C326736566A0";
name = Bold;
paths = (
{
closed = 1;
nodes = (
"10 0 LINE",
"436 0 LINE",
"543 336 LINE",
"968 336 LINE",
"1075 0 LINE",
"1501 0 LINE",
"980 1578 LINE",
"532 1578 LINE"
);
},
{
closed = 1;
nodes = (
"595 543 LINE",
"764 1095 LINE",
"916 543 LINE"
);
}
);
width = 1511;
}
);
unicode = 0041;
userData = {
anchors = (
);
components = (
);
contours = (
);
name = A;
position = 1580;
unicodes = (
);
width = 1357;
};
},
{
glyphname = B;
lastChange = "2014-02-15 22:20:08 -0800";
layers = (
{
anchors = (
{
name = top;
position = "{660, 1620}";
}
);
layerId = "67845082-4271-4E32-8C80-EE8FB13E39CE";
name = Light;
paths = (
{
closed = 1;
nodes = (
"160 0 LINE",
"557 0 LINE SMOOTH",
"929 0 OFFCURVE",
"1226 76 OFFCURVE",
"1226 460 CURVE SMOOTH",
"1226 731 OFFCURVE",
"1103 860 OFFCURVE",
"851 896 CURVE",
"1043 935 OFFCURVE",
"1148 1029 OFFCURVE",
"1148 1252 CURVE SMOOTH",
"1148 1616 OFFCURVE",
"814 1620 OFFCURVE",
"518 1620 CURVE SMOOTH",
"160 1620 LINE"
);
},
{
closed = 1;
nodes = (
"258 84 LINE",
"258 843 LINE",
"591 843 LINE SMOOTH",
"857 843 OFFCURVE",
"1141 796 OFFCURVE",
"1141 467 CURVE SMOOTH",
"1141 106 OFFCURVE",
"837 84 OFFCURVE",
"543 84 CURVE SMOOTH"
);
},
{
closed = 1;
nodes = (
"258 934 LINE",
"258 1535.29 LINE",
"528 1537 LINE SMOOTH",
"796 1537 OFFCURVE",
"1060 1531 OFFCURVE",
"1060 1259 CURVE SMOOTH",
"1060 967 OFFCURVE",
"835 934 OFFCURVE",
"592 934 CURVE SMOOTH"
);
}
);
width = 1346;
},
{
anchors = (
{
name = top;
position = "{692, 1578}";
}
);
layerId = "B5E80BC0-A253-4265-9E84-E8FF94ED18F5";
name = Regular;
paths = (
{
closed = 1;
nodes = (
"182 0 LINE",
"602 0 LINE SMOOTH",
"903 0 OFFCURVE",
"1302 46 OFFCURVE",
"1302 434 CURVE SMOOTH",
"1302 699 OFFCURVE",
"1142 829 OFFCURVE",
"886 858 CURVE",
"1088 888 OFFCURVE",
"1220 976 OFFCURVE",
"1220 1188 CURVE SMOOTH",
"1220 1570 OFFCURVE",
"842 1579 OFFCURVE",
"543 1579 CURVE SMOOTH",
"182 1579 LINE"
);
},
{
closed = 1;
nodes = (
"376 143 LINE",
"376 784 LINE",
"639 784 LINE SMOOTH",
"877 784 OFFCURVE",
"1120 759 OFFCURVE",
"1120 466 CURVE SMOOTH",
"1120 152 OFFCURVE",
"851 143 OFFCURVE",
"602 143 CURVE SMOOTH"
);
},
{
closed = 1;
nodes = (
"376 913 LINE",
"376 1436 LINE",
"547 1436 LINE SMOOTH",
"737 1436 OFFCURVE",
"1055 1450 OFFCURVE",
"1055 1188 CURVE SMOOTH",
"1055 935 OFFCURVE",
"842 913 OFFCURVE",
"635 913 CURVE SMOOTH"
);
}
);
width = 1440;
},
{
anchors = (
{
name = top;
position = "{702, 1578}";
}
);
layerId = "5F2F3E34-E24A-4A89-B41B-C326736566A0";
name = Bold;
paths = (
{
closed = 1;
nodes = (
"174 0 LINE",
"757 0 LINE SMOOTH",
"1122 0 OFFCURVE",
"1434 71 OFFCURVE",
"1434 471 CURVE SMOOTH",
"1434 718 OFFCURVE",
"1253 787 OFFCURVE",
"1041 822 CURVE",
"1209 835 OFFCURVE",
"1376 966 OFFCURVE",
"1386 1149 CURVE SMOOTH",
"1408 1556 OFFCURVE",
"1048 1578 OFFCURVE",
"734 1578 CURVE SMOOTH",
"174 1578 LINE"
);
},
{
closed = 1;
nodes = (
"610 297 LINE",
"610 672 LINE",
"699 672 LINE SMOOTH",
"863 672 OFFCURVE",
"999 663 OFFCURVE",
"999 465 CURVE SMOOTH",
"999 271 OFFCURVE",
"820 297 OFFCURVE",
"688 297 CURVE SMOOTH"
);
},
{
closed = 1;
nodes = (
"610 934 LINE",
"610 1279 LINE",
"740 1279 LINE SMOOTH",
"871 1279 OFFCURVE",
"998 1279 OFFCURVE",
"998 1114 CURVE SMOOTH",
"998 963 OFFCURVE",
"818 934 OFFCURVE",
"703 934 CURVE SMOOTH"
);
}
);
width = 1527;
}
);
unicode = 0042;
userData = {
anchors = (
);
com.typemytype.robofont.layerData = {
b = {
anchors = (
);
components = (
);
contours = (
);
lib = {
};
name = B;
unicodes = (
);
width = 1286;
};
};
components = (
);
contours = (
);
name = B;
position = 1122;
unicodes = (
);
width = 1287;
};
},
{
glyphname = C;
lastChange = "2014-02-15 22:20:08 -0800";
layers = (
{
anchors = (
{
name = bot;
position = "{717, 0}";
},
{
name = top;
position = "{751, 1620}";
}
);
layerId = "67845082-4271-4E32-8C80-EE8FB13E39CE";
name = Light;
paths = (
{
closed = 1;
nodes = (
"761 -18 CURVE SMOOTH",
"921 -18 OFFCURVE",
"1094 50 OFFCURVE",
"1191 120 CURVE",
"1151 185 LINE",
"1059 128 OFFCURVE",
"937 66 OFFCURVE",
"757 66 CURVE SMOOTH",
"276 66 OFFCURVE",
"206 465 OFFCURVE",
"206 789 CURVE SMOOTH",
"206 1102 OFFCURVE",
"283 1554 OFFCURVE",
"766 1554 CURVE SMOOTH",
"953 1554 OFFCURVE",
"1080 1472 OFFCURVE",
"1111 1450 CURVE",
"1147 1520 LINE",
"1104 1553 OFFCURVE",
"955 1638 OFFCURVE",
"767 1638 CURVE SMOOTH",
"259 1638 OFFCURVE",
"104 1218 OFFCURVE",
"104 790 CURVE SMOOTH",
"104 395 OFFCURVE",
"226 -18 OFFCURVE"
);
}
);
width = 1267;
},
{
anchors = (
{
name = bot;
position = "{837, 0}";
},
{
name = top;
position = "{852, 1578}";
}
);
layerId = "B5E80BC0-A253-4265-9E84-E8FF94ED18F5";
name = Regular;
paths = (
{
closed = 1;
nodes = (
"838 -18 CURVE SMOOTH",
"1006 -18 OFFCURVE",
"1148 36 OFFCURVE",
"1271 110 CURVE",
"1208 241 LINE",
"1108 183 OFFCURVE",
"977 134 OFFCURVE",
"846 134 CURVE SMOOTH",
"452 134 OFFCURVE",
"348 452 OFFCURVE",
"348 784 CURVE SMOOTH",
"348 1119 OFFCURVE",
"463 1444 OFFCURVE",
"854 1444 CURVE SMOOTH",
"984 1444 OFFCURVE",
"1108 1394 OFFCURVE",
"1182 1352 CURVE",
"1242 1482 LINE",
"1157 1535 OFFCURVE",
"1026 1596 OFFCURVE",
"854 1596 CURVE SMOOTH",
"358 1596 OFFCURVE",
"154 1252 OFFCURVE",
"154 788 CURVE SMOOTH",
"154 348 OFFCURVE",
"334 -18 OFFCURVE"
);
}
);
width = 1392;
},
{
anchors = (
{
name = bot;
position = "{760, 0}";
},
{
name = top;
position = "{852, 1578}";
}
);
layerId = "5F2F3E34-E24A-4A89-B41B-C326736566A0";
name = Bold;
paths = (
{
closed = 1;
nodes = (
"850 -22 CURVE SMOOTH",
"999 -22 OFFCURVE",
"1155 13 OFFCURVE",
"1301 84 CURVE",
"1191 360 LINE",
"1116 323 OFFCURVE",
"1033 303 OFFCURVE",
"952 303 CURVE SMOOTH",
"738 303 OFFCURVE",
"539 444 OFFCURVE",
"539 781 CURVE SMOOTH",
"539 1132 OFFCURVE",
"732 1285 OFFCURVE",
"952 1285 CURVE SMOOTH",
"1035 1285 OFFCURVE",
"1123 1263 OFFCURVE",
"1205 1221 CURVE",
"1316 1498 LINE",
"1185 1565 OFFCURVE",
"1031 1602 OFFCURVE",
"878 1602 CURVE SMOOTH",
"487 1602 OFFCURVE",
"98 1365 OFFCURVE",
"98 792 CURVE SMOOTH",
"98 236 OFFCURVE",
"451 -22 OFFCURVE"
);
}
);
width = 1375;
}
);
unicode = 0043;
userData = {
anchors = (
);
components = (
);
contours = (
);
hhints = {
};
name = C;
position = 120;
unicodes = (
);
vhints = {
};
width = 1270;
};
},
{
glyphname = D;
lastChange = "2014-02-15 22:20:08 -0800";
layers = (
{
anchors = (
{
name = mid;
position = "{234, 876}";
},
{
name = top;
position = "{671, 1620}";
}
);
layerId = "67845082-4271-4E32-8C80-EE8FB13E39CE";
name = Light;
paths = (
{
closed = 1;
nodes = (
"258 84 LINE",
"258 1536 LINE",
"751 1536 LINE SMOOTH",
"1135 1536 OFFCURVE",
"1231 1150 OFFCURVE",
"1231 811 CURVE SMOOTH",
"1231 470 OFFCURVE",
"1148 84 OFFCURVE",
"751 84 CURVE SMOOTH"
);
},
{
closed = 1;
nodes = (
"160 0 LINE",
"730 0 LINE SMOOTH",
"1212 0 OFFCURVE",
"1331 404 OFFCURVE",
"1331 811 CURVE SMOOTH",
"1331 1215 OFFCURVE",
"1209 1620 OFFCURVE",
"730 1620 CURVE SMOOTH",
"160 1620 LINE"
);
}
);
width = 1435;
},
{
anchors = (
{
name = bot;
position = "{717, 0}";
},
{
name = mid;
position = "{293, 843}";
},
{
name = top;
position = "{732, 1578}";
}
);
layerId = "B5E80BC0-A253-4265-9E84-E8FF94ED18F5";
name = Regular;
paths = (
{
closed = 1;
nodes = (
"383 143 LINE",
"383 1436 LINE",
"722 1436 LINE SMOOTH",
"1111 1436 OFFCURVE",
"1201 1111 OFFCURVE",
"1201 789 CURVE SMOOTH",
"1201 465 OFFCURVE",
"1115 143 OFFCURVE",
"722 143 CURVE SMOOTH"
);
},
{
closed = 1;
nodes = (
"189 0 LINE",
"722 0 LINE SMOOTH",
"1218 0 OFFCURVE",
"1395 338 OFFCURVE",
"1395 788 CURVE SMOOTH",
"1395 1238 OFFCURVE",
"1219 1579 OFFCURVE",
"722 1579 CURVE SMOOTH",
"189 1579 LINE"
);
}
);
width = 1560;
},
{
anchors = (
{
name = mid;
position = "{417, 817}";
},
{
name = top;
position = "{827, 1578}";
}
);
layerId = "5F2F3E34-E24A-4A89-B41B-C326736566A0";
name = Bold;
paths = (
{
closed = 1;
nodes = (
"612 297 LINE",
"612 1283 LINE",
"665 1283 LINE SMOOTH",
"1018 1283 OFFCURVE",
"1141 1156 OFFCURVE",
"1141 783 CURVE SMOOTH",
"1141 410 OFFCURVE",
"1020 297 OFFCURVE",
"665 297 CURVE SMOOTH"
);
},
{
closed = 1;
nodes = (
"176 0 LINE",
"704 0 LINE SMOOTH",
"1236 0 OFFCURVE",
"1581 219 OFFCURVE",
"1581 780 CURVE SMOOTH",
"1581 1349 OFFCURVE",
"1250 1578 OFFCURVE",
"704 1578 CURVE SMOOTH",
"176 1578 LINE"
);
}
);
width = 1678;
}
);
unicode = 0044;
userData = {
anchors = (
);
com.typemytype.robofont.guides = (
);
com.typemytype.robofont.layerData = {
b = {
anchors = (
);
components = (
);
contours = (
);
lib = {
};
name = D;
unicodes = (
);
width = 1447;
};
};
components = (
);
contours = (
);
name = D;
position = 1197;
unicodes = (
);
width = 1418;
};
},
{
glyphname = E;
lastChange = "2014-02-15 22:20:08 -0800";
layers = (
{
anchors = (
{
name = bot;
position = "{617, 0}";
},
{
name = ogonek;
position = "{806, 0}";
},
{
name = top;
position = "{641, 1620}";
}
);
layerId = "67845082-4271-4E32-8C80-EE8FB13E39CE";
name = Light;
paths = (
{
closed = 1;
nodes = (
"160 0 LINE",
"1065 0 LINE",
"1065 84 LINE",
"258 84 LINE",
"258 809 LINE",
"952 809 LINE",
"952 893 LINE",
"258 893 LINE",
"258 1537 LINE",
"1079 1537 LINE",
"1079 1621 LINE",
"160 1620 LINE"
);
}
);
width = 1189;
},
{
anchors = (
{
name = bot;
position = "{747, 0}";
},
{
name = ogonek;
position = "{847, 0}";
},
{
name = top;
position = "{732, 1578}";
}
);
layerId = "B5E80BC0-A253-4265-9E84-E8FF94ED18F5";
name = Regular;
paths = (
{
closed = 1;
nodes = (
"189 0 LINE",
"1134 0 LINE",
"1134 143 LINE",
"383 143 LINE",
"383 768 LINE",
"1036 768 LINE",
"1036 894 LINE",
"383 894 LINE",
"383 1435 LINE",
"1147 1435 LINE",
"1147 1578 LINE",
"189 1579 LINE"
);
}
);
width = 1284;
},
{
anchors = (
{
name = bot;
position = "{769, 0}";
},
{
name = ogonek;
position = "{982, 0}";
},
{
name = top;
position = "{722, 1578}";
}
);
layerId = "5F2F3E34-E24A-4A89-B41B-C326736566A0";
name = Bold;
paths = (
{
closed = 1;
nodes = (
"176 0 LINE",
"1225 0 LINE",
"1225 317 LINE",
"612 317 LINE",
"612 675 LINE",
"1165 675 LINE",
"1165 944 LINE",
"612 944 LINE",
"612 1262 LINE",
"1233 1262 LINE",
"1233 1578 LINE",
"176 1578 LINE"
);
}
);
width = 1333;
}
);
unicode = 0045;
userData = {
anchors = (
);
com.typemytype.robofont.layerData = {
b = {
anchors = (
);
components = (
);
contours = (
);
lib = {
};
name = E;
unicodes = (
);
width = 1153;
};
};
components = (
);
contours = (
);
name = E;
position = 141;
unicodes = (
);
width = 1089;
};
},
{
glyphname = F;
lastChange = "2014-02-15 22:20:08 -0800";
layers = (
{
layerId = "67845082-4271-4E32-8C80-EE8FB13E39CE";
name = Light;
paths = (
{
closed = 1;
nodes = (
"160 0 LINE",
"258 0 LINE",
"258 819 LINE",
"946 819 LINE",
"946 887 LINE",
"258 887 LINE",
"258 1545 LINE",
"994 1545 LINE",
"994 1620 LINE",
"160 1620 LINE"
);
}
);
width = 1057;
},
{
anchors = (
{
name = bot;
position = "{687, 0}";
},
{
name = top;
position = "{702, 1578}";
}
);
layerId = "B5E80BC0-A253-4265-9E84-E8FF94ED18F5";
name = Regular;
paths = (
{
closed = 1;
nodes = (
"196 0 LINE",
"392 0 LINE",
"392 762 LINE",
"1047 762 LINE",
"1047 879 LINE",
"392 879 LINE",
"392 1436 LINE",
"1108 1436 LINE",
"1108 1579 LINE",
"196 1579 LINE"
);
}
);
width = 1236;
},
{
anchors = (
{
name = top;
position = "{762, 1578}";
}
);
layerId = "5F2F3E34-E24A-4A89-B41B-C326736566A0";
name = Bold;
paths = (
{
closed = 1;
nodes = (
"174 0 LINE",
"608 0 LINE",
"608 614 LINE",
"1192 614 LINE",
"1192 882 LINE",
"608 882 LINE",
"608 1261 LINE",
"1288 1261 LINE",
"1288 1578 LINE",
"174 1578 LINE"
);
}
);
width = 1286;
}
);
unicode = 0046;
userData = {
anchors = (
);
com.typemytype.robofont.layerData = {
b = {
anchors = (
);
components = (
);
contours = (
);
lib = {
};
name = F;
unicodes = (
);
width = 1038;
};
};
components = (
);
contours = (
);
name = F;
position = 141;
unicodes = (
);
width = 1039;
};
},
{
glyphname = G;
lastChange = "2014-02-15 22:20:08 -0800";
layers = (
{
anchors = (
{
name = top;
position = "{761, 1620}";
}
);
layerId = "67845082-4271-4E32-8C80-EE8FB13E39CE";
name = Light;
paths = (
{
closed = 1;
nodes = (
"758 -18 CURVE SMOOTH",
"983 -18 OFFCURVE",
"1155 87 OFFCURVE",
"1198 195 CURVE",
"1222 0 LINE",
"1274 0 LINE",
"1274 805 LINE",
"759 805 LINE",
"759 730 LINE",
"1184 730 LINE",
"1184 371 LINE SMOOTH",
"1184 183 OFFCURVE",
"1005 66 OFFCURVE",
"758 66 CURVE SMOOTH",
"282 66 OFFCURVE",
"206 447 OFFCURVE",
"206 805 CURVE SMOOTH",
"206 1099 OFFCURVE",
"296 1553 OFFCURVE",
"757 1553 CURVE SMOOTH",
"965 1553 OFFCURVE",
"1125 1474 OFFCURVE",
"1180 1436 CURVE",
"1213 1505 LINE",
"1164 1543 OFFCURVE",
"987 1638 OFFCURVE",
"758 1638 CURVE SMOOTH",
"264 1638 OFFCURVE",
"104 1203 OFFCURVE",
"104 805 CURVE SMOOTH",
"104 357 OFFCURVE",
"247 -18 OFFCURVE"
);
}
);
width = 1416;
},
{
anchors = (
{
name = bot;
position = "{817, 0}";
},
{
name = top;
position = "{832, 1578}";
}
);
layerId = "B5E80BC0-A253-4265-9E84-E8FF94ED18F5";
name = Regular;
paths = (
{
closed = 1;
nodes = (
"778 -18 CURVE SMOOTH",
"958 -18 OFFCURVE",
"1195 33 OFFCURVE",
"1245 213 CURVE",
"1298 0 LINE",
"1386 0 LINE",
"1386 811 LINE",
"799 811 LINE",
"799 684 LINE",
"1201 684 LINE",
"1201 399 LINE SMOOTH",
"1201 206 OFFCURVE",
"1011 134 OFFCURVE",
"825 134 CURVE SMOOTH",
"420 134 OFFCURVE",
"341 449 OFFCURVE",
"341 782 CURVE SMOOTH",
"341 1112 OFFCURVE",
"437 1444 OFFCURVE",
"840 1444 CURVE SMOOTH",
"959 1444 OFFCURVE",
"1112 1408 OFFCURVE",
"1206 1343 CURVE",
"1273 1476 LINE",
"1137 1548 OFFCURVE",
"1006 1596 OFFCURVE",
"842 1596 CURVE SMOOTH",
"343 1596 OFFCURVE",
"147 1243 OFFCURVE",
"147 786 CURVE SMOOTH",
"147 388 OFFCURVE",
"317 -18 OFFCURVE"
);
}
);
width = 1572;
},
{
anchors = (
{
name = bot;
position = "{829, 0}";
},
{
name = top;
position = "{882, 1578}";
}
);
layerId = "5F2F3E34-E24A-4A89-B41B-C326736566A0";
name = Bold;
paths = (
{
closed = 1;
nodes = (
"791 -22 CURVE SMOOTH",
"984 -22 OFFCURVE",
"1100 77 OFFCURVE",
"1125 156 CURVE",
"1173 0 LINE",
"1441 0 LINE",
"1441 905 LINE",
"872 905 LINE",
"872 644 LINE",
"1091 644 LINE",
"1091 321 LINE",
"1016 298 OFFCURVE",
"937 283 OFFCURVE",
"870 283 CURVE SMOOTH",
"680 283 OFFCURVE",
"538 399 OFFCURVE",
"538 763 CURVE SMOOTH",
"538 1137 OFFCURVE",
"704 1282 OFFCURVE",
"925 1282 CURVE SMOOTH",
"1038 1282 OFFCURVE",
"1166 1245 OFFCURVE",
"1293 1180 CURVE",
"1405 1453 LINE",
"1251 1544 OFFCURVE",
"1061 1602 OFFCURVE",
"875 1602 CURVE SMOOTH",
"479 1602 OFFCURVE",
"97 1359 OFFCURVE",
"97 764 CURVE SMOOTH",
"97 227 OFFCURVE",
"412 -22 OFFCURVE"
);
}
);
width = 1588;
}
);
unicode = 0047;
userData = {
anchors = (
);
components = (
);
contours = (
);
hhints = {
};
name = G;
points = (
);
position = 1303;
segmentType = line;
unicodes = (
);
vhints = {
};
width = 1411;
};
},
{
glyphname = H;
lastChange = "2014-02-15 22:20:08 -0800";
layers = (
{
anchors = (
{
name = top;
position = "{771, 1620}";
}
);
layerId = "67845082-4271-4E32-8C80-EE8FB13E39CE";
name = Light;
paths = (
{
closed = 1;
nodes = (
"160 0 LINE",
"258 0 LINE",
"258 786 LINE",
"1238 786 LINE",
"1238 0 LINE",
"1336 0 LINE",
"1336 1620 LINE",
"1238 1620 LINE",
"1238 864 LINE",
"258 864 LINE",
"258 1620 LINE",
"160 1620 LINE"
);
}
);
width = 1496;
},
{
anchors = (
{
name = bot;
position = "{777, 0}";
},
{
name = top;
position = "{792, 1578}";
}
);
layerId = "B5E80BC0-A253-4265-9E84-E8FF94ED18F5";
name = Regular;
paths = (
{
closed = 1;
nodes = (
"182 0 LINE",
"376 0 LINE",
"376 751 LINE",
"1208 751 LINE",
"1208 0 LINE",
"1402 0 LINE",
"1402 1579 LINE",
"1208 1579 LINE",
"1208 894 LINE",
"376 894 LINE",
"376 1579 LINE",
"182 1579 LINE"
);
}
);
width = 1584;
},
{
anchors = (
{
name = top;
position = "{862, 1578}";
}
);
layerId = "5F2F3E34-E24A-4A89-B41B-C326736566A0";
name = Bold;
paths = (
{
closed = 1;
nodes = (
"176 0 LINE",
"612 0 LINE",
"612 681 LINE",
"1065 681 LINE",
"1065 0 LINE",
"1501 0 LINE",
"1501 1578 LINE",
"1065 1578 LINE",
"1065 950 LINE",
"612 950 LINE",
"612 1578 LINE",
"176 1578 LINE"
);
}
);
width = 1677;
}
);
unicode = 0048;
userData = {
anchors = (
);
com.typemytype.robofont.layerData = {
b = {
anchors = (
);
components = (
);
contours = (
);
lib = {
};
name = H;
unicodes = (
);
width = 1497;
};
};
components = (
);
contours = (
);
hhints = {
};
name = H;
points = (
);
position = 1218;
segmentType = line;
unicodes = (
);
vhints = {
};
width = 1459;
x = 260;
y = 0;
};
},
{
glyphname = I;
lastChange = "2014-02-15 22:20:08 -0800";
layers = (
{
anchors = (
{
name = ogonek;
position = "{376, 0}";
},
{
name = top;
position = "{369, 1620}";
}
);
layerId = "67845082-4271-4E32-8C80-EE8FB13E39CE";
name = Light;
paths = (
{
closed = 1;
nodes = (
"96 0 LINE",
"626 0 LINE",
"626 60 LINE",
"414 60 LINE",
"414 1560 LINE",
"626 1560 LINE",
"626 1620 LINE",
"96 1620 LINE",
"96 1560 LINE",
"316 1560 LINE",
"316 60 LINE",
"96 60 LINE"
);
}
);
width = 732;
},
{
anchors = (
{
name = bot;
position = "{507, 0}";
},
{
name = top;
position = "{522, 1578}";
}
);
layerId = "B5E80BC0-A253-4265-9E84-E8FF94ED18F5";
name = Regular;
paths = (
{
closed = 1;
nodes = (
"209 0 LINE",
"802 0 LINE",
"802 112 LINE",
"596 112 LINE",
"596 1461 LINE",
"802 1461 LINE",
"802 1579 LINE",
"209 1579 LINE",
"209 1461 LINE",
"413 1461 LINE",
"413 112 LINE",
"209 112 LINE"
);
}
);
width = 1020;
},
{
anchors = (
{
name = ogonek;
position = "{482, 0}";
},
{
name = top;
position = "{483, 1578}";
}
);
layerId = "5F2F3E34-E24A-4A89-B41B-C326736566A0";
name = Bold;
paths = (
{
closed = 1;
nodes = (
"71 0 LINE",
"826 0 LINE",
"826 288 LINE",
"669 288 LINE",
"669 1292 LINE",
"826 1292 LINE",
"826 1578 LINE",
"71 1578 LINE",
"71 1292 LINE",
"228 1292 LINE",
"228 288 LINE",
"71 288 LINE"
);
}
);
width = 897;
}
);
unicode = 0049;
userData = {
anchors = (
);
com.typemytype.robofont.layerData = {
b = {
anchors = (
);
components = (
);
contours = (
);
lib = {
};
name = I;
unicodes = (
);
width = 732;
};
};
components = (
);
contours = (
);
name = I;
position = 324;
unicodes = (
);
width = 733;
};
},
{
glyphname = J;
lastChange = "2014-02-15 22:20:08 -0800";
layers = (
{
anchors = (
{
name = top;
position = "{451, 1620}";
}
);
layerId = "67845082-4271-4E32-8C80-EE8FB13E39CE";
name = Light;
paths = (
{
closed = 1;
nodes = (
"94 -457 LINE",
"454 -417 OFFCURVE",
"495 -274 OFFCURVE",
"495 28 CURVE SMOOTH",
"493 1620 LINE",
"395 1620 LINE",
"395 30 LINE SMOOTH",
"395 -235 OFFCURVE",
"380 -322 OFFCURVE",
"72 -371 CURVE"
);
}
);
width = 671;
},
{
anchors = (
{
name = bot;
position = "{477, 0}";
},
{
name = top;
position = "{492, 1578}";
}
);
layerId = "B5E80BC0-A253-4265-9E84-E8FF94ED18F5";
name = Regular;
paths = (
{
closed = 1;
nodes = (
"126 -90 LINE",
"534 -90 OFFCURVE",
"593 168 OFFCURVE",
"593 514 CURVE SMOOTH",
"593 1579 LINE",
"401 1579 LINE",
"401 479 LINE SMOOTH",
"401 203 OFFCURVE",
"387 83 OFFCURVE",
"79 37 CURVE"
);
}
);
width = 816;
},
{
anchors = (
{
name = top;
position = "{582, 1578}";
}
);
layerId = "5F2F3E34-E24A-4A89-B41B-C326736566A0";
name = Bold;
paths = (
{
closed = 1;
nodes = (
"125 -387 LINE",
"532 -375 OFFCURVE",
"786 -212 OFFCURVE",
"786 255 CURVE SMOOTH",
"786 1578 LINE",
"348 1578 LINE",
"348 261 LINE SMOOTH",
"348 -5 OFFCURVE",
"246 -65 OFFCURVE",
"33 -99 CURVE"
);
}
);
width = 962;
}
);
unicode = 004A;
userData = {
anchors = (
);
com.typemytype.robofont.layerData = {
b = {
anchors = (
);
components = (
);
contours = (
);
lib = {
};
name = J;
unicodes = (
);
width = 633;
};
};
components = (
);
contours = (
);
hhints = {
};
name = J;
position = 396;
unicodes = (
);
vhints = {
};
width = 634;
};
},
{
glyphname = K;
lastChange = "2014-02-15 22:20:08 -0800";
layers = (
{
anchors = (
{
name = bot;
position = "{627, 0}";
},
{
name = top;
position = "{601, 1620}";
}
);
layerId = "67845082-4271-4E32-8C80-EE8FB13E39CE";
name = Light;
paths = (
{
closed = 1;
nodes = (
"160 0 LINE",
"258 0 LINE",
"258 786 LINE",
"317 786 LINE",
"1094 0 LINE",
"1215 0 LINE",
"406 827 LINE",
"1160 1620 LINE",
"1046 1620 LINE",
"312 855 LINE",
"258 855 LINE",
"258 1620 LINE",
"160 1620 LINE"
);
}
);
width = 1251;
},
{
anchors = (
{
name = bot;
position = "{697, 0}";
},
{
name = top;
position = "{712, 1578}";
}
);
layerId = "B5E80BC0-A253-4265-9E84-E8FF94ED18F5";
name = Regular;
paths = (
{
closed = 1;
nodes = (
"182 0 LINE",
"376 0 LINE",
"376 747 LINE",
"419 747 LINE",
"1097 0 LINE",
"1330 0 LINE",
"588 815 LINE",
"1282 1579 LINE",
"1071 1579 LINE",
"409 876 LINE",
"376 876 LINE",
"376 1579 LINE",
"182 1579 LINE"
);
}
);
width = 1356;
},
{
anchors = (
{
name = bot;
position = "{819, 0}";
},
{
name = top;
position = "{802, 1578}";
}
);
layerId = "5F2F3E34-E24A-4A89-B41B-C326736566A0";
name = Bold;
paths = (
{
closed = 1;
nodes = (
"174 0 LINE",
"610 0 LINE",
"610 635 LINE",
"619 635 LINE",
"1039 0 LINE",
"1563 0 LINE",
"1026 778 LINE",
"1533 1578 LINE",
"1040 1578 LINE",
"634 920 LINE",
"610 920 LINE",
"610 1578 LINE",
"174 1578 LINE"
);
}
);
width = 1525;
}
);
unicode = 004B;
userData = {
anchors = (
);
com.typemytype.robofont.layerData = {
b = {
anchors = (
);
components = (
);
contours = (
);
lib = {
};
name = K;
unicodes = (
);
width = 1197;
};
};
components = (
);
contours = (
);
name = K;
position = 141;
unicodes = (
);
width = 1198;
};
},
{
glyphname = L;
lastChange = "2014-02-15 22:20:08 -0800";
layers = (
{
anchors = (
{
name = bot;
position = "{627, 0}";
},
{
name = caron.alt;
position = "{379, 1172}";
},
{
name = mid;
position = "{211, 869}";
},
{
name = top;
position = "{231, 1620}";
}
);
layerId = "67845082-4271-4E32-8C80-EE8FB13E39CE";
name = Light;
paths = (
{
closed = 1;
nodes = (
"160 0 LINE",
"1073 0 LINE",
"1073 76 LINE",
"258 76 LINE",
"258 1620 LINE",
"160 1620 LINE"
);
}
);
width = 1134;
},
{
anchors = (
{
name = bot;
position = "{697, 0}";
},
{
name = caron.alt;
position = "{389, 1168}";
},
{
name = mid;
position = "{306, 885}";
},
{
name = top;
position = "{322, 1578}";
}
);
layerId = "B5E80BC0-A253-4265-9E84-E8FF94ED18F5";
name = Regular;
paths = (
{
closed = 1;
nodes = (
"196 0 LINE",
"1136 0 LINE",
"1136 143 LINE",
"390 143 LINE",
"390 1579 LINE",
"196 1579 LINE"
);
}
);
width = 1212;
},
{
anchors = (
{
name = bot;
position = "{679, 0}";
},
{
name = caron.alt;
position = "{589, 1162}";
},
{
name = mid;
position = "{400, 933}";
},
{
name = top;
position = "{432, 1578}";
}
);
layerId = "5F2F3E34-E24A-4A89-B41B-C326736566A0";
name = Bold;
paths = (
{
closed = 1;
nodes = (
"174 0 LINE",
"1184 0 LINE",
"1184 316 LINE",
"609 316 LINE",
"609 1578 LINE",
"174 1578 LINE"
);
}
);
width = 1205;
}
);
unicode = 004C;
userData = {
anchors = (
);
com.typemytype.robofont.layerData = {
b = {
anchors = (
);
components = (
);
contours = (
);
lib = {
};
name = L;
unicodes = (
);
width = 1115;
};
};
components = (
);
contours = (
);
name = L;
position = 141;
unicodes = (
);
width = 1116;
};
},
{
glyphname = M;
lastChange = "2014-02-15 22:20:08 -0800";
layers = (
{
anchors = (
{
name = top;
position = "{871, 1620}";
}
);
layerId = "67845082-4271-4E32-8C80-EE8FB13E39CE";
name = Light;
paths = (
{
closed = 1;
nodes = (
"160 0 LINE",
"258 0 LINE",
"258 1488.7 LINE",
"860 149 LINE",
"931 149 LINE",
"1516 1493.59 LINE",
"1516 0 LINE",
"1614 0 LINE",
"1614 1620 LINE",
"1475 1620 LINE",
"893 290 LINE",
"296 1620 LINE",
"160 1620 LINE"
);
}
);
width = 1774;
},
{
anchors = (
{
name = bot;
position = "{947, 0}";
},
{
name = top;
position = "{962, 1578}";
}
);
layerId = "B5E80BC0-A253-4265-9E84-E8FF94ED18F5";
name = Regular;
paths = (
{
closed = 1;
nodes = (
"189 0 LINE",
"363 0 LINE",
"363 1399 LINE",
"867 112 LINE",
"1033 112 LINE",
"1548 1399 LINE",
"1548 0 LINE",
"1721 0 LINE",
"1721 1579 LINE",
"1440 1579 LINE",
"955 320 LINE",
"470 1579 LINE",
"189 1579 LINE"
);
}
);
width = 1920;
},
{
anchors = (
{
name = top;
position = "{1042, 1578}";
}
);
layerId = "5F2F3E34-E24A-4A89-B41B-C326736566A0";
name = Bold;
paths = (
{
closed = 1;
nodes = (
"174 0 LINE",
"531 0 LINE",
"531 963 LINE",
"835 0 LINE",
"1248 0 LINE",
"1541 963 LINE",
"1541 0 LINE",
"1898 0 LINE",
"1898 1578 LINE",
"1402 1578 LINE",
"1027 485 LINE",
"668 1578 LINE",
"174 1578 LINE"
);
}
);
width = 2072;
}
);
unicode = 004D;
userData = {
anchors = (
);
com.typemytype.robofont.layerData = {
b = {
anchors = (
);
components = (
);
contours = (
);
lib = {
};
name = M;
unicodes = (
);
width = 1775;
};
};
components = (
);
contours = (
);
name = M;
points = (
);
position = 1497;
segmentType = line;
unicodes = (
);
width = 1739;
x = 263;
y = 0;
};
},
{
glyphname = N;
lastChange = "2014-02-15 22:20:08 -0800";
layers = (
{
anchors = (
{
name = bot;
position = "{817, 0}";
},
{
name = top;
position = "{821, 1620}";
}
);
layerId = "67845082-4271-4E32-8C80-EE8FB13E39CE";
name = Light;
paths = (
{
closed = 1;
nodes = (
"160 0 LINE",
"252 0 LINE",
"252 1534.9 LINE",
"1226 0 LINE",
"1371 0 LINE",
"1371 1620 LINE",
"1279 1620 LINE",
"1279 81.5488 LINE",
"298 1620 LINE",
"160 1620 LINE"
);
}
);
width = 1531;
},
{
anchors = (
{
name = bot;
position = "{837, 0}";
},
{
name = top;
position = "{852, 1578}";
}
);
layerId = "B5E80BC0-A253-4265-9E84-E8FF94ED18F5";
name = Regular;
paths = (
{
closed = 1;
nodes = (
"209 0 LINE",
"381 0 LINE",
"381 1404 LINE",
"1200 0 LINE",
"1462 0 LINE",
"1462 1579 LINE",
"1290 1579 LINE",
"1290 175 LINE",
"471 1579 LINE",
"209 1579 LINE"
);
}
);
width = 1656;
},
{
anchors = (
{
name = bot;
position = "{919, 0}";
},
{
name = top;
position = "{882, 1578}";
}
);
layerId = "5F2F3E34-E24A-4A89-B41B-C326736566A0";
name = Bold;
paths = (
{
closed = 1;
nodes = (
"174 0 LINE",
"563 0 LINE",
"563 946 LINE",
"1109 0 LINE",
"1536 0 LINE",
"1536 1578 LINE",
"1149 1578 LINE",
"1149 652 LINE",
"619 1578 LINE",
"174 1578 LINE"
);
}
);
width = 1710;
}
);
unicode = 004E;
userData = {
anchors = (
);
components = (
);
contours = (
);
name = N;
position = 1263;
unicodes = (
);
width = 1492;
};
},
{
glyphname = O;
lastChange = "2014-02-15 22:20:08 -0800";
layers = (
{
anchors = (
{
name = ogonek;
position = "{816, 0}";
},
{
name = top;
position = "{729, 1620}";
}
);
layerId = "67845082-4271-4E32-8C80-EE8FB13E39CE";
name = Light;
paths = (
{
closed = 1;
nodes = (
"727 66 CURVE SMOOTH",
"299 66 OFFCURVE",
"206 475 OFFCURVE",
"206 810 CURVE SMOOTH",
"206 1147 OFFCURVE",
"299 1554 OFFCURVE",
"727 1554 CURVE SMOOTH",
"1154 1554 OFFCURVE",
"1247 1147 OFFCURVE",
"1247 810 CURVE SMOOTH",
"1247 475 OFFCURVE",
"1154 66 OFFCURVE"
);
},
{
closed = 1;
nodes = (
"727 -18 CURVE SMOOTH",
"1209 -18 OFFCURVE",
"1349 414 OFFCURVE",
"1349 810 CURVE SMOOTH",
"1349 1208 OFFCURVE",
"1209 1638 OFFCURVE",
"727 1638 CURVE SMOOTH",
"244 1638 OFFCURVE",
"104 1208 OFFCURVE",
"104 810 CURVE SMOOTH",
"104 414 OFFCURVE",
"244 -18 OFFCURVE"
);
}
);
width = 1453;
},
{
anchors = (
{
name = ogonek;
position = "{867, 0}";
},
{
name = top;
position = "{802, 1578}";
}
);
layerId = "B5E80BC0-A253-4265-9E84-E8FF94ED18F5";
name = Regular;
paths = (
{
closed = 1;
nodes = (
"801 134 CURVE SMOOTH",
"418 134 OFFCURVE",
"341 464 OFFCURVE",
"341 784 CURVE SMOOTH",
"341 1101 OFFCURVE",
"418 1444 OFFCURVE",
"801 1444 CURVE SMOOTH",
"1185 1444 OFFCURVE",
"1263 1103 OFFCURVE",
"1263 784 CURVE SMOOTH",
"1263 464 OFFCURVE",
"1182 134 OFFCURVE"
);
},
{
closed = 1;
nodes = (
"801 -18 CURVE SMOOTH",
"1281 -18 OFFCURVE",
"1457 342 OFFCURVE",
"1457 784 CURVE SMOOTH",
"1457 1236 OFFCURVE",
"1285 1596 OFFCURVE",
"801 1596 CURVE SMOOTH",
"326 1596 OFFCURVE",
"147 1214 OFFCURVE",
"147 784 CURVE SMOOTH",
"147 342 OFFCURVE",
"323 -18 OFFCURVE"
);
}
);
width = 1620;
},
{
anchors = (
{
name = ogonek;
position = "{902, 0}";
},
{
name = top;
position = "{852, 1578}";
}
);
layerId = "5F2F3E34-E24A-4A89-B41B-C326736566A0";
name = Bold;
paths = (
{
closed = 1;
nodes = (
"836 277 CURVE SMOOTH",
"608 277 OFFCURVE",
"538 492 OFFCURVE",
"538 791 CURVE SMOOTH",
"538 1090 OFFCURVE",
"608 1296 OFFCURVE",
"836 1296 CURVE SMOOTH",
"1061 1296 OFFCURVE",
"1132 1092 OFFCURVE",
"1132 791 CURVE SMOOTH",
"1132 501 OFFCURVE",
"1068 277 OFFCURVE"
);
},
{
closed = 1;
nodes = (
"836 -22 CURVE SMOOTH",
"1328 -22 OFFCURVE",
"1572 261 OFFCURVE",
"1572 791 CURVE SMOOTH",
"1572 1329 OFFCURVE",
"1311 1602 OFFCURVE",
"836 1602 CURVE SMOOTH",
"358 1602 OFFCURVE",
"98 1342 OFFCURVE",
"98 791 CURVE SMOOTH",
"98 261 OFFCURVE",
"342 -22 OFFCURVE"
);
}
);
width = 1670;
}
);
unicode = 004F;
userData = {
anchors = (
);
com.typemytype.robofont.guides = (
);
components = (
);
contours = (
);
hhints = {
};
name = O;
position = 1269;
unicodes = (
);
vhints = {
};
width = 1488;
};
},
{
glyphname = P;
lastChange = "2014-02-15 22:20:08 -0800";
layers = (
{
anchors = (
{
name = top;
position = "{651, 1620}";
}
);
layerId = "67845082-4271-4E32-8C80-EE8FB13E39CE";
name = Light;
paths = (
{
closed = 1;
nodes = (
"160 0 LINE",
"258 0 LINE",
"258 790 LINE",
"666 790 LINE SMOOTH",
"974 790 OFFCURVE",
"1225 852 OFFCURVE",
"1225 1217 CURVE SMOOTH",
"1225 1599 OFFCURVE",
"912 1620 OFFCURVE",
"678 1620 CURVE SMOOTH",
"160 1620 LINE"
);
},
{
closed = 1;
nodes = (
"258 876 LINE",
"258 1536 LINE",
"680 1536 LINE SMOOTH",
"931 1536 OFFCURVE",
"1122 1499 OFFCURVE",
"1122 1218 CURVE SMOOTH",
"1122 912 OFFCURVE",
"948 876 OFFCURVE",
"666 876 CURVE SMOOTH"
);
}
);
width = 1290;
},
{
anchors = (
{
name = bot;
position = "{697, 0}";
},
{
name = top;
position = "{712, 1578}";
}
);
layerId = "B5E80BC0-A253-4265-9E84-E8FF94ED18F5";
name = Regular;
paths = (
{
closed = 1;
nodes = (
"189 0 LINE",
"383 0 LINE",
"383 639 LINE",
"398.327 639 OFFCURVE",
"413.992 638.951 OFFCURVE",
"429.937 638.895 CURVE SMOOTH",
"787.46 637.648 OFFCURVE",
"1286 633.176 OFFCURVE",
"1286 1108 CURVE SMOOTH",
"1286 1536 OFFCURVE",
"940 1579 OFFCURVE",
"586 1579 CURVE SMOOTH",
"189 1579 LINE"
);
},
{
closed = 1;
nodes = (
"383 784 LINE",
"383 1436 LINE",
"598 1436 LINE SMOOTH",
"897 1436 OFFCURVE",
"1104 1422 OFFCURVE",
"1104 1084 CURVE SMOOTH",
"1104 790 OFFCURVE",
"774 784 OFFCURVE",
"553 784 CURVE SMOOTH"
);
}
);
width = 1440;
},
{
anchors = (
{
name = top;
position = "{634, 1578}";
}
);
layerId = "5F2F3E34-E24A-4A89-B41B-C326736566A0";
name = Bold;
paths = (
{
closed = 1;
nodes = (
"176 0 LINE",
"612 0 LINE",
"612 638 LINE",
"649 638 LINE SMOOTH",
"1246 638 OFFCURVE",
"1439 768 OFFCURVE",
"1439 1175 CURVE SMOOTH",
"1439 1480 OFFCURVE",
"1254 1578 OFFCURVE",
"681 1578 CURVE SMOOTH",
"176 1578 LINE"
);
},
{
closed = 1;
nodes = (
"612 914 LINE",
"612 1322 LINE",
"663 1322 LINE SMOOTH",
"917 1322 OFFCURVE",
"999 1277 OFFCURVE",
"999 1136 CURVE SMOOTH",
"999 968 OFFCURVE",
"914 914 OFFCURVE",
"649 914 CURVE SMOOTH"
);
}
);
width = 1512;
}
);
unicode = 0050;
userData = {
anchors = (
);
com.typemytype.robofont.layerData = {
b = {
anchors = (
);
components = (
);
contours = (
);
lib = {
};
name = P;
unicodes = (
);
width = 1290;
};
};
components = (
);
contours = (
);
name = R;
position = 1135;
unicodes = (
);
width = 1304;
};
},
{
glyphname = Q;
lastChange = "2014-02-15 22:20:08 -0800";
layers = (
{
anchors = (
{
name = ogonek;
position = "{816, 0}";
},
{
name = top;
position = "{729, 1620}";
}
);
layerId = "67845082-4271-4E32-8C80-EE8FB13E39CE";
name = Light;
paths = (
{
closed = 1;
nodes = (
"1077 -426 LINE",
"1139 -372 LINE",
"840.259 -9 LINE",
"1231.31 53.594 OFFCURVE",
"1349 446.928 OFFCURVE",
"1349 810 CURVE SMOOTH",
"1349 1208 OFFCURVE",
"1209 1638 OFFCURVE",
"727 1638 CURVE SMOOTH",
"244 1638 OFFCURVE",
"104 1208 OFFCURVE",
"104 810 CURVE SMOOTH",
"104 414 OFFCURVE",
"244 -18 OFFCURVE",
"727 -18 CURVE"
);
},
{
closed = 1;
nodes = (
"727 66 CURVE SMOOTH",
"299 66 OFFCURVE",
"206 475 OFFCURVE",
"206 810 CURVE SMOOTH",
"206 1147 OFFCURVE",
"299 1554 OFFCURVE",
"727 1554 CURVE SMOOTH",
"1154 1554 OFFCURVE",
"1247 1147 OFFCURVE",
"1247 810 CURVE SMOOTH",
"1247 475 OFFCURVE",
"1154 66 OFFCURVE"
);
}
);
width = 1487;
},
{
anchors = (
{
name = bot;
position = "{787, 0}";
},
{
name = top;
position = "{802, 1578}";
}
);
layerId = "B5E80BC0-A253-4265-9E84-E8FF94ED18F5";
name = Regular;
paths = (
{
closed = 1;
nodes = (
"1077 -426 LINE",
"1193 -352 LINE",
"938.719 -7 LINE",
"1315.12 56.4061 OFFCURVE",
"1457 387.152 OFFCURVE",
"1457 784 CURVE SMOOTH",
"1457 1236 OFFCURVE",
"1285 1596 OFFCURVE",
"801 1596 CURVE SMOOTH",
"326 1596 OFFCURVE",
"147 1214 OFFCURVE",
"147 784 CURVE SMOOTH",
"147 352.55 OFFCURVE",
"314.699 -1 OFFCURVE",
"767.288 -17 CURVE"
);
},
{
closed = 1;
nodes = (
"801 134 CURVE SMOOTH",
"418 134 OFFCURVE",
"341 464 OFFCURVE",
"341 784 CURVE SMOOTH",
"341 1101 OFFCURVE",
"418 1444 OFFCURVE",
"801 1444 CURVE SMOOTH",
"1185 1444 OFFCURVE",
"1263 1103 OFFCURVE",
"1263 784 CURVE SMOOTH",
"1263 464 OFFCURVE",
"1182 134 OFFCURVE"
);
}
);
width = 1620;
},
{
layerId = "5F2F3E34-E24A-4A89-B41B-C326736566A0";
name = Bold;
paths = (
{
closed = 1;
nodes = (
"1104 -458 LINE",
"1320 -261 LINE",
"1106.52 17.294 LINE",
"1417.51 108.426 OFFCURVE",
"1572 376 OFFCURVE",
"1572 793 CURVE SMOOTH",
"1572 1329 OFFCURVE",
"1311 1602 OFFCURVE",
"836 1602 CURVE SMOOTH",
"358 1602 OFFCURVE",
"98 1342 OFFCURVE",
"98 793 CURVE SMOOTH",
"98 300 OFFCURVE",
"313.57 17.0993 OFFCURVE",
"749.69 -15 CURVE"
);
},
{
closed = 1;
nodes = (
"836 281 CURVE SMOOTH",
"608 281 OFFCURVE",
"538 494 OFFCURVE",
"538 793 CURVE SMOOTH",
"538 1096 OFFCURVE",
"608 1296 OFFCURVE",
"836 1296 CURVE SMOOTH",
"1061 1296 OFFCURVE",
"1132 1098 OFFCURVE",
"1132 793 CURVE SMOOTH",
"1132 503 OFFCURVE",
"1068 281 OFFCURVE"
);
}
);
width = 1670;
}
);
unicode = 0051;
userData = {
anchors = (
);
components = (
);
contours = (
);
name = Q;
position = 1285;
unicodes = (
);
width = 1508;
};
},
{
glyphname = R;
lastChange = "2014-02-15 22:20:08 -0800";
layers = (
{
anchors = (
{
name = bot;
position = "{617, 0}";
},
{
name = top;
position = "{711, 1620}";
}
);
layerId = "67845082-4271-4E32-8C80-EE8FB13E39CE";
name = Light;
paths = (
{
closed = 1;
nodes = (
"160 0 LINE",
"258 0 LINE",
"258 764 LINE",
"693 764 LINE SMOOTH",
"1036.65 765.717 OFFCURVE",
"1065.91 658.971 OFFCURVE",
"1098 474 CURVE SMOOTH",
"1181 0 LINE",
"1272 0 LINE",
"1192 471 LINE SMOOTH",
"1161.08 650.925 OFFCURVE",
"1138.55 750.332 OFFCURVE",
"964.716 793.872 CURVE",
"1132.45 840.904 OFFCURVE",
"1244 953.701 OFFCURVE",
"1244 1201 CURVE SMOOTH",
"1244 1583 OFFCURVE",
"939 1620 OFFCURVE",
"705 1620 CURVE SMOOTH",
"160 1620 LINE"
);
},
{
closed = 1;
nodes = (
"258 847 LINE",
"258 1536 LINE",
"707 1536 LINE SMOOTH",
"958 1536 OFFCURVE",
"1141 1483 OFFCURVE",
"1141 1202 CURVE SMOOTH",
"1141 896 OFFCURVE",
"975 847 OFFCURVE",
"693 847 CURVE SMOOTH"
);
}
);
width = 1367;
},
{
anchors = (
{
name = bot;
position = "{757, 0}";
},
{
name = top;
position = "{722, 1578}";
}
);
layerId = "B5E80BC0-A253-4265-9E84-E8FF94ED18F5";
name = Regular;
paths = (
{
closed = 1;
nodes = (
"189 0 LINE",
"383 0 LINE",
"383 733 LINE",
"680 733 LINE SMOOTH",
"1042 733 OFFCURVE",
"1099 653 OFFCURVE",
"1113 381 CURVE SMOOTH",
"1133 0 LINE",
"1311 0 LINE",
"1291 405 LINE SMOOTH",
"1280 629 OFFCURVE",
"1184 796 OFFCURVE",
"1011 809 CURVE",
"1178 847 OFFCURVE",
"1305 968 OFFCURVE",
"1305 1160 CURVE SMOOTH",
"1305 1579 OFFCURVE",
"962 1579 OFFCURVE",
"592 1579 CURVE SMOOTH",
"189 1579 LINE"
);
},
{
closed = 1;
nodes = (
"383 862 LINE",
"383 1436 LINE",
"592 1436 LINE SMOOTH",
"866 1436 OFFCURVE",
"1135 1465 OFFCURVE",
"1135 1150 CURVE SMOOTH",
"1135 885 OFFCURVE",
"941 862 OFFCURVE",
"741 862 CURVE SMOOTH"
);
}
);
width = 1476;
},
{
anchors = (
{
name = bot;
position = "{799, 0}";
},
{
name = top;
position = "{702, 1578}";
}
);
layerId = "5F2F3E34-E24A-4A89-B41B-C326736566A0";
name = Bold;
paths = (
{
closed = 1;
nodes = (
"174 0 LINE",
"610 0 LINE",
"610 660 LINE",
"753 660 LINE SMOOTH",
"908 660 OFFCURVE",
"983 611 OFFCURVE",
"1004 423 CURVE SMOOTH",
"1052 0 LINE",
"1505 0 LINE",
"1441 518 LINE SMOOTH",
"1419 692 OFFCURVE",
"1326 792 OFFCURVE",
"1153 821 CURVE",
"1343 842 OFFCURVE",
"1455 950 OFFCURVE",
"1455 1164 CURVE SMOOTH",
"1455 1381 OFFCURVE",
"1419 1578 OFFCURVE",
"822 1578 CURVE SMOOTH",
"174 1578 LINE"
);
},
{
closed = 1;
nodes = (
"610 933 LINE",
"610 1322 LINE",
"751 1322 LINE SMOOTH",
"965 1322 OFFCURVE",
"1010 1246 OFFCURVE",
"1010 1108 CURVE SMOOTH",
"1010 979 OFFCURVE",
"898 933 OFFCURVE",
"715 933 CURVE SMOOTH"
);
}
);
width = 1587;
}
);
unicode = 0052;
userData = {
anchors = (
);
com.typemytype.robofont.layerData = {
b = {
anchors = (
);
components = (
);
contours = (
);
lib = {
};
name = R;
unicodes = (
);
width = 1367;
};
};
components = (
);
contours = (
);
name = R;
points = (
);
position = 1135;
segmentType = line;
unicodes = (
);
width = 1304;
x = 229;
y = 1620;
};
},
{
glyphname = S;
lastChange = "2014-02-15 22:20:08 -0800";
layers = (
{
anchors = (
{
name = bot;
position = "{549, 0}";
},
{
name = top;
position = "{597, 1620}";
}
);
layerId = "67845082-4271-4E32-8C80-EE8FB13E39CE";
name = Light;
paths = (
{
closed = 1;
nodes = (
"579 -12 CURVE SMOOTH",
"857 -12 OFFCURVE",
"1110 83 OFFCURVE",
"1110 417 CURVE SMOOTH",
"1110 756 OFFCURVE",
"927 813 OFFCURVE",
"673 878 CURVE SMOOTH",
"514 919 LINE SMOOTH",
"285 978 OFFCURVE",
"200 1063 OFFCURVE",
"200 1244 CURVE SMOOTH",
"200 1493 OFFCURVE",
"391 1560 OFFCURVE",
"590 1560 CURVE SMOOTH",
"793 1560 OFFCURVE",
"921 1499 OFFCURVE",
"992 1434 CURVE",
"1037 1502 LINE",
"933 1592 OFFCURVE",
"780 1644 OFFCURVE",
"590 1644 CURVE SMOOTH",
"320 1644 OFFCURVE",
"104 1543 OFFCURVE",
"104 1244 CURVE SMOOTH",
"104 1002 OFFCURVE",
"233 888 OFFCURVE",
"488 828 CURVE SMOOTH",
"646 791 LINE SMOOTH",
"888 734 OFFCURVE",
"1020 675 OFFCURVE",
"1020 417 CURVE SMOOTH",
"1020 146 OFFCURVE",
"822 72 OFFCURVE",
"579 72 CURVE SMOOTH",
"388 72 OFFCURVE",
"226 140 OFFCURVE",
"136 201 CURVE",
"92 128 LINE",
"184 68 OFFCURVE",
"360 -12 OFFCURVE"
);
}
);
width = 1218;
},
{
anchors = (
{
name = bot;
position = "{637, 0}";
},
{
name = top;
position = "{652, 1578}";
}
);
layerId = "B5E80BC0-A253-4265-9E84-E8FF94ED18F5";
name = Regular;
paths = (
{
closed = 1;
nodes = (
"640 -18 CURVE SMOOTH",
"957 -18 OFFCURVE",
"1181 105 OFFCURVE",
"1181 414 CURVE SMOOTH",
"1181 718 OFFCURVE",
"1017 793 OFFCURVE",
"772 883 CURVE SMOOTH",
"566 959 LINE SMOOTH",
"406 1018 OFFCURVE",
"308 1060 OFFCURVE",
"308 1210 CURVE SMOOTH",
"308 1395 OFFCURVE",
"491 1444 OFFCURVE",
"663 1444 CURVE SMOOTH",
"795 1444 OFFCURVE",
"940 1392 OFFCURVE",
"1028 1336 CURVE",
"1095 1473 LINE",
"957 1562 OFFCURVE",
"793 1596 OFFCURVE",
"624 1596 CURVE SMOOTH",
"366 1596 OFFCURVE",
"127 1466 OFFCURVE",
"127 1192 CURVE SMOOTH",
"127 941 OFFCURVE",
"288 863 OFFCURVE",
"485 798 CURVE SMOOTH",
"708 724 LINE SMOOTH",
"882 666 OFFCURVE",
"1003 591 OFFCURVE",
"1003 416 CURVE SMOOTH",
"1003 195 OFFCURVE",
"856 134 OFFCURVE",
"647 134 CURVE SMOOTH",
"446 134 OFFCURVE",
"255 230 OFFCURVE",
"199 268 CURVE",
"134 122 LINE",
"255 47 OFFCURVE",
"498 -18 OFFCURVE"
);
}
);
width = 1332;
},
{
anchors = (
{
name = bot;
position = "{736, 0}";
},
{
name = top;
position = "{709, 1578}";
}
);
layerId = "5F2F3E34-E24A-4A89-B41B-C326736566A0";
name = Bold;
paths = (
{
closed = 1;
nodes = (
"708 -20 CURVE SMOOTH",
"1159 -20 OFFCURVE",
"1278 242 OFFCURVE",
"1278 485 CURVE SMOOTH",
"1278 675 OFFCURVE",
"1242 835 OFFCURVE",
"932 946 CURVE SMOOTH",
"625 1056 LINE SMOOTH",
"563 1079 OFFCURVE",
"541 1125 OFFCURVE",
"545 1161 CURVE SMOOTH",
"554 1240 OFFCURVE",
"594 1269 OFFCURVE",
"710 1269 CURVE SMOOTH",
"826 1269 OFFCURVE",
"982 1227 OFFCURVE",
"1107 1181 CURVE",
"1107 1181 OFFCURVE",
"1228 1466 OFFCURVE",
"1228 1466 CURVE",
"1067 1547 OFFCURVE",
"860 1602 OFFCURVE",
"681 1602 CURVE SMOOTH",
"390 1602 OFFCURVE",
"139 1483 OFFCURVE",
"132 1164 CURVE SMOOTH",
"127 946 OFFCURVE",
"228 790 OFFCURVE",
"481 699 CURVE SMOOTH",
"765 597 LINE SMOOTH",
"877 557 OFFCURVE",
"904 509 OFFCURVE",
"888 430 CURVE SMOOTH",
"871 347 OFFCURVE",
"802 310 OFFCURVE",
"689 310 CURVE SMOOTH",
"544 310 OFFCURVE",
"364 369 OFFCURVE",
"254 435 CURVE",
"254 435 OFFCURVE",
"134 125 OFFCURVE",
"134 125 CURVE",
"321 24 OFFCURVE",
"515 -20 OFFCURVE"
);
}
);
width = 1369;
}
);
unicode = 0053;
userData = {
anchors = (
);
com.typemytype.robofont.guides = (
);
components = (
);
contours = (
);
name = S;
position = 1015;
unicodes = (
);
width = 1190;
};
},
{
glyphname = T;
lastChange = "2014-02-15 22:20:08 -0800";
layers = (
{
anchors = (
{
name = bot;
position = "{588, 0}";
},
{
name = mid;
position = "{598, 902}";
},
{
name = top;
position = "{591, 1620}";
}
);
layerId = "67845082-4271-4E32-8C80-EE8FB13E39CE";
name = Light;
paths = (
{
closed = 1;
nodes = (
"540 0 LINE",
"638 0 LINE",
"638 1544 LINE",
"1097 1544 LINE",
"1097 1620 LINE",
"28 1620 LINE",
"28 1544 LINE",
"540 1544 LINE"
);
}
);
width = 1124;
},
{
anchors = (
{
name = bot;
position = "{567, 0}";
},
{
name = mid;
position = "{580, 902}";
},
{
name = top;
position = "{582, 1578}";
}
);
layerId = "B5E80BC0-A253-4265-9E84-E8FF94ED18F5";
name = Regular;
paths = (
{
closed = 1;
nodes = (
"471 0 LINE",
"661 0 LINE",
"661 1436 LINE",
"1119 1436 LINE",
"1119 1579 LINE",
"11 1579 LINE",
"11 1436 LINE",
"471 1436 LINE"
);
}
);
width = 1116;
},
{
anchors = (
{
name = bot;
position = "{599, 0}";
},
{
name = mid;
position = "{598, 842}";
},
{
name = top;
position = "{612, 1578}";
}
);
layerId = "5F2F3E34-E24A-4A89-B41B-C326736566A0";
name = Bold;
paths = (
{
closed = 1;
nodes = (
"367 0 LINE",
"806 0 LINE",
"806 1261 LINE",
"1186 1261 LINE",
"1186 1578 LINE",
"-22 1578 LINE",
"-22 1261 LINE",
"367 1261 LINE"
);
}
);
width = 1165;
}
);
unicode = 0054;
userData = {
anchors = (
);
com.typemytype.robofont.layerData = {
b = {
anchors = (
);
components = (
);
contours = (
);
lib = {
};
name = T;
unicodes = (
);
width = 1124;
};
};
components = (
);
contours = (
);
name = T;
position = 515;
unicodes = (
);
width = 1125;
};
},
{
glyphname = U;
lastChange = "2014-02-15 22:20:08 -0800";
layers = (
{
anchors = (
{
name = ogonek;
position = "{796, 0}";
},
{
name = top;
position = "{721, 1620}";
}
);
layerId = "67845082-4271-4E32-8C80-EE8FB13E39CE";
name = Light;
paths = (
{
closed = 1;
nodes = (
"711 -18 CURVE SMOOTH",
"1158 -18 OFFCURVE",
"1302 161 OFFCURVE",
"1302 719 CURVE SMOOTH",
"1302 1620 LINE",
"1204 1620 LINE",
"1204 715 LINE SMOOTH",
"1204 224 OFFCURVE",
"1084 66 OFFCURVE",
"711 66 CURVE SMOOTH",
"338 66 OFFCURVE",
"218 224 OFFCURVE",
"218 715 CURVE SMOOTH",
"218 1620 LINE",
"120 1620 LINE",
"120 719 LINE SMOOTH",
"120 161 OFFCURVE",
"264 -18 OFFCURVE"
);
}
);
width = 1422;
},
{
anchors = (
{
name = bot;
position = "{787, 0}";
},
{
name = ogonek;
position = "{887, 0}";
},
{
name = top;
position = "{802, 1578}";
}
);
layerId = "B5E80BC0-A253-4265-9E84-E8FF94ED18F5";
name = Regular;
paths = (
{
closed = 1;
nodes = (
"784 -18 CURVE SMOOTH",
"1274 -18 OFFCURVE",
"1402 268 OFFCURVE",
"1402 724 CURVE SMOOTH",
"1402 1579 LINE",
"1206 1579 LINE",
"1206 720 LINE SMOOTH",
"1206 384 OFFCURVE",
"1175 123 OFFCURVE",
"784 123 CURVE SMOOTH",
"395 123 OFFCURVE",
"360 382 OFFCURVE",
"360 720 CURVE SMOOTH",
"360 1579 LINE",
"168 1579 LINE",
"168 724 LINE SMOOTH",
"168 267 OFFCURVE",
"298 -18 OFFCURVE"
);
}
);
width = 1572;
},
{
anchors = (
{
name = ogonek;
position = "{884, 0}";
},
{
name = top;
position = "{834, 1578}";
}
);
layerId = "5F2F3E34-E24A-4A89-B41B-C326736566A0";
name = Bold;
paths = (
{
closed = 1;
nodes = (
"824 -22 CURVE SMOOTH",
"1348 -22 OFFCURVE",
"1516 191 OFFCURVE",
"1516 733 CURVE SMOOTH",
"1516 1578 LINE",
"1080 1578 LINE",
"1080 713 LINE SMOOTH",
"1080 379 OFFCURVE",
"1018 292 OFFCURVE",
"824 292 CURVE SMOOTH",
"639 292 OFFCURVE",
"579 379 OFFCURVE",
"579 713 CURVE SMOOTH",
"579 1578 LINE",
"142 1578 LINE",
"142 733 LINE SMOOTH",
"142 191 OFFCURVE",
"308 -22 OFFCURVE"
);
}
);
width = 1658;
}
);
unicode = 0055;
userData = {
anchors = (
);
components = (
);
contours = (
);
name = U;
position = 1197;
unicodes = (
);
width = 1421;
};
},
{
glyphname = V;
lastChange = "2014-02-15 22:20:08 -0800";
layers = (
{
layerId = "67845082-4271-4E32-8C80-EE8FB13E39CE";
name = Light;
paths = (
{
closed = 1;
nodes = (
"569 0 LINE",
"705 0 LINE",
"1263 1620 LINE",
"1167 1620 LINE",
"633 80 LINE",
"122 1620 LINE",
"26 1620 LINE"
);
}
);
width = 1289;
},
{
layerId = "B5E80BC0-A253-4265-9E84-E8FF94ED18F5";
name = Regular;
paths = (
{
closed = 1;
nodes = (
"499 0 LINE",
"743 0 LINE",
"1237 1579 LINE",
"1048 1579 LINE",
"621 140 LINE",
"194 1579 LINE",
"3 1579 LINE"
);
}
);
width = 1248;
},
{
layerId = "5F2F3E34-E24A-4A89-B41B-C326736566A0";
name = Bold;
paths = (
{
closed = 1;
nodes = (
"616 0 LINE",
"1028 0 LINE",
"1599 1578 LINE",
"1179 1578 LINE",
"822 509 LINE",
"464 1578 LINE",
"44 1578 LINE"
);
}
);
width = 1643;
}
);
unicode = 0056;
userData = {
anchors = (
);
components = (
);
contours = (
);
name = V;
position = 1560;
unicodes = (
);
width = 1239;
};
},
{
glyphname = W;
lastChange = "2014-02-15 22:20:08 -0800";
layers = (
{
anchors = (
{
name = top;
position = "{1011, 1620}";
}
);
layerId = "67845082-4271-4E32-8C80-EE8FB13E39CE";
name = Light;
paths = (
{
closed = 1;
nodes = (
"484 0 LINE",
"611 0 LINE",
"1009 1399 LINE",
"1406 0 LINE",
"1533 0 LINE",
"1990 1620 LINE",
"1893 1620 LINE",
"1468 88 LINE",
"1064 1508 LINE",
"953 1508 LINE",
"549 88 LINE",
"124 1620 LINE",
"27 1620 LINE"
);
}
);
width = 2030;
},
{
anchors = (
{
name = bot;
position = "{917, 0}";
},
{
name = top;
position = "{932, 1578}";
}
);
layerId = "B5E80BC0-A253-4265-9E84-E8FF94ED18F5";
name = Regular;
paths = (
{
closed = 1;
nodes = (
"340 0 LINE",
"607 0 LINE",
"928 1333 LINE",
"1235 0 LINE",
"1501 0 LINE",
"1897 1579 LINE",
"1717 1579 LINE",
"1367 175 LINE",
"1065 1489 LINE",
"791 1489 LINE",
"475 175 LINE",
"125 1579 LINE",
"-51 1579 LINE"
);
}
);
width = 1848;
},
{
anchors = (
{
name = top;
position = "{1105, 1578}";
}
);
layerId = "5F2F3E34-E24A-4A89-B41B-C326736566A0";
name = Bold;
paths = (
{
closed = 1;
nodes = (
"395 0 LINE",
"835 0 LINE",
"1094 973 LINE",
"1330 0 LINE",
"1778 0 LINE",
"2114 1578 LINE",
"1710 1578 LINE",
"1526 558 LINE",
"1294 1469 LINE",
"894 1469 LINE",
"649 558 LINE",
"478 1578 LINE",
"74 1578 LINE"
);
}
);
width = 2188;
}
);
unicode = 0057;
userData = {
anchors = (
);
components = (
);
contours = (
);
name = W;
position = 1560;
unicodes = (
);
width = 1958;
};
},
{
glyphname = X;
lastChange = "2014-02-15 22:20:08 -0800";
layers = (
{
layerId = "67845082-4271-4E32-8C80-EE8FB13E39CE";
name = Light;
paths = (
{
closed = 1;
nodes = (
"82 0 LINE",
"182 0 LINE",
"652.542 732.827 LINE",
"1104 0 LINE",
"1208 0 LINE",
"707.452 808.462 LINE",
"1208 1620 LINE",
"1120 1620 LINE",
"659.124 886.52 LINE",
"205 1620 LINE",
"106 1620 LINE",
"604.951 810.08 LINE"
);
}
);
width = 1305;
},
{
layerId = "B5E80BC0-A253-4265-9E84-E8FF94ED18F5";
name = Regular;
paths = (
{
closed = 1;
nodes = (
"44 0 LINE",
"262 0 LINE",
"391 217 OFFCURVE",
"520 434 OFFCURVE",
"650 650 CURVE",
"1038 0 LINE",
"1256 0 LINE",
"759 800 LINE",
"1254 1579 LINE",
"1058 1579 LINE",
"650 947 LINE",
"242 1579 LINE",
"46 1579 LINE",
"541 800 LINE"
);
}
);
width = 1308;
},
{
layerId = "5F2F3E34-E24A-4A89-B41B-C326736566A0";
name = Bold;
paths = (
{
closed = 1;
nodes = (
"32 0 LINE",
"459 0 LINE",
"744 457 LINE",
"1017 0 LINE",
"1475 0 LINE",
"995 792 LINE",
"1475 1578 LINE",
"1050 1578 LINE",
"772 1100 LINE",
"487 1578 LINE",
"32 1578 LINE",
"510 796 LINE"
);
}
);
width = 1507;
}
);
unicode = 0058;
userData = {
anchors = (
);
components = (
);
contours = (
);
name = X;
position = 1560;
unicodes = (
);
width = 1306;
};
},
{
glyphname = Y;
lastChange = "2014-02-15 22:20:08 -0800";
layers = (
{
anchors = (
{
name = top;
position = "{641, 1620}";
}
);
layerId = "67845082-4271-4E32-8C80-EE8FB13E39CE";
name = Light;
paths = (
{
closed = 1;
nodes = (
"580 0 LINE",
"678 0 LINE",
"678 618 LINE",
"1203 1620 LINE",
"1102 1620 LINE",
"633 715 LINE",
"166 1620 LINE",
"61 1620 LINE",
"580 618 LINE"
);
}
);
width = 1259;
},
{
anchors = (
{
name = bot;
position = "{587, 0}";
},
{
name = top;
position = "{602, 1578}";
}
);
layerId = "B5E80BC0-A253-4265-9E84-E8FF94ED18F5";
name = Regular;
paths = (
{
closed = 1;
nodes = (
"485 0 LINE",
"675 0 LINE",
"675 557 LINE",
"1189 1579 LINE",
"998 1579 LINE",
"580 748 LINE",
"168 1579 LINE",
"-24 1579 LINE",
"485 557 LINE"
);
}
);
width = 1164;
},
{
anchors = (
{
name = top;
position = "{729, 1578}";
}
);
layerId = "5F2F3E34-E24A-4A89-B41B-C326736566A0";
name = Bold;
paths = (
{
closed = 1;
nodes = (
"497 0 LINE",
"923 0 LINE",
"923 583 LINE",
"1428 1578 LINE",
"1000 1578 LINE",
"720 997 LINE",
"444 1578 LINE",
"8 1578 LINE",
"497 583 LINE"
);
}
);
width = 1436;
}
);
unicode = 0059;
userData = {
anchors = (
);
components = (
);
contours = (
);
name = Y;
position = 578;
unicodes = (
);
width = 1260;
};
},
{
glyphname = Z;
lastChange = "2014-02-15 22:20:08 -0800";
layers = (
{
anchors = (
{
name = top;
position = "{641, 1620}";
}
);
layerId = "67845082-4271-4E32-8C80-EE8FB13E39CE";
name = Light;
paths = (
{
closed = 1;
nodes = (
"142 0 LINE",
"1100 0 LINE",
"1100 80 LINE",
"251 80 LINE",
"1098 1544 LINE",
"1098 1620 LINE",
"142 1620 LINE",
"142 1540 LINE",
"992 1540 LINE",
"142 79 LINE"
);
}
);
width = 1186;
},
{
anchors = (
{
name = bot;
position = "{647, 0}";
},
{
name = top;
position = "{662, 1578}";
}
);
layerId = "B5E80BC0-A253-4265-9E84-E8FF94ED18F5";
name = Regular;
paths = (
{
closed = 1;
nodes = (
"113 0 LINE",
"1124 0 LINE",
"1124 143 LINE",
"310 143 LINE",
"1122 1419 LINE",
"1122 1579 LINE",
"113 1579 LINE",
"113 1447 LINE",
"921 1447 LINE",
"113 180 LINE"
);
}
);
width = 1224;
},
{
anchors = (
{
name = top;
position = "{612, 1578}";
}
);
layerId = "5F2F3E34-E24A-4A89-B41B-C326736566A0";
name = Bold;
paths = (
{
closed = 1;
nodes = (
"31 0 LINE",
"1180 0 LINE",
"1180 316 LINE",
"507 316 LINE",
"1178 1329 LINE",
"1178 1578 LINE",
"31 1578 LINE",
"31 1257 LINE",
"680 1257 LINE",
"31 278 LINE"
);
}
);
width = 1245;
}
);
unicode = 005A;
userData = {
anchors = (
);
components = (
);
contours = (
);
name = Z;
position = 1520;
unicodes = (
);
width = 1176;
};
},
{
glyphname = bracketleft;
lastChange = "2014-02-15 23:35:28 -0800";
layers = (
{
layerId = "67845082-4271-4E32-8C80-EE8FB13E39CE";
name = Light;
paths = (
{
closed = 1;
nodes = (
"160 -190 LINE",
"778 -190 LINE",
"778 -111 LINE",
"258 -111 LINE",
"258 1620 LINE",
"778 1620 LINE",
"778 1700 LINE",
"160 1700 LINE"
);
}
);
width = 838;
},
{
layerId = "B5E80BC0-A253-4265-9E84-E8FF94ED18F5";
name = Regular;
paths = (
{
closed = 1;
nodes = (
"182 -200 LINE",
"847 -200 LINE",
"847 -57 LINE",
"376 -57 LINE",
"376 1578 LINE",
"847 1578 LINE",
"847 1721 LINE",
"182 1721 LINE"
);
}
);
width = 947;
},
{
layerId = "5F2F3E34-E24A-4A89-B41B-C326736566A0";
name = Bold;
paths = (
{
closed = 1;
nodes = (
"176 -122 LINE",
"959 -122 LINE",
"959 86 LINE",
"562 86 LINE",
"562 1578 LINE",
"959 1578 LINE",
"959 1786 LINE",
"176 1786 LINE"
);
}
);
width = 1059;
}
);
unicode = 005B;
userData = {
position = 63;
width = 119;
};
},
{
glyphname = backslash;
lastChange = "2014-02-15 22:20:08 -0800";
layers = (
{
layerId = "67845082-4271-4E32-8C80-EE8FB13E39CE";
name = Light;
paths = (
{
closed = 1;
nodes = (
"508 -185 LINE",
"582 -156 LINE",
"-69 1755 LINE",
"-140 1733 LINE"
);
}
);
width = 463;
},
{
layerId = "B5E80BC0-A253-4265-9E84-E8FF94ED18F5";
name = Regular;
paths = (
{
closed = 1;
nodes = (
"693 -172 LINE",
"853 -114 LINE",
"230 1731 LINE",
"72 1679 LINE"
);
}
);
width = 972;
},
{
layerId = "5F2F3E34-E24A-4A89-B41B-C326736566A0";
name = Bold;
paths = (
{
closed = 1;
nodes = (
"796 -137 LINE",
"1178 -6 LINE",
"627 1670 LINE",
"243 1539 LINE"
);
}
);
width = 1362;
}
);
unicode = 005C;
},
{
glyphname = bracketright;
lastChange = "2014-02-15 23:35:56 -0800";
layers = (
{
layerId = "67845082-4271-4E32-8C80-EE8FB13E39CE";
name = Light;
paths = (
{
closed = 1;
nodes = (
"50 -190 LINE",
"668 -190 LINE",
"668 1700 LINE",
"50 1700 LINE",
"50 1620 LINE",
"570 1620 LINE",
"570 -111 LINE",
"50 -111 LINE"
);
}
);
width = 828;
},
{
layerId = "B5E80BC0-A253-4265-9E84-E8FF94ED18F5";
name = Regular;
paths = (
{
closed = 1;
nodes = (
"100 -200 LINE",
"765 -200 LINE",
"765 1721 LINE",
"100 1721 LINE",
"100 1578 LINE",
"571 1578 LINE",
"571 -57 LINE",
"100 -57 LINE"
);
}
);
width = 947;
},
{
layerId = "5F2F3E34-E24A-4A89-B41B-C326736566A0";
name = Bold;
paths = (
{
closed = 1;
nodes = (
"100 -122 LINE",
"883 -122 LINE",
"883 1786 LINE",
"100 1786 LINE",
"100 1578 LINE",
"497 1578 LINE",
"497 86 LINE",
"100 86 LINE"
);
}
);
width = 1059;
}
);
unicode = 005D;
userData = {
position = 556;
width = 117;
};
},
{
glyphname = asciicircum;
lastChange = "2014-02-15 22:20:08 -0800";
layers = (
{
layerId = "67845082-4271-4E32-8C80-EE8FB13E39CE";
name = Light;
paths = (
{
closed = 1;
nodes = (
"86 700 LINE",
"177 700 LINE",
"512 1476 LINE",
"848 700 LINE",
"938 700 LINE",
"537 1620 LINE",
"486 1620 LINE"
);
}
);
width = 1024;
},
{
layerId = "B5E80BC0-A253-4265-9E84-E8FF94ED18F5";
name = Regular;
paths = (
{
closed = 1;
nodes = (
"125 510 LINE",
"253 432 LINE",
"465 809 LINE",
"677 432 LINE",
"805 510 LINE",
"513 1011 LINE",
"417 1011 LINE"
);
}
);
width = 936;
},
{
layerId = "5F2F3E34-E24A-4A89-B41B-C326736566A0";
name = Bold;
paths = (
{
closed = 1;
nodes = (
"80 599 LINE",
"408 599 LINE",
"681 1231 LINE",
"954 599 LINE",
"1285 599 LINE",
"840 1578 LINE",
"525 1578 LINE"
);
}
);
width = 1365;
}
);
unicode = 005E;
userData = {
position = 28;
width = 632;
};
},
{
glyphname = underscore;
lastChange = "2014-02-15 22:20:08 -0800";
layers = (
{
layerId = "67845082-4271-4E32-8C80-EE8FB13E39CE";
name = Light;
paths = (
{
closed = 1;
nodes = (
"153 -118 LINE",
"1063 -118 LINE",
"1063 -37 LINE",
"153 -37 LINE"
);
}
);
width = 1217;
},
{
layerId = "B5E80BC0-A253-4265-9E84-E8FF94ED18F5";
name = Regular;
paths = (
{
closed = 1;
nodes = (
"118 -111 LINE",
"1058 -111 LINE",
"1058 33 LINE",
"118 33 LINE"
);
}
);
width = 1176;
},
{
layerId = "5F2F3E34-E24A-4A89-B41B-C326736566A0";
name = Bold;
paths = (
{
closed = 1;
nodes = (
"45 -93 LINE",
"1063 -93 LINE",
"1063 215 LINE",
"45 215 LINE"
);
}
);
width = 1108;
}
);
unicode = 005F;
userData = {
position = "-118";
width = 81;
};
},
{
glyphname = grave;
lastChange = "2014-02-15 22:20:08 -0800";
layers = (
{
anchors = (
{
name = _top;
position = "{334, 1172}";
}
);
layerId = "67845082-4271-4E32-8C80-EE8FB13E39CE";
name = Light;
paths = (
{
closed = 1;
nodes = (
"409 1324 LINE",
"430 1358 LINE",
"42 1613 LINE",
"0 1540 LINE"
);
}
);
width = 438;
},
{
anchors = (
{
name = _top;
position = "{578, 1168}";
}
);
layerId = "B5E80BC0-A253-4265-9E84-E8FF94ED18F5";
name = Regular;
paths = (
{
closed = 1;
nodes = (
"574 1373 LINE",
"613 1421 LINE",
"199 1833 LINE",
"68 1696 LINE"
);
}
);
width = 804;
},
{
anchors = (
{
name = _top;
position = "{533, 1162}";
}
);
layerId = "5F2F3E34-E24A-4A89-B41B-C326736566A0";
name = Bold;
paths = (
{
closed = 1;
nodes = (
"565 1345 LINE",
"699 1514 LINE",
"191 1958 LINE",
"-18 1684 LINE"
);
}
);
width = 1029;
}
);
unicode = 0060;
userData = {
position = "-10";
width = 447;
};
},
{
glyphname = a;
lastChange = "2014-02-15 22:20:08 -0800";
layers = (
{
anchors = (
{
name = ogonek;
position = "{969, 0}";
},
{
name = top;
position = "{561, 1172}";
}
);
layerId = "67845082-4271-4E32-8C80-EE8FB13E39CE";
name = Light;
paths = (
{
closed = 1;
nodes = (
"483 -18 CURVE SMOOTH",
"664 -18 OFFCURVE",
"799 56 OFFCURVE",
"913 192 CURVE",
"933 0 LINE",
"1001 0 LINE",
"1001 728 LINE SMOOTH",
"1001 1093 OFFCURVE",
"790 1190 OFFCURVE",
"573 1190 CURVE SMOOTH",
"406 1190 OFFCURVE",
"235 1128 OFFCURVE",
"152 1080 CURVE",
"183 1005 LINE",
"254 1042 OFFCURVE",
"418 1110 OFFCURVE",
"571 1110 CURVE SMOOTH",
"745 1110 OFFCURVE",
"905 1031 OFFCURVE",
"905 726 CURVE SMOOTH",
"905 642 LINE",
"812 676 OFFCURVE",
"658 688 OFFCURVE",
"552 688 CURVE SMOOTH",
"239 688 OFFCURVE",
"88 568 OFFCURVE",
"92 329 CURVE SMOOTH",
"96 82 OFFCURVE",
"274 -18 OFFCURVE"
);
},
{
closed = 1;
nodes = (
"494 62 CURVE SMOOTH",
"356 62 OFFCURVE",
"194 118 OFFCURVE",
"190 334 CURVE SMOOTH",
"186 552 OFFCURVE",
"345 613 OFFCURVE",
"559 613 CURVE SMOOTH",
"677 613 OFFCURVE",
"790 608 OFFCURVE",
"905 576 CURVE",
"905 259 LINE",
"790 131 OFFCURVE",
"675 62 OFFCURVE"
);
}
);
width = 1140;
},
{
anchors = (
{
name = ogonek;
position = "{982, 0}";
},
{
name = top;
position = "{574, 1168}";
}
);
layerId = "B5E80BC0-A253-4265-9E84-E8FF94ED18F5";
name = Regular;
paths = (
{
closed = 1;
nodes = (
"480 -18 CURVE SMOOTH",
"647 -18 OFFCURVE",
"777 44 OFFCURVE",
"875 178 CURVE",
"903 0 LINE",
"1043 0 LINE",
"1043 686 LINE SMOOTH",
"1043 1039 OFFCURVE",
"948 1186 OFFCURVE",
"577 1186 CURVE SMOOTH",
"380 1186 OFFCURVE",
"224 1135 OFFCURVE",
"148 1099 CURVE",
"199 964 LINE",
"258 983 OFFCURVE",
"372 1044 OFFCURVE",
"590 1044 CURVE SMOOTH",
"834 1044 OFFCURVE",
"853 921 OFFCURVE",
"853 713 CURVE SMOOTH",
"853 671 LINE",
"778 690 OFFCURVE",
"660 706 OFFCURVE",
"552 706 CURVE SMOOTH",
"290 706 OFFCURVE",
"89 603 OFFCURVE",
"89 343 CURVE SMOOTH",
"89 109 OFFCURVE",
"241 -18 OFFCURVE"
);
},
{
closed = 1;
nodes = (
"524 118 CURVE SMOOTH",
"369 118 OFFCURVE",
"280 193 OFFCURVE",
"280 356 CURVE SMOOTH",
"280 546 OFFCURVE",
"429 581 OFFCURVE",
"601 581 CURVE SMOOTH",
"739 581 OFFCURVE",
"810 564 OFFCURVE",
"853 554 CURVE",
"853 274 LINE",
"761 188 OFFCURVE",
"653 118 OFFCURVE"
);
}
);
width = 1190;
},
{
anchors = (
{
name = ogonek;
position = "{980, 0}";
},
{
name = top;
position = "{655, 1162}";
}
);
layerId = "5F2F3E34-E24A-4A89-B41B-C326736566A0";
name = Bold;
paths = (
{
closed = 1;
nodes = (
"477 -18 CURVE SMOOTH",
"657 -18 OFFCURVE",
"744 99 OFFCURVE",
"768 175 CURVE",
"834 0 LINE",
"1155 0 LINE",
"1155 680 LINE SMOOTH",
"1155 1026 OFFCURVE",
"989 1180 OFFCURVE",
"657 1180 CURVE SMOOTH",
"517 1180 OFFCURVE",
"338 1151 OFFCURVE",
"147 1085 CURVE",
"218 832 LINE",
"363 889 OFFCURVE",
"477 909 OFFCURVE",
"557 909 CURVE SMOOTH",
"698 909 OFFCURVE",
"746 843 OFFCURVE",
"746 725 CURVE SMOOTH",
"746 678 LINE",
"681 696 OFFCURVE",
"598 702 OFFCURVE",
"528 702 CURVE SMOOTH",
"331 702 OFFCURVE",
"84 636 OFFCURVE",
"78 360 CURVE SMOOTH",
"72 99 OFFCURVE",
"234 -18 OFFCURVE"
);
},
{
closed = 1;
nodes = (
"545 225 CURVE SMOOTH",
"463 231 OFFCURVE",
"429 287 OFFCURVE",
"423 359 CURVE SMOOTH",
"414 474 OFFCURVE",
"510 506 OFFCURVE",
"609 506 CURVE SMOOTH",
"644 506 OFFCURVE",
"712 501 OFFCURVE",
"746 494 CURVE",
"746 300 LINE",
"689 253 OFFCURVE",
"630 219 OFFCURVE"
);
}
);
width = 1289;
}
);
unicode = 0061;
userData = {
anchors = (
);
com.typemytype.robofont.layerData = {
b = {
anchors = (
);
components = (
);
contours = (
{
points = (
{
segmentType = line;
smooth = 0;
x = 1001;
y = 0;
},
{
segmentType = line;
smooth = 1;
x = 1001;
y = 681;
},
{
smooth = 0;
x = 1001;
y = 1047;
},
{
smooth = 0;
x = 908;
y = 1188;
},
{
segmentType = curve;
smooth = 1;
x = 569;
y = 1188;
},
{
smooth = 0;
x = 325;
y = 1188;
},
{
smooth = 0;
x = 189;
y = 1110;
},
{
segmentType = curve;
smooth = 0;
x = 152;
y = 1087;
},
{
segmentType = line;
smooth = 0;
x = 183;
y = 1012;
},
{
smooth = 0;
x = 220;
y = 1030;
},
{
smooth = 0;
x = 342;
y = 1108;
},
{
segmentType = curve;
smooth = 1;
x = 578;
y = 1108;
},
{
smooth = 0;
x = 865;
y = 1108;
},
{
smooth = 0;
x = 905;
y = 962;
},
{
segmentType = curve;
smooth = 1;
x = 905;
y = 691;
},
{
segmentType = line;
smooth = 0;
x = 905;
y = 646;
},
{
smooth = 0;
x = 812;
y = 680;
},
{
smooth = 0;
x = 658;
y = 698;
},
{
segmentType = curve;
smooth = 1;
x = 552;
y = 698;
},
{
smooth = 0;
x = 239;
y = 698;
},
{
smooth = 0;
x = 92;
y = 567;
},
{
segmentType = curve;
smooth = 1;
x = 92;
y = 328;
},
{
smooth = 0;
x = 92;
y = 81;
},
{
smooth = 0;
x = 274;
y = "-16";
},
{
segmentType = curve;
smooth = 1;
x = 483;
y = "-16";
},
{
smooth = 0;
x = 664;
y = "-16";
},
{
smooth = 0;
x = 799;
y = 56;
},
{
segmentType = curve;
smooth = 0;
x = 913;
y = 192;
},
{
segmentType = line;
smooth = 0;
x = 933;
y = 0;
}
);
},
{
points = (
{
segmentType = curve;
smooth = 1;
x = 494;
y = 62;
},
{
smooth = 0;
x = 356;
y = 62;
},
{
smooth = 0;
x = 190;
y = 121;
},
{
segmentType = curve;
smooth = 1;
x = 190;
y = 337;
},
{
smooth = 0;
x = 190;
y = 555;
},
{
smooth = 0;
x = 345;
y = 623;
},
{
segmentType = curve;
smooth = 1;
x = 559;
y = 623;
},
{
smooth = 0;
x = 677;
y = 623;
},
{
smooth = 0;
x = 790;
y = 612;
},
{
segmentType = curve;
smooth = 0;
x = 905;
y = 580;
},
{
segmentType = line;
smooth = 0;
x = 905;
y = 259;
},
{
smooth = 0;
x = 790;
y = 131;
},
{
smooth = 0;
x = 675;
y = 62;
}
);
}
);
lib = {
};
name = a;
unicodes = (
);
width = 1140;
};
};
components = (
);
contours = (
);
name = a;
points = (
);
position = 966;
segmentType = line;
unicodes = (
);
width = 1172;
x = 702;
y = 65;
};
},
{
glyphname = b;
lastChange = "2014-02-15 22:20:08 -0800";
layers = (
{
anchors = (
{
name = top;
position = "{631, 1172}";
}
);
layerId = "67845082-4271-4E32-8C80-EE8FB13E39CE";
name = Light;
paths = (
{
closed = 1;
nodes = (
"604 -18 CURVE SMOOTH",
"964 -18 OFFCURVE",
"1101 295 OFFCURVE",
"1101 587 CURVE SMOOTH",
"1101 895 OFFCURVE",
"953 1190 OFFCURVE",
"610 1190 CURVE SMOOTH",
"463.497 1190 OFFCURVE",
"330.31 1119.92 OFFCURVE",
"244.468 1000.87 CURVE",
"244 1660 LINE",
"146 1638 LINE",
"146 0 LINE",
"231 0 LINE",
"239.712 156.808 LINE",
"323.965 44.0163 OFFCURVE",
"449.535 -18 OFFCURVE"
);
},
{
closed = 1;
nodes = (
"597 61.9999 CURVE SMOOTH",
"452.64 61.9999 OFFCURVE",
"327.756 121.883 OFFCURVE",
"244.468 242.81 CURVE",
"244.537 903.9 LINE",
"338.286 1043.19 OFFCURVE",
"461.193 1110 OFFCURVE",
"612 1110 CURVE SMOOTH",
"933 1110 OFFCURVE",
"1003 796 OFFCURVE",
"1003 579 CURVE SMOOTH",
"1003 345 OFFCURVE",
"916 61.9999 OFFCURVE"
);
}
);
width = 1219;
},
{
anchors = (
{
name = bot;
position = "{698, 0}";
},
{
name = top;
position = "{700, 1168}";
}
);
layerId = "B5E80BC0-A253-4265-9E84-E8FF94ED18F5";
name = Regular;
paths = (
{
closed = 1;
nodes = (
"686 -18 CURVE SMOOTH",
"1031 -18 OFFCURVE",
"1184 277 OFFCURVE",
"1184 580 CURVE SMOOTH",
"1184 926 OFFCURVE",
"1027 1186 OFFCURVE",
"712 1186 CURVE SMOOTH",
"558.627 1186 OFFCURVE",
"435.845 1126.89 OFFCURVE",
"350 1041.16 CURVE",
"350 1614 LINE",
"160 1579 LINE",
"160 0 LINE",
"300 0 LINE",
"327.054 145.011 LINE",
"400.585 60.4476 OFFCURVE",
"513.931 -18 OFFCURVE"
);
},
{
closed = 1;
nodes = (
"693 119 CURVE SMOOTH",
"525.618 119 OFFCURVE",
"426.357 175.767 OFFCURVE",
"349.617 265.946 CURVE",
"350 912.82 LINE",
"438.02 990.6 OFFCURVE",
"552.187 1043 OFFCURVE",
"680 1043 CURVE SMOOTH",
"891 1043 OFFCURVE",
"1002 884 OFFCURVE",
"1002 584 CURVE SMOOTH",
"1002 370 OFFCURVE",
"940 119 OFFCURVE"
);
}
);
width = 1278;
},
{
anchors = (
{
name = top;
position = "{854, 1162}";
}
);
layerId = "5F2F3E34-E24A-4A89-B41B-C326736566A0";
name = Bold;
paths = (
{
closed = 1;
nodes = (
"851 -18 CURVE SMOOTH",
"1097 -18 OFFCURVE",
"1344 166 OFFCURVE",
"1344 588 CURVE SMOOTH",
"1344 982 OFFCURVE",
"1158 1180 OFFCURVE",
"901 1180 CURVE SMOOTH",
"778.18 1180 OFFCURVE",
"662.476 1148.15 OFFCURVE",
"560 1075.38 CURVE",
"560 1647 LINE",
"146 1578 LINE",
"146 0 LINE",
"432 0 LINE",
"488.823 133.623 LINE",
"581.896 49.1057 OFFCURVE",
"704.845 -18 OFFCURVE"
);
},
{
closed = 1;
nodes = (
"724 232 CURVE SMOOTH",
"668.419 232 OFFCURVE",
"612.43 258.75 OFFCURVE",
"560 302.098 CURVE",
"560 848.631 LINE",
"634.538 909.884 OFFCURVE",
"696.299 928 OFFCURVE",
"760 928 CURVE SMOOTH",
"861 928 OFFCURVE",
"932 852 OFFCURVE",
"932 585 CURVE SMOOTH",
"932 303 OFFCURVE",
"816 232 OFFCURVE"
);
}
);
width = 1426;
}
);
unicode = 0062;
userData = {
anchors = (
);
com.typemytype.robofont.layerData = {
b = {
anchors = (
);
components = (
);
contours = (
{
points = (
{
segmentType = curve;
smooth = 1;
x = 587;
y = "-16";
},
{
smooth = 0;
x = 942;
y = "-16";
},
{
smooth = 0;
x = 1101;
y = 266;
},
{
segmentType = curve;
smooth = 1;
x = 1101;
y = 582;
},
{
smooth = 0;
x = 1101;
y = 892;
},
{
smooth = 0;
x = 944;
y = 1188;
},
{
segmentType = curve;
smooth = 1;
x = 587;
y = 1188;
},
{
smooth = 0;
x = 230;
y = 1188;
},
{
smooth = 0;
x = 73;
y = 892;
},
{
segmentType = curve;
smooth = 1;
x = 73;
y = 582;
},
{
smooth = 0;
x = 73;
y = 266;
},
{
smooth = 0;
x = 232;
y = "-16";
}
);
},
{
points = (
{
segmentType = curve;
smooth = 1;
x = 587;
y = 64;
},
{
smooth = 0;
x = 283;
y = 64;
},
{
smooth = 0;
x = 171;
y = 315;
},
{
segmentType = curve;
smooth = 1;
x = 171;
y = 582;
},
{
smooth = 0;
x = 171;
y = 804;
},
{
smooth = 0;
x = 258;
y = 1108;
},
{
segmentType = curve;
smooth = 1;
x = 587;
y = 1108;
},
{
smooth = 0;
x = 920;
y = 1108;
},
{
smooth = 0;
x = 1003;
y = 804;
},
{
segmentType = curve;
smooth = 1;
x = 1003;
y = 582;
},
{
smooth = 0;
x = 1003;
y = 315;
},
{
smooth = 0;
x = 895;
y = 64;
}
);
}
);
lib = {
};
name = b;
unicodes = (
);
width = 1219;
};
};
components = (
);
contours = (
);
name = b;
points = (
);
position = 1009;
segmentType = curve;
unicodes = (
);
width = 1225;
x = 607;
y = 1101;
};
},
{
glyphname = c;
lastChange = "2014-02-15 22:20:08 -0800";
layers = (
{
anchors = (
{
name = bot;
position = "{627, 0}";
},
{
name = top;
position = "{631, 1172}";
}
);
layerId = "67845082-4271-4E32-8C80-EE8FB13E39CE";
name = Light;
paths = (
{
closed = 1;
nodes = (
"630 -18 CURVE SMOOTH",
"773 -18 OFFCURVE",
"907 38 OFFCURVE",
"998 124 CURVE",
"961 189 LINE",
"884 119 OFFCURVE",
"783 62 OFFCURVE",
"637 62 CURVE SMOOTH",
"363 62 OFFCURVE",
"216 306 OFFCURVE",
"216 585 CURVE SMOOTH",
"216 844 OFFCURVE",
"339 1102 OFFCURVE",
"618 1110 CURVE SMOOTH",
"752 1114 OFFCURVE",
"874 1064 OFFCURVE",
"956 987 CURVE",
"1000 1046 LINE",
"897 1150 OFFCURVE",
"745 1193 OFFCURVE",
"618 1190 CURVE SMOOTH",
"290 1182 OFFCURVE",
"118 894 OFFCURVE",
"118 585 CURVE SMOOTH",
"118 281 OFFCURVE",
"289 -18 OFFCURVE"
);
}
);
width = 1086;
},
{
anchors = (
{
name = bot;
position = "{628, 0}";
},
{
name = top;
position = "{587, 1168}";
}
);
layerId = "B5E80BC0-A253-4265-9E84-E8FF94ED18F5";
name = Regular;
paths = (
{
closed = 1;
nodes = (
"646 -18 CURVE SMOOTH",
"773 -18 OFFCURVE",
"887 24 OFFCURVE",
"990 111 CURVE",
"930 231 LINE",
"853 168 OFFCURVE",
"759 119 OFFCURVE",
"651 119 CURVE SMOOTH",
"389 119 OFFCURVE",
"282 353 OFFCURVE",
"282 580 CURVE SMOOTH",
"282 810 OFFCURVE",
"376 1045 OFFCURVE",
"631 1045 CURVE SMOOTH",
"741 1045 OFFCURVE",
"850 1009 OFFCURVE",
"933 933 CURVE",
"990 1057 LINE",
"882 1145 OFFCURVE",
"760 1186 OFFCURVE",
"626 1186 CURVE SMOOTH",
"282 1186 OFFCURVE",
"94 911 OFFCURVE",
"94 584 CURVE SMOOTH",
"94 255 OFFCURVE",
"291 -18 OFFCURVE"
);
}
);
width = 1075;
},
{
anchors = (
{
name = bot;
position = "{649, 0}";
},
{
name = top;
position = "{652, 1162}";
}
);
layerId = "5F2F3E34-E24A-4A89-B41B-C326736566A0";
name = Bold;
paths = (
{
closed = 1;
nodes = (
"694 -18 CURVE SMOOTH",
"825 -18 OFFCURVE",
"958 16 OFFCURVE",
"1075 88 CURVE",
"967 314 LINE",
"900 279 OFFCURVE",
"832 260 OFFCURVE",
"769 260 CURVE SMOOTH",
"618 260 OFFCURVE",
"500 366 OFFCURVE",
"500 588 CURVE SMOOTH",
"500 805 OFFCURVE",
"625 900 OFFCURVE",
"772 900 CURVE SMOOTH",
"839 900 OFFCURVE",
"911 879 OFFCURVE",
"977 840 CURVE",
"1075 1084 LINE",
"958 1158 OFFCURVE",
"825 1180 OFFCURVE",
"694 1180 CURVE SMOOTH",
"379 1180 OFFCURVE",
"82 988 OFFCURVE",
"82 588 CURVE SMOOTH",
"82 188 OFFCURVE",
"379 -18 OFFCURVE"
);
}
);
width = 1127;
}
);
unicode = 0063;
userData = {
anchors = (
);
com.typemytype.robofont.layerData = {
b = {
anchors = (
);
components = (
);
contours = (
);
lib = {
};
name = c;
unicodes = (
);
width = 1086;
};
};
components = (
);
contours = (
);
name = c;
position = 118;
unicodes = (
);
width = 1083;
};
},
{
glyphname = d;
lastChange = "2014-02-15 22:20:08 -0800";
layers = (
{
anchors = (
{
name = caron.alt;
position = "{1039, 1172}";
},
{
name = mid;
position = "{1009, 1379}";
},
{
name = top;
position = "{603, 1172}";
}
);
layerId = "67845082-4271-4E32-8C80-EE8FB13E39CE";
name = Light;
paths = (
{
closed = 1;
nodes = (
"615 -18 CURVE SMOOTH",
"767.261 -18 OFFCURVE",
"891.447 40.8904 OFFCURVE",
"975.657 150.17 CURVE",
"984 0 LINE",
"1069 0 LINE",
"1069 1660 LINE",
"971 1638 LINE",
"970.546 1008.56 LINE",
"884.598 1122.05 OFFCURVE",
"753.254 1190 OFFCURVE",
"609 1190 CURVE SMOOTH",
"266 1190 OFFCURVE",
"118 895 OFFCURVE",
"118 587 CURVE SMOOTH",
"118 295 OFFCURVE",
"255 -18 OFFCURVE"
);
},
{
closed = 1;
nodes = (
"622 62 CURVE SMOOTH",
"303 62 OFFCURVE",
"216 345 OFFCURVE",
"216 579 CURVE SMOOTH",
"216 796 OFFCURVE",
"286 1110 OFFCURVE",
"607 1110 CURVE SMOOTH",
"755.677 1110 OFFCURVE",
"877.236 1042.92 OFFCURVE",
"970.473 906.954 CURVE",
"970.711 239.208 LINE",
"887.449 121.439 OFFCURVE",
"764.181 62 OFFCURVE"
);
}
);
width = 1215;
},
{
anchors = (
{
name = bot;
position = "{578, 0}";
},
{
name = caron.alt;
position = "{989, 1168}";
},
{
name = mid;
position = "{966, 1381}";
},
{
name = top;
position = "{580, 1168}";
}
);
layerId = "B5E80BC0-A253-4265-9E84-E8FF94ED18F5";
name = Regular;
paths = (
{
closed = 1;
nodes = (
"592 -18 CURVE SMOOTH",
"754.659 -18 OFFCURVE",
"864.842 52.1019 OFFCURVE",
"938.522 131.204 CURVE",
"963 0 LINE",
"1103 0 LINE",
"1103 1614 LINE",
"913 1579 LINE",
"913 1055.52 LINE",
"828.094 1133.42 OFFCURVE",
"710.653 1186 OFFCURVE",
"566 1186 CURVE SMOOTH",
"251 1186 OFFCURVE",
"94 927 OFFCURVE",
"94 580 CURVE SMOOTH",
"94 277 OFFCURVE",
"247 -18 OFFCURVE"
);
},
{
closed = 1;
nodes = (
"573 119 CURVE SMOOTH",
"326 119 OFFCURVE",
"276 390 OFFCURVE",
"276 584 CURVE SMOOTH",
"276 884 OFFCURVE",
"387 1043 OFFCURVE",
"598 1043 CURVE SMOOTH",
"718.062 1043 OFFCURVE",
"826.916 996.224 OFFCURVE",
"913 925.46 CURVE",
"915.461 254.808 LINE",
"836.048 171.118 OFFCURVE",
"732.005 119 OFFCURVE"
);
}
);
width = 1260;
},
{
anchors = (
{
name = caron.alt;
position = "{1189, 1162}";
},
{
name = mid;
position = "{1066, 1382}";
},
{
name = top;
position = "{552, 1162}";
}
);
layerId = "5F2F3E34-E24A-4A89-B41B-C326736566A0";
name = Bold;
paths = (
{
closed = 1;
nodes = (
"575 -18 CURVE SMOOTH",
"716.636 -18 OFFCURVE",
"836.48 45.0203 OFFCURVE",
"928.459 125.835 CURVE",
"984 0 LINE",
"1270 0 LINE",
"1270 1647 LINE",
"856 1578 LINE",
"856 1082.32 LINE",
"756.021 1150.18 OFFCURVE",
"643.841 1180 OFFCURVE",
"525 1180 CURVE SMOOTH",
"268 1180 OFFCURVE",
"82 978 OFFCURVE",
"82 588 CURVE SMOOTH",
"82 166 OFFCURVE",
"329 -18 OFFCURVE"
);
},
{
closed = 1;
nodes = (
"702 232 CURVE SMOOTH",
"610 232 OFFCURVE",
"494 303 OFFCURVE",
"494 585 CURVE SMOOTH",
"494 852 OFFCURVE",
"565 924 OFFCURVE",
"666 924 CURVE SMOOTH",
"726.831 924 OFFCURVE",
"785.892 907.48 OFFCURVE",
"856 853.292 CURVE",
"856 294.067 LINE",
"806.482 255.469 OFFCURVE",
"754.062 232 OFFCURVE"
);
}
);
width = 1410;
}
);
unicode = 0064;
userData = {
anchors = (
);
com.typemytype.robofont.layerData = {
b = {
anchors = (
);
components = (
);
contours = (
{
points = (
{
segmentType = curve;
smooth = 1;
x = 587;
y = "-16";
},
{
smooth = 0;
x = 942;
y = "-16";
},
{
smooth = 0;
x = 1101;
y = 266;
},
{
segmentType = curve;
smooth = 1;
x = 1101;
y = 582;
},
{
smooth = 0;
x = 1101;
y = 892;
},
{
smooth = 0;
x = 944;
y = 1188;
},
{
segmentType = curve;
smooth = 1;
x = 587;
y = 1188;
},
{
smooth = 0;
x = 230;
y = 1188;
},
{
smooth = 0;
x = 73;
y = 892;
},
{
segmentType = curve;
smooth = 1;
x = 73;
y = 582;
},
{
smooth = 0;
x = 73;
y = 266;
},
{
smooth = 0;
x = 232;
y = "-16";
}
);
},
{
points = (
{
segmentType = curve;
smooth = 1;
x = 587;
y = 64;
},
{
smooth = 0;
x = 283;
y = 64;
},
{
smooth = 0;
x = 171;
y = 315;
},
{
segmentType = curve;
smooth = 1;
x = 171;
y = 582;
},
{
smooth = 0;
x = 171;
y = 804;
},
{
smooth = 0;
x = 258;
y = 1108;
},
{
segmentType = curve;
smooth = 1;
x = 587;
y = 1108;
},
{
smooth = 0;
x = 920;
y = 1108;
},
{
smooth = 0;
x = 1003;
y = 804;
},
{
segmentType = curve;
smooth = 1;
x = 1003;
y = 582;
},
{
smooth = 0;
x = 1003;
y = 315;
},
{
smooth = 0;
x = 895;
y = 64;
}
);
}
);
lib = {
};
name = b;
unicodes = (
);
width = 1219;
};
};
components = (
);
contours = (
);
name = b;
points = (
);
position = 1009;
segmentType = curve;
unicodes = (
);
width = 1225;
x = 607;
y = 1101;
};
},
{
glyphname = e;
lastChange = "2014-02-15 22:20:08 -0800";
layers = (
{
anchors = (
{
name = bot;
position = "{655, 0}";
},
{
name = ogonek;
position = "{756, 0}";
},
{
name = top;
position = "{643, 1172}";
}
);
layerId = "67845082-4271-4E32-8C80-EE8FB13E39CE";
name = Light;
paths = (
{
closed = 1;
nodes = (
"660 -18 CURVE SMOOTH",
"775 -18 OFFCURVE",
"947 31 OFFCURVE",
"1044 120 CURVE",
"1008 186 LINE",
"922 114 OFFCURVE",
"795 62 OFFCURVE",
"664 62 CURVE SMOOTH",
"344 62 OFFCURVE",
"216 301 OFFCURVE",
"216 596 CURVE",
"1066 596 LINE",
"1066 596 OFFCURVE",
"1078 636 OFFCURVE",
"1078 694 CURVE SMOOTH",
"1078 955 OFFCURVE",
"942 1190 OFFCURVE",
"644 1190 CURVE SMOOTH",
"296 1190 OFFCURVE",
"118 923 OFFCURVE",
"118 599 CURVE SMOOTH",
"118 248 OFFCURVE",
"298 -18 OFFCURVE"
);
},
{
closed = 1;
nodes = (
"221 670 LINE",
"238 902 OFFCURVE",
"353 1110 OFFCURVE",
"647 1110 CURVE SMOOTH",
"884 1110 OFFCURVE",
"985 912 OFFCURVE",
"985 716 CURVE SMOOTH",
"985 670 LINE"
);
}
);
width = 1184;
},
{
anchors = (
{
name = bot;
position = "{627, 0}";
},
{
name = ogonek;
position = "{708, 0}";
},
{
name = top;
position = "{614, 1168}";
}
);
layerId = "B5E80BC0-A253-4265-9E84-E8FF94ED18F5";
name = Regular;
paths = (
{
closed = 1;
nodes = (
"624 -18 CURVE SMOOTH",
"762 -18 OFFCURVE",
"937 27 OFFCURVE",
"1031 108 CURVE",
"975 232 LINE",
"934 198 OFFCURVE",
"811 119 OFFCURVE",
"657 119 CURVE SMOOTH",
"450 119 OFFCURVE",
"283 234 OFFCURVE",
"280 563 CURVE",
"1058 563 LINE",
"1064 600 OFFCURVE",
"1069 638 OFFCURVE",
"1069 676 CURVE SMOOTH",
"1069 965 OFFCURVE",
"923 1186 OFFCURVE",
"615 1186 CURVE SMOOTH",
"263 1186 OFFCURVE",
"94 897 OFFCURVE",
"94 578 CURVE SMOOTH",
"94 246 OFFCURVE",
"271 -18 OFFCURVE"
);
},
{
closed = 1;
nodes = (
"285 687 LINE",
"302 887 OFFCURVE",
"388 1046 OFFCURVE",
"616 1046 CURVE SMOOTH",
"821 1046 OFFCURVE",
"901 896 OFFCURVE",
"901 715 CURVE SMOOTH",
"901 687 LINE"
);
}
);
width = 1163;
},
{
anchors = (
{
name = bot;
position = "{709, 0}";
},
{
name = ogonek;
position = "{772, 0}";
},
{
name = top;
position = "{702, 1162}";
}
);
layerId = "5F2F3E34-E24A-4A89-B41B-C326736566A0";
name = Bold;
paths = (
{
closed = 1;
nodes = (
"720 -18 CURVE SMOOTH",
"863 -18 OFFCURVE",
"1018 12 OFFCURVE",
"1155 97 CURVE",
"1067 334 LINE",
"974 287 OFFCURVE",
"881 260 OFFCURVE",
"764 260 CURVE SMOOTH",
"642 260 OFFCURVE",
"513 303 OFFCURVE",
"500 478 CURVE",
"1155 478 LINE",
"1163 595 LINE SMOOTH",
"1189 975 OFFCURVE",
"998 1180 OFFCURVE",
"693 1180 CURVE SMOOTH",
"326 1180 OFFCURVE",
"82 959 OFFCURVE",
"82 573 CURVE SMOOTH",
"82 199 OFFCURVE",
"309 -18 OFFCURVE"
);
},
{
closed = 1;
nodes = (
"505 699 LINE",
"505 844 OFFCURVE",
"576 921 OFFCURVE",
"681 921 CURVE SMOOTH",
"759 921 OFFCURVE",
"825 862 OFFCURVE",
"825 733 CURVE SMOOTH",
"825 699 LINE"
);
}
);
width = 1256;
}
);
unicode = 0065;
userData = {
anchors = (
);
com.typemytype.robofont.layerData = {
b = {
anchors = (
);
components = (
);
contours = (
);
lib = {
};
name = e;
unicodes = (
);
width = 1173;
};
};
components = (
);
contours = (
);
name = e;
points = (
);
position = 981;
segmentType = curve;
unicodes = (
);
width = 1188;
x = 277;
y = "-16";
};
},
{
glyphname = f;
lastChange = "2014-02-15 22:20:08 -0800";
layers = (
{
anchors = (
{
name = top;
position = "{281, 1620}";
}
);
layerId = "67845082-4271-4E32-8C80-EE8FB13E39CE";
name = Light;
paths = (
{
closed = 1;
nodes = (
"236 0 LINE",
"334 0 LINE",
"334 1106 LINE",
"718 1106 LINE",
"718 1172 LINE",
"334 1172 LINE",
"334 1224 LINE SMOOTH",
"334 1425 OFFCURVE",
"357 1528 OFFCURVE",
"489 1539 CURVE SMOOTH",
"560 1545 OFFCURVE",
"638 1525 OFFCURVE",
"688 1506 CURVE",
"709 1574 LINE",
"664 1594 OFFCURVE",
"572 1621 OFFCURVE",
"482 1614 CURVE SMOOTH",
"308 1600 OFFCURVE",
"236 1501 OFFCURVE",
"236 1224 CURVE SMOOTH",
"236 1172 LINE",
"38 1172 LINE",
"38 1106 LINE",
"236 1106 LINE"
);
}
);
width = 721;
},
{
anchors = (
{
name = bot;
position = "{348, 0}";
},
{
name = top;
position = "{350, 1578}";
}
);
layerId = "B5E80BC0-A253-4265-9E84-E8FF94ED18F5";
name = Regular;
paths = (
{
closed = 1;
nodes = (
"253 0 LINE",
"443 0 LINE",
"443 1045 LINE",
"790 1045 LINE",
"790 1168 LINE",
"443 1168 LINE",
"443 1252 LINE SMOOTH",
"443 1485 OFFCURVE",
"554 1508 OFFCURVE",
"627 1509 CURVE SMOOTH",
"666 1510 OFFCURVE",
"734 1493 OFFCURVE",
"784 1474 CURVE",
"823 1599 LINE",
"752 1628 OFFCURVE",
"677 1646 OFFCURVE",
"607 1648 CURVE SMOOTH",
"449 1653 OFFCURVE",
"253 1569 OFFCURVE",
"253 1260 CURVE SMOOTH",
"253 1168 LINE",
"53 1168 LINE",
"53 1045 LINE",
"253 1045 LINE"
);
}
);
width = 821;
},
{
anchors = (
{
name = top;
position = "{442, 1578}";
}
);
layerId = "5F2F3E34-E24A-4A89-B41B-C326736566A0";
name = Bold;
paths = (
{
closed = 1;
nodes = (
"205 0 LINE",
"617 0 LINE",
"617 945 LINE",
"931 945 LINE",
"931 1162 LINE",
"617 1162 LINE",
"617 1226 LINE SMOOTH",
"617 1338 OFFCURVE",
"686 1371 OFFCURVE",
"769 1371 CURVE SMOOTH",
"819 1371 OFFCURVE",
"874 1360 OFFCURVE",
"923 1345 CURVE",
"980 1591 LINE",
"907 1638 OFFCURVE",
"783 1672 OFFCURVE",
"637 1672 CURVE SMOOTH",
"446 1672 OFFCURVE",
"205 1587 OFFCURVE",
"205 1181 CURVE SMOOTH",
"205 1162 LINE",
"14 1162 LINE",
"14 945 LINE",
"205 945 LINE"
);
}
);
width = 934;
}
);
unicode = 0066;
userData = {
anchors = (
);
com.typemytype.robofont.layerData = {
b = {
anchors = (
);
components = (
);
contours = (
{
points = (
{
segmentType = curve;
smooth = 1;
x = 483;
y = 1614;
},
{
smooth = 0;
x = 291;
y = 1614;
},
{
smooth = 0;
x = 239;
y = 1475;
},
{
segmentType = curve;
smooth = 1;
x = 239;
y = 1375;
},
{
segmentType = line;
smooth = 0;
x = 239;
y = 499;
},
{
segmentType = line;
smooth = 0;
x = 51;
y = 499;
},
{
segmentType = line;
smooth = 0;
x = 51;
y = 430;
},
{
segmentType = line;
smooth = 0;
x = 240;
y = 430;
},
{
segmentType = line;
smooth = 0;
x = 252;
y = 59;
},
{
segmentType = line;
smooth = 0;
x = 335;
y = 40;
},
{
segmentType = line;
smooth = 0;
x = 335;
y = 430;
},
{
segmentType = line;
smooth = 0;
x = 675;
y = 430;
},
{
segmentType = line;
smooth = 0;
x = 675;
y = 499;
},
{
segmentType = line;
smooth = 0;
x = 335;
y = 499;
},
{
segmentType = line;
smooth = 1;
x = 335;
y = 1374;
},
{
smooth = 0;
x = 335;
y = 1462;
},
{
smooth = 0;
x = 378;
y = 1538;
},
{
segmentType = curve;
smooth = 1;
x = 495;
y = 1538;
},
{
smooth = 0;
x = 538;
y = 1538;
},
{
smooth = 0;
x = 592;
y = 1526;
},
{
segmentType = curve;
smooth = 0;
x = 657;
y = 1504;
},
{
segmentType = line;
smooth = 0;
x = 679;
y = 1575;
},
{
smooth = 0;
x = 602;
y = 1601;
},
{
smooth = 0;
x = 538;
y = 1614;
}
);
}
);
lib = {
};
name = f;
unicodes = (
);
width = 721;
};
};
components = (
);
contours = (
);
name = f;
points = (
);
position = 236;
segmentType = line;
unicodes = (
);
width = 722;
x = 340;
y = 0;
};
},
{
glyphname = g;
lastChange = "2014-02-15 22:20:08 -0800";
layers = (
{
anchors = (
{
name = top;
position = "{580, 1172}";
}
);
layerId = "67845082-4271-4E32-8C80-EE8FB13E39CE";
name = Light;
paths = (
{
closed = 1;
nodes = (
"538 -363 CURVE SMOOTH",
"857 -363 OFFCURVE",
"1060 -286 OFFCURVE",
"1060 -57 CURVE SMOOTH",
"1060 173 OFFCURVE",
"916 220 OFFCURVE",
"704 220 CURVE SMOOTH",
"316 220 LINE",
"316 220 OFFCURVE",
"265 235 OFFCURVE",
"265 334 CURVE SMOOTH",
"265 394 OFFCURVE",
"314 485 OFFCURVE",
"324 505 CURVE",
"345 492 OFFCURVE",
"424 447 OFFCURVE",
"564 447 CURVE SMOOTH",
"804 447 OFFCURVE",
"978 586 OFFCURVE",
"978 814 CURVE SMOOTH",
"978 914 OFFCURVE",
"937 1019 OFFCURVE",
"886 1058 CURVE",
"1121 1091 LINE",
"1114 1169 LINE",
"1019 1168 OFFCURVE",
"927 1142 OFFCURVE",
"854 1104 CURVE",
"783 1160 OFFCURVE",
"681 1190 OFFCURVE",
"588 1190 CURVE SMOOTH",
"286 1190 OFFCURVE",
"150 1017 OFFCURVE",
"150 816 CURVE SMOOTH",
"150 625 OFFCURVE",
"277 537 OFFCURVE",
"291 525 CURVE",
"209 452 OFFCURVE",
"177 387 OFFCURVE",
"177 322 CURVE SMOOTH",
"177 230 OFFCURVE",
"206 165 OFFCURVE",
"301 153 CURVE",
"208 116 OFFCURVE",
"156 27 OFFCURVE",
"156 -88 CURVE SMOOTH",
"156 -337 OFFCURVE",
"336 -363 OFFCURVE"
);
},
{
closed = 1;
nodes = (
"532 -288 CURVE SMOOTH",
"338 -288 OFFCURVE",
"243 -244 OFFCURVE",
"243 -85 CURVE SMOOTH",
"243 51 OFFCURVE",
"327 126 OFFCURVE",
"395 144 CURVE",
"701 144 LINE SMOOTH",
"860 144 OFFCURVE",
"972 133 OFFCURVE",
"972 -63 CURVE SMOOTH",
"972 -237 OFFCURVE",
"820 -288 OFFCURVE"
);
},
{
closed = 1;
nodes = (
"562 516 CURVE SMOOTH",
"342 516 OFFCURVE",
"241 640 OFFCURVE",
"241 823 CURVE SMOOTH",
"241 975 OFFCURVE",
"332 1120 OFFCURVE",
"591 1120 CURVE SMOOTH",
"801 1120 OFFCURVE",
"891 979 OFFCURVE",
"891 809 CURVE SMOOTH",
"891 662 OFFCURVE",
"812 516 OFFCURVE"
);
}
);
width = 1183;
},
{
anchors = (
{
name = bot;
position = "{553, 0}";
},
{
name = top;
position = "{555, 1168}";
}
);
layerId = "B5E80BC0-A253-4265-9E84-E8FF94ED18F5";
name = Regular;
paths = (
{
closed = 1;
nodes = (
"513 -420 CURVE SMOOTH",
"819 -420 OFFCURVE",
"1094 -354 OFFCURVE",
"1094 -84 CURVE SMOOTH",
"1094 198 OFFCURVE",
"893 219 OFFCURVE",
"636 219 CURVE SMOOTH",
"344 219 LINE",
"344 219 OFFCURVE",
"303 261 OFFCURVE",
"303 321 CURVE SMOOTH",
"303 385 OFFCURVE",
"349 464 OFFCURVE",
"349 464 CURVE",
"349 464 OFFCURVE",
"424 421 OFFCURVE",
"554 421 CURVE SMOOTH",
"808 421 OFFCURVE",
"998 547 OFFCURVE",
"998 824 CURVE",
"996 896 OFFCURVE",
"962 975 OFFCURVE",
"918 1011 CURVE",
"1160 1038 LINE",
"1149 1167 LINE",
"1040 1166 OFFCURVE",
"943 1161 OFFCURVE",
"844 1110 CURVE",
"765 1171 OFFCURVE",
"661 1186 OFFCURVE",
"564 1186 CURVE SMOOTH",
"291 1186 OFFCURVE",
"111 1021 OFFCURVE",
"111 818 CURVE SMOOTH",
"111 631 OFFCURVE",
"221 531 OFFCURVE",
"275 503 CURVE",
"172 411 OFFCURVE",
"137 338 OFFCURVE",
"137 274 CURVE SMOOTH",
"137 180 OFFCURVE",
"216 119 OFFCURVE",
"279 108 CURVE",
"180 62 OFFCURVE",
"113 -20 OFFCURVE",
"113 -135 CURVE SMOOTH",
"113 -378 OFFCURVE",
"311 -420 OFFCURVE"
);
},
{
closed = 1;
nodes = (
"523 -278 CURVE SMOOTH",
"400 -278 OFFCURVE",
"276 -260 OFFCURVE",
"276 -120 CURVE SMOOTH",
"276 -45 OFFCURVE",
"308 41 OFFCURVE",
"371 81 CURVE",
"679 81 LINE SMOOTH",
"816 81 OFFCURVE",
"927 91 OFFCURVE",
"927 -89 CURVE SMOOTH",
"927 -262 OFFCURVE",
"729 -278 OFFCURVE"
);
},
{
closed = 1;
nodes = (
"564 552 CURVE SMOOTH",
"357 552 OFFCURVE",
"281 656 OFFCURVE",
"281 811 CURVE SMOOTH",
"281 950 OFFCURVE",
"372 1053 OFFCURVE",
"571 1053 CURVE SMOOTH",
"762 1053 OFFCURVE",
"837 953 OFFCURVE",
"837 797 CURVE SMOOTH",
"837 687 OFFCURVE",
"767 552 OFFCURVE"
);
}
);
width = 1188;
},
{
anchors = (
{
name = top;
position = "{612, 1162}";
}
);
layerId = "5F2F3E34-E24A-4A89-B41B-C326736566A0";
name = Bold;
paths = (
{
closed = 1;
nodes = (
"604 -519 CURVE SMOOTH",
"896 -510 OFFCURVE",
"1220 -448 OFFCURVE",
"1220 -156 CURVE SMOOTH",
"1220 172 OFFCURVE",
"1042 250 OFFCURVE",
"810 250 CURVE SMOOTH",
"467 250 LINE",
"463 257 OFFCURVE",
"454 277 OFFCURVE",
"454 310 CURVE SMOOTH",
"454 339 OFFCURVE",
"467 360 OFFCURVE",
"472 367 CURVE",
"492 365 OFFCURVE",
"547 362 OFFCURVE",
"622 362 CURVE SMOOTH",
"939 362 OFFCURVE",
"1104 522 OFFCURVE",
"1104 771 CURVE SMOOTH",
"1104 853 OFFCURVE",
"1066 907 OFFCURVE",
"1042 939 CURVE",
"1269 954 LINE",
"1269 1188 LINE",
"1114 1189 OFFCURVE",
"1023 1175 OFFCURVE",
"885 1117 CURVE",
"809 1153 OFFCURVE",
"777 1180 OFFCURVE",
"596 1180 CURVE SMOOTH",
"254 1180 OFFCURVE",
"96 1019 OFFCURVE",
"96 762 CURVE SMOOTH",
"96 583 OFFCURVE",
"190 517 OFFCURVE",
"275 468 CURVE",
"262 460 OFFCURVE",
"139 360 OFFCURVE",
"139 210 CURVE SMOOTH",
"139 130 OFFCURVE",
"164 67 OFFCURVE",
"263 34 CURVE",
"165 10 OFFCURVE",
"82 -71 OFFCURVE",
"82 -201 CURVE SMOOTH",
"82 -515 OFFCURVE",
"401 -525 OFFCURVE"
);
},
{
closed = 1;
nodes = (
"600 -269 CURVE SMOOTH",
"427 -272 OFFCURVE",
"416 -206 OFFCURVE",
"416 -135 CURVE SMOOTH",
"416 -77 OFFCURVE",
"441 -30 OFFCURVE",
"460 -6 CURVE",
"693 -6 LINE SMOOTH",
"835 -6 OFFCURVE",
"869 -23 OFFCURVE",
"869 -110 CURVE SMOOTH",
"869 -276 OFFCURVE",
"734 -267 OFFCURVE"
);
},
{
closed = 1;
nodes = (
"628 612 CURVE SMOOTH",
"511 612 OFFCURVE",
"449 670 OFFCURVE",
"445 775 CURVE SMOOTH",
"440 902 OFFCURVE",
"506 944 OFFCURVE",
"630 944 CURVE SMOOTH",
"736 944 OFFCURVE",
"791 893 OFFCURVE",
"791 778 CURVE SMOOTH",
"791 673 OFFCURVE",
"728 612 OFFCURVE"
);
}
);
width = 1273;
}
);
unicode = 0067;
userData = {
anchors = (
);
com.typemytype.robofont.guides = (
);
components = (
);
contours = (
);
name = g;
points = (
);
position = 960;
segmentType = curve;
unicodes = (
);
width = 1177;
x = 982;
y = 904;
};
},
{
glyphname = h;
lastChange = "2014-02-15 22:20:08 -0800";
layers = (
{
anchors = (
{
name = top;
position = "{701, 1172}";
}
);
layerId = "67845082-4271-4E32-8C80-EE8FB13E39CE";
name = Light;
paths = (
{
closed = 1;
nodes = (
"147 0 LINE",
"243 0 LINE",
"243 898.884 LINE",
"374.548 1029.56 OFFCURVE",
"530.189 1110 OFFCURVE",
"685 1110 CURVE SMOOTH",
"948 1110 OFFCURVE",
"991 935 OFFCURVE",
"991 719 CURVE SMOOTH",
"991 0 LINE",
"1087 0 LINE",
"1087 728 LINE SMOOTH",
"1087 959 OFFCURVE",
"1032 1190 OFFCURVE",
"701 1190 CURVE SMOOTH",
"523.673 1190 OFFCURVE",
"378.429 1119.42 OFFCURVE",
"243 987.588 CURVE",
"243 1604 LINE",
"147 1580 LINE"
);
}
);
width = 1221;
},
{
anchors = (
{
name = bot;
position = "{728, 0}";
},
{
name = top;
position = "{730, 1168}";
}
);
layerId = "B5E80BC0-A253-4265-9E84-E8FF94ED18F5";
name = Regular;
paths = (
{
closed = 1;
nodes = (
"160 0 LINE",
"346 0 LINE",
"346 870.468 LINE",
"427.903 954.234 OFFCURVE",
"541.922 1042 OFFCURVE",
"711 1042 CURVE SMOOTH",
"902 1042 OFFCURVE",
"939 880 OFFCURVE",
"939 727 CURVE SMOOTH",
"939 0 LINE",
"1125 0 LINE",
"1125 727 LINE SMOOTH",
"1125 982 OFFCURVE",
"1028 1186 OFFCURVE",
"728 1186 CURVE SMOOTH",
"560.781 1186 OFFCURVE",
"436.375 1107.34 OFFCURVE",
"346 1020.98 CURVE",
"346 1616 LINE",
"160 1579 LINE"
);
}
);
width = 1284;
},
{
anchors = (
{
name = bot;
position = "{729, 0}";
},
{
name = top;
position = "{882, 1162}";
}
);
layerId = "5F2F3E34-E24A-4A89-B41B-C326736566A0";
name = Bold;
paths = (
{
closed = 1;
nodes = (
"144 0 LINE",
"556 0 LINE",
"556 809.281 LINE",
"621.702 870.236 OFFCURVE",
"686.222 900 OFFCURVE",
"739 900 CURVE SMOOTH",
"815 900 OFFCURVE",
"861 874 OFFCURVE",
"861 732 CURVE SMOOTH",
"861 0 LINE",
"1273 0 LINE",
"1273 753 LINE SMOOTH",
"1273 1136 OFFCURVE",
"1044 1180 OFFCURVE",
"897 1180 CURVE SMOOTH",
"770.695 1180 OFFCURVE",
"653.166 1135.48 OFFCURVE",
"556 1069.11 CURVE",
"556 1647 LINE",
"144 1578 LINE"
);
}
);
width = 1407;
}
);
unicode = 0068;
userData = {
anchors = (
);
com.typemytype.robofont.layerData = {
b = {
anchors = (
);
components = (
);
contours = (
);
lib = {
};
name = h;
unicodes = (
);
width = 1221;
};
};
components = (
);
contours = (
);
name = h;
position = 945;
unicodes = (
);
width = 1169;
};
},
{
glyphname = i;
lastChange = "2014-02-15 22:20:08 -0800";
layers = (
{
anchors = (
{
name = ogonek;
position = "{217, 0}";
}
);
layerId = "67845082-4271-4E32-8C80-EE8FB13E39CE";
name = Light;
paths = (
{
closed = 1;
nodes = (
"188 0 LINE",
"284 0 LINE",
"284 1172 LINE",
"188 1172 LINE"
);
},
{
closed = 1;
nodes = (
"238 1352 CURVE SMOOTH",
"285 1352 OFFCURVE",
"308 1387 OFFCURVE",
"308 1423 CURVE SMOOTH",
"308 1458 OFFCURVE",
"285 1493 OFFCURVE",
"238 1493 CURVE SMOOTH",
"191 1493 OFFCURVE",
"168 1458 OFFCURVE",
"168 1423 CURVE SMOOTH",
"168 1387 OFFCURVE",
"191 1352 OFFCURVE"
);
}
);
width = 458;
},
{
layerId = "B5E80BC0-A253-4265-9E84-E8FF94ED18F5";
name = Regular;
paths = (
{
closed = 1;
nodes = (
"183 0 LINE",
"369 0 LINE",
"369 1168 LINE",
"183 1168 LINE"
);
},
{
closed = 1;
nodes = (
"282 1347 CURVE SMOOTH",
"347 1347 OFFCURVE",
"390 1400 OFFCURVE",
"390 1462 CURVE SMOOTH",
"390 1524 OFFCURVE",
"347 1577 OFFCURVE",
"282 1577 CURVE SMOOTH",
"219 1577 OFFCURVE",
"170 1524 OFFCURVE",
"170 1462 CURVE SMOOTH",
"170 1399 OFFCURVE",
"218 1347 OFFCURVE"
);
}
);
width = 526;
},
{
layerId = "5F2F3E34-E24A-4A89-B41B-C326736566A0";
name = Bold;
paths = (
{
closed = 1;
nodes = (
"165 0 LINE",
"577 0 LINE",
"577 1162 LINE",
"165 1162 LINE"
);
},
{
closed = 1;
nodes = (
"370 1335 CURVE SMOOTH",
"497 1335 OFFCURVE",
"601 1431 OFFCURVE",
"601 1559 CURVE SMOOTH",
"601 1686 OFFCURVE",
"495 1784 OFFCURVE",
"370 1784 CURVE SMOOTH",
"244 1784 OFFCURVE",
"146 1686 OFFCURVE",
"146 1559 CURVE SMOOTH",
"146 1436 OFFCURVE",
"240 1335 OFFCURVE"
);
}
);
width = 731;
}
);
unicode = 0069;
userData = {
anchors = (
);
com.typemytype.robofont.layerData = {
b = {
anchors = (
);
components = (
);
contours = (
);
lib = {
};
name = i;
unicodes = (
);
width = 442;
};
};
components = (
);
contours = (
);
name = i;
position = 154;
unicodes = (
);
width = 91;
};
},
{
glyphname = j;
lastChange = "2014-02-15 22:20:08 -0800";
layers = (
{
layerId = "67845082-4271-4E32-8C80-EE8FB13E39CE";
name = Light;
paths = (
{
closed = 1;
nodes = (
"13 -391 LINE",
"278 -312 OFFCURVE",
"314 -244 OFFCURVE",
"314 101 CURVE SMOOTH",
"314 1172 LINE",
"218 1172 LINE",
"218 101 LINE SMOOTH",
"218 -205 OFFCURVE",
"210 -241 OFFCURVE",
"-12 -312 CURVE"
);
},
{
closed = 1;
nodes = (
"268 1352 CURVE SMOOTH",
"315 1352 OFFCURVE",
"338 1387 OFFCURVE",
"338 1423 CURVE SMOOTH",
"338 1458 OFFCURVE",
"315 1493 OFFCURVE",
"268 1493 CURVE SMOOTH",
"221 1493 OFFCURVE",
"198 1458 OFFCURVE",
"198 1423 CURVE SMOOTH",
"198 1387 OFFCURVE",
"221 1352 OFFCURVE"
);
}
);
width = 488;
},
{
layerId = "B5E80BC0-A253-4265-9E84-E8FF94ED18F5";
name = Regular;
paths = (
{
closed = 1;
nodes = (
"11 -463 LINE",
"249 -405 OFFCURVE",
"380 -298 OFFCURVE",
"380 44 CURVE SMOOTH",
"380 1168 LINE",
"190 1168 LINE",
"190 66 LINE SMOOTH",
"190 -194 OFFCURVE",
"175 -239 OFFCURVE",
"-39 -324 CURVE"
);
},
{
closed = 1;
nodes = (
"289 1347 CURVE SMOOTH",
"354 1347 OFFCURVE",
"397 1400 OFFCURVE",
"397 1462 CURVE SMOOTH",
"397 1524 OFFCURVE",
"354 1577 OFFCURVE",
"289 1577 CURVE SMOOTH",
"226 1577 OFFCURVE",
"177 1524 OFFCURVE",
"177 1462 CURVE SMOOTH",
"177 1399 OFFCURVE",
"225 1347 OFFCURVE"
);
}
);
width = 535;
},
{
layerId = "5F2F3E34-E24A-4A89-B41B-C326736566A0";
name = Bold;
paths = (
{
closed = 1;
nodes = (
"148 -499 LINE",
"463 -423 OFFCURVE",
"641 -315 OFFCURVE",
"641 0 CURVE SMOOTH",
"641 1162 LINE",
"229 1162 LINE",
"229 140 LINE SMOOTH",
"229 -91 OFFCURVE",
"229 -126 OFFCURVE",
"12 -217 CURVE"
);
},
{
closed = 1;
nodes = (
"434 1335 CURVE SMOOTH",
"561 1335 OFFCURVE",
"665 1431 OFFCURVE",
"665 1559 CURVE SMOOTH",
"665 1686 OFFCURVE",
"559 1784 OFFCURVE",
"434 1784 CURVE SMOOTH",
"308 1784 OFFCURVE",
"210 1686 OFFCURVE",
"210 1559 CURVE SMOOTH",
"210 1436 OFFCURVE",
"304 1335 OFFCURVE"
);
}
);
width = 799;
}
);
unicode = 006A;
userData = {
anchors = (
);
com.typemytype.robofont.layerData = {
b = {
anchors = (
);
components = (
);
contours = (
);
lib = {
};
name = j;
unicodes = (
);
width = 447;
};
};
components = (
);
contours = (
);
name = j;
position = 203;
unicodes = (
);
width = 448;
};
},
{
glyphname = k;
lastChange = "2014-02-15 22:20:08 -0800";
layers = (
{
anchors = (
{
name = bot;
position = "{577, 0}";
},
{
name = top;
position = "{561, 1172}";
}
);
layerId = "67845082-4271-4E32-8C80-EE8FB13E39CE";
name = Light;
paths = (
{
closed = 1;
nodes = (
"148 0 LINE",
"244 0 LINE",
"244 545.035 LINE",
"324 613 LINE",
"908 0 LINE",
"1026 0 LINE",
"402 656 LINE",
"953 1172 LINE",
"836 1172 LINE",
"244 620.73 LINE",
"244 1604 LINE",
"148 1580 LINE"
);
}
);
width = 1034;
},
{
anchors = (
{
name = bot;
position = "{628, 0}";
},
{
name = top;
position = "{630, 1168}";
}
);
layerId = "B5E80BC0-A253-4265-9E84-E8FF94ED18F5";
name = Regular;
paths = (
{
closed = 1;
nodes = (
"160 0 LINE",
"346 0 LINE",
"346 479.025 LINE",
"453 578 LINE",
"933 0 LINE",
"1140 0 LINE",
"591 657 LINE",
"1096 1168 LINE",
"875 1168 LINE",
"346 640 LINE",
"346 1616 LINE",
"160 1579 LINE"
);
}
);
width = 1128;
},
{
anchors = (
{
name = bot;
position = "{769, 0}";
},
{
name = top;
position = "{872, 1162}";
}
);
layerId = "5F2F3E34-E24A-4A89-B41B-C326736566A0";
name = Bold;
paths = (
{
closed = 1;
nodes = (
"151 0 LINE",
"563 0 LINE",
"563 412.412 LINE",
"647 489 LINE",
"950 0 LINE",
"1414 0 LINE",
"932 668 LINE",
"1385 1162 LINE",
"914 1162 LINE",
"563 751.089 LINE",
"563 1647 LINE",
"151 1578 LINE"
);
}
);
width = 1402;
}
);
unicode = 006B;
userData = {
anchors = (
);
com.typemytype.robofont.layerData = {
b = {
anchors = (
);
components = (
);
contours = (
);
lib = {
};
name = k;
unicodes = (
);
width = 964;
};
};
components = (
);
contours = (
);
name = k;
position = 123;
unicodes = (
);
width = 982;
};
},
{
glyphname = l;
lastChange = "2014-02-16 00:18:27 -0800";
layers = (
{
anchors = (
{
name = caron.alt;
position = "{313, 1172}";
},
{
name = mid;
position = "{68, 812}";
},
{
name = top;
position = "{231, 1620}";
}
);
layerId = "67845082-4271-4E32-8C80-EE8FB13E39CE";
name = Light;
paths = (
{
closed = 1;
nodes = (
"182 0 LINE",
"278 0 LINE",
"278 1604 LINE",
"182 1580 LINE"
);
}
);
width = 454;
},
{
anchors = (
{
name = bot;
position = "{258, 0}";
},
{
name = caron.alt;
position = "{303, 1168}";
},
{
name = mid;
position = "{171, 870}";
},
{
name = top;
position = "{260, 1578}";
}
);
layerId = "B5E80BC0-A253-4265-9E84-E8FF94ED18F5";
name = Regular;
paths = (
{
closed = 1;
nodes = (
"160 0 LINE",
"346 0 LINE",
"346 1616 LINE",
"160 1579 LINE"
);
}
);
width = 571;
},
{
anchors = (
{
name = bot;
position = "{369, 0}";
},
{
name = caron.alt;
position = "{573, 1168}";
},
{
name = mid;
position = "{388, 807}";
},
{
name = top;
position = "{340, 1578}";
}
);
layerId = "5F2F3E34-E24A-4A89-B41B-C326736566A0";
name = Bold;
paths = (
{
closed = 1;
nodes = (
"155 0 LINE",
"567 0 LINE",
"567 1647 LINE",
"155 1578 LINE"
);
}
);
width = 715;
}
);
unicode = 006C;
userData = {
anchors = (
);
com.typemytype.robofont.guides = (
);
com.typemytype.robofont.layerData = {
b = {
anchors = (
);
components = (
);
contours = (
);
lib = {
};
name = l;
unicodes = (
);
width = 445;
};
};
components = (
);
contours = (
);
name = l;
position = 139;
unicodes = (
);
width = 353;
};
},
{
glyphname = m;
lastChange = "2014-02-15 22:20:08 -0800";
layers = (
{
anchors = (
{
name = top;
position = "{1051, 1172}";
}
);
layerId = "67845082-4271-4E32-8C80-EE8FB13E39CE";
name = Light;
paths = (
{
closed = 1;
nodes = (
"146 0 LINE",
"242 0 LINE",
"241.313 900.672 LINE",
"370.73 1046.03 OFFCURVE",
"514.049 1110 OFFCURVE",
"669 1110 CURVE SMOOTH",
"936 1110 OFFCURVE",
"949 932 OFFCURVE",
"949 716 CURVE SMOOTH",
"949 0 LINE",
"1045 0 LINE",
"1045 725 LINE SMOOTH",
"1045 780.807 OFFCURVE",
"1042.84 836.788 OFFCURVE",
"1034.9 889.603 CURVE",
"1177.73 1060.83 OFFCURVE",
"1319.83 1110 OFFCURVE",
"1474 1110 CURVE SMOOTH",
"1741 1110 OFFCURVE",
"1754 932 OFFCURVE",
"1754 716 CURVE SMOOTH",
"1754 0 LINE",
"1850 0 LINE",
"1850 725 LINE SMOOTH",
"1850 956 OFFCURVE",
"1813 1190 OFFCURVE",
"1482 1190 CURVE SMOOTH",
"1304.59 1190 OFFCURVE",
"1148.75 1132.2 OFFCURVE",
"1017.69 967.708 CURVE",
"978.779 1095.69 OFFCURVE",
"887.136 1190 OFFCURVE",
"677 1190 CURVE SMOOTH",
"497.645 1190 OFFCURVE",
"358.496 1127.64 OFFCURVE",
"234.282 979.133 CURVE",
"217 1172 LINE",
"146 1172 LINE"
);
}
);
width = 1988;
},
{
anchors = (
{
name = bot;
position = "{1028, 0}";
},
{
name = top;
position = "{1030, 1168}";
}
);
layerId = "B5E80BC0-A253-4265-9E84-E8FF94ED18F5";
name = Regular;
paths = (
{
closed = 1;
nodes = (
"160 0 LINE",
"346 0 LINE",
"346 863.937 LINE",
"467.634 983.579 OFFCURVE",
"600.205 1042 OFFCURVE",
"709 1042 CURVE SMOOTH",
"881 1042 OFFCURVE",
"909 908 OFFCURVE",
"909 764 CURVE SMOOTH",
"909 0 LINE",
"1099 0 LINE",
"1099 769 LINE SMOOTH",
"1099 785.365 OFFCURVE",
"1098.49 819.922 OFFCURVE",
"1092.13 862.474 CURVE",
"1218.52 992.132 OFFCURVE",
"1340.81 1042 OFFCURVE",
"1459 1042 CURVE SMOOTH",
"1630 1042 OFFCURVE",
"1654 908 OFFCURVE",
"1654 764 CURVE SMOOTH",
"1654 0 LINE",
"1844 0 LINE",
"1844 762 LINE SMOOTH",
"1844 988 OFFCURVE",
"1736 1186 OFFCURVE",
"1487 1186 CURVE SMOOTH",
"1351.63 1186 OFFCURVE",
"1194.19 1137.03 OFFCURVE",
"1060.51 980.672 CURVE",
"1017.93 1084.65 OFFCURVE",
"928.343 1186 OFFCURVE",
"740 1186 CURVE SMOOTH",
"604.313 1186 OFFCURVE",
"470.065 1137.81 OFFCURVE",
"327.496 993.264 CURVE",
"300 1168 LINE",
"160 1168 LINE"
);
}
);
width = 1994;
},
{
anchors = (
{
name = top;
position = "{1182, 1162}";
}
);
layerId = "5F2F3E34-E24A-4A89-B41B-C326736566A0";
name = Bold;
paths = (
{
closed = 1;
nodes = (
"144 0 LINE",
"556 0 LINE",
"556 814.114 LINE",
"606.224 875.862 OFFCURVE",
"660.674 911.433 OFFCURVE",
"720 911 CURVE SMOOTH",
"796 910 OFFCURVE",
"847 884 OFFCURVE",
"847 742 CURVE SMOOTH",
"847 0 LINE",
"1259 0 LINE",
"1259 740 LINE SMOOTH",
"1259 772.333 OFFCURVE",
"1257.33 802.341 OFFCURVE",
"1254.19 830.189 CURVE",
"1301.34 884.462 OFFCURVE",
"1353.9 911.425 OFFCURVE",
"1418 911 CURVE SMOOTH",
"1494 910 OFFCURVE",
"1545 884 OFFCURVE",
"1545 742 CURVE SMOOTH",
"1545 0 LINE",
"1957 0 LINE",
"1957 740 LINE SMOOTH",
"1957 1123 OFFCURVE",
"1723 1180 OFFCURVE",
"1576 1180 CURVE SMOOTH",
"1429.12 1180 OFFCURVE",
"1299.04 1114 OFFCURVE",
"1198.66 1014.56 CURVE",
"1119.36 1153.41 OFFCURVE",
"978.392 1180 OFFCURVE",
"878 1180 CURVE SMOOTH",
"735.143 1180 OFFCURVE",
"608.168 1112.09 OFFCURVE",
"508.968 1014.82 CURVE",
"458 1162 LINE",
"144 1162 LINE"
);
}
);
width = 2091;
}
);
unicode = 006D;
userData = {
anchors = (
);
baseGlyph = lc_main_stem;
com.typemytype.robofont.layerData = {
b = {
anchors = (
);
components = (
);
contours = (
);
lib = {
};
name = m;
unicodes = (
);
width = 1989;
};
};
components = (
);
contours = (
);
name = m;
points = (
);
position = 1677;
segmentType = curve;
transformation = (
1,
0,
0,
1,
0,
0
);
unicodes = (
);
width = 1901;
x = 206;
y = 856;
};
},
{
glyphname = n;
lastChange = "2014-02-15 22:20:08 -0800";
layers = (
{
anchors = (
{
name = bot;
position = "{627, 0}";
},
{
name = top;
position = "{671, 1172}";
}
);
layerId = "67845082-4271-4E32-8C80-EE8FB13E39CE";
name = Light;
paths = (
{
closed = 1;
nodes = (
"146 0 LINE",
"242 0 LINE",
"241.598 897.488 LINE",
"373.442 1028.99 OFFCURVE",
"529.638 1110 OFFCURVE",
"685 1110 CURVE SMOOTH",
"948 1110 OFFCURVE",
"991 935 OFFCURVE",
"991 719 CURVE SMOOTH",
"991 0 LINE",
"1087 0 LINE",
"1087 728 LINE SMOOTH",
"1087 959 OFFCURVE",
"1032 1190 OFFCURVE",
"701 1190 CURVE SMOOTH",
"519.867 1190 OFFCURVE",
"372.209 1116.35 OFFCURVE",
"234.293 979.014 CURVE",
"217 1172 LINE",
"146 1172 LINE"
);
}
);
width = 1225;
},
{
anchors = (
{
name = bot;
position = "{678, 0}";
},
{
name = top;
position = "{680, 1168}";
}
);
layerId = "B5E80BC0-A253-4265-9E84-E8FF94ED18F5";
name = Regular;
paths = (
{
closed = 1;
nodes = (
"160 0 LINE",
"346 0 LINE",
"346 871.282 LINE",
"429.385 954.734 OFFCURVE",
"546.348 1042 OFFCURVE",
"716 1042 CURVE SMOOTH",
"907 1042 OFFCURVE",
"939 880 OFFCURVE",
"939 723 CURVE SMOOTH",
"939 0 LINE",
"1125 0 LINE",
"1125 723 LINE SMOOTH",
"1125 982 OFFCURVE",
"1028 1186 OFFCURVE",
"728 1186 CURVE SMOOTH",
"548.077 1186 OFFCURVE",
"417.719 1096.09 OFFCURVE",
"325.988 1002.91 CURVE",
"300 1168 LINE",
"160 1168 LINE"
);
}
);
width = 1275;
},
{
anchors = (
{
name = bot;
position = "{749, 0}";
},
{
name = top;
position = "{772, 1162}";
}
);
layerId = "5F2F3E34-E24A-4A89-B41B-C326736566A0";
name = Bold;
paths = (
{
closed = 1;
nodes = (
"146 0 LINE",
"558 0 LINE",
"558 817.494 LINE",
"623.934 877.548 OFFCURVE",
"687.157 900 OFFCURVE",
"741 900 CURVE SMOOTH",
"817 900 OFFCURVE",
"863 874 OFFCURVE",
"863 732 CURVE SMOOTH",
"863 0 LINE",
"1275 0 LINE",
"1275 753 LINE SMOOTH",
"1275 1136 OFFCURVE",
"1046 1180 OFFCURVE",
"899 1180 CURVE SMOOTH",
"747.911 1180 OFFCURVE",
"609.381 1123.34 OFFCURVE",
"503.242 1037.13 CURVE",
"460 1162 LINE",
"146 1162 LINE"
);
}
);
width = 1406;
}
);
unicode = 006E;
userData = {
anchors = (
);
com.typemytype.robofont.guides = (
);
com.typemytype.robofont.layerData = {
b = {
anchors = (
);
components = (
);
contours = (
);
lib = {
};
name = n;
unicodes = (
);
width = 1225;
};
};
components = (
);
contours = (
);
hhints = {
};
name = n;
points = (
);
position = 988;
segmentType = line;
unicodes = (
);
vhints = {
};
width = 1227;
x = 245;
y = 0;
};
},
{
glyphname = o;
lastChange = "2014-02-15 22:20:08 -0800";
layers = (
{
anchors = (
{
name = ogonek;
position = "{696, 0}";
},
{
name = top;
position = "{631, 1172}";
}
);
layerId = "67845082-4271-4E32-8C80-EE8FB13E39CE";
name = Light;
paths = (
{
closed = 1;
nodes = (
"632 62 CURVE SMOOTH",
"328 62 OFFCURVE",
"216 315 OFFCURVE",
"216 582 CURVE SMOOTH",
"216 804 OFFCURVE",
"303 1110 OFFCURVE",
"632 1110 CURVE SMOOTH",
"965 1110 OFFCURVE",
"1048 804 OFFCURVE",
"1048 582 CURVE SMOOTH",
"1048 315 OFFCURVE",
"940 62 OFFCURVE"
);
},
{
closed = 1;
nodes = (
"632 -18 CURVE SMOOTH",
"987 -18 OFFCURVE",
"1146 266 OFFCURVE",
"1146 582 CURVE SMOOTH",
"1146 892 OFFCURVE",
"989 1190 OFFCURVE",
"632 1190 CURVE SMOOTH",
"275 1190 OFFCURVE",
"118 892 OFFCURVE",
"118 582 CURVE SMOOTH",
"118 266 OFFCURVE",
"277 -18 OFFCURVE"
);
}
);
width = 1264;
},
{
anchors = (
{
name = ogonek;
position = "{692, 0}";
},
{
name = top;
position = "{635, 1168}";
}
);
layerId = "B5E80BC0-A253-4265-9E84-E8FF94ED18F5";
name = Regular;
paths = (
{
closed = 1;
nodes = (
"632 126 CURVE SMOOTH",
"382 126 OFFCURVE",
"286 355 OFFCURVE",
"286 586 CURVE SMOOTH",
"286 816 OFFCURVE",
"381 1042 OFFCURVE",
"632 1042 CURVE SMOOTH",
"883 1042 OFFCURVE",
"978 816 OFFCURVE",
"978 586 CURVE SMOOTH",
"978 355 OFFCURVE",
"882 126 OFFCURVE"
);
},
{
closed = 1;
nodes = (
"632 -18 CURVE SMOOTH",
"991 -18 OFFCURVE",
"1166 249 OFFCURVE",
"1166 582 CURVE SMOOTH",
"1166 914 OFFCURVE",
"991 1186 OFFCURVE",
"632 1186 CURVE SMOOTH",
"273 1186 OFFCURVE",
"98 914 OFFCURVE",
"98 582 CURVE SMOOTH",
"98 249 OFFCURVE",
"273 -18 OFFCURVE"
);
}
);
width = 1264;
},
{
anchors = (
{
name = ogonek;
position = "{748, 0}";
},
{
name = top;
position = "{662, 1162}";
}
);
layerId = "5F2F3E34-E24A-4A89-B41B-C326736566A0";
name = Bold;
paths = (
{
closed = 1;
nodes = (
"675 262 CURVE SMOOTH",
"556 262 OFFCURVE",
"497 376 OFFCURVE",
"497 584 CURVE SMOOTH",
"497 791 OFFCURVE",
"556 900 OFFCURVE",
"675 900 CURVE SMOOTH",
"794 900 OFFCURVE",
"854 791 OFFCURVE",
"854 584 CURVE SMOOTH",
"854 376 OFFCURVE",
"794 262 OFFCURVE"
);
},
{
closed = 1;
nodes = (
"675 -18 CURVE SMOOTH",
"1035 -18 OFFCURVE",
"1268 192 OFFCURVE",
"1268 582 CURVE SMOOTH",
"1268 978 OFFCURVE",
"1029 1180 OFFCURVE",
"675 1180 CURVE SMOOTH",
"321 1180 OFFCURVE",
"82 978 OFFCURVE",
"82 582 CURVE SMOOTH",
"82 192 OFFCURVE",
"315 -18 OFFCURVE"
);
}
);
width = 1350;
}
);
unicode = 006F;
userData = {
anchors = (
);
com.typemytype.robofont.guides = (
);
com.typemytype.robofont.layerData = {
b = {
anchors = (
);
components = (
);
contours = (
);
lib = {
};
name = o;
unicodes = (
);
width = 1264;
};
};
components = (
);
contours = (
);
hhints = {
};
magnetic = 5;
name = o;
position = 1048;
unicodes = (
);
vhints = {
};
width = 1264;
x = 632;
y = 1136;
};
},
{
glyphname = p;
lastChange = "2014-02-15 22:20:08 -0800";
layers = (
{
anchors = (
{
name = top;
position = "{631, 1172}";
}
);
layerId = "67845082-4271-4E32-8C80-EE8FB13E39CE";
name = Light;
paths = (
{
closed = 1;
nodes = (
"149 -528 LINE",
"245 -506 LINE",
"245 154.563 LINE",
"329.251 42.4696 OFFCURVE",
"454.711 -18 OFFCURVE",
"609 -18 CURVE SMOOTH",
"969 -18 OFFCURVE",
"1106 295 OFFCURVE",
"1106 587 CURVE SMOOTH",
"1106 895 OFFCURVE",
"964 1190 OFFCURVE",
"621 1190 CURVE SMOOTH",
"469.017 1190 OFFCURVE",
"326.841 1125.89 OFFCURVE",
"240.321 1004.22 CURVE",
"231 1172 LINE",
"149 1172 LINE"
);
},
{
closed = 1;
nodes = (
"602 62 CURVE SMOOTH",
"455.023 62 OFFCURVE",
"328.255 125.517 OFFCURVE",
"245 251.325 CURVE",
"245 910.975 LINE",
"340.511 1052.27 OFFCURVE",
"469.601 1110 OFFCURVE",
"623 1110 CURVE SMOOTH",
"944 1110 OFFCURVE",
"1008 796 OFFCURVE",
"1008 579 CURVE SMOOTH",
"1008 345 OFFCURVE",
"921 62 OFFCURVE"
);
}
);
width = 1224;
},
{
anchors = (
{
name = bot;
position = "{678, 0}";
},
{
name = top;
position = "{680, 1168}";
}
);
layerId = "B5E80BC0-A253-4265-9E84-E8FF94ED18F5";
name = Regular;
paths = (
{
closed = 1;
nodes = (
"160 -478 LINE",
"350 -453 LINE",
"350 103.105 LINE",
"422.664 36.2109 OFFCURVE",
"524.771 -18 OFFCURVE",
"667 -18 CURVE SMOOTH",
"1012 -18 OFFCURVE",
"1165 279 OFFCURVE",
"1165 580 CURVE SMOOTH",
"1165 924 OFFCURVE",
"1008 1186 OFFCURVE",
"693 1186 CURVE SMOOTH",
"534.635 1186 OFFCURVE",
"413.755 1123.87 OFFCURVE",
"329.992 1038.24 CURVE",
"300 1168 LINE",
"160 1168 LINE"
);
},
{
closed = 1;
nodes = (
"660 118 CURVE SMOOTH",
"519.639 118 OFFCURVE",
"424.018 169.194 OFFCURVE",
"350 247.032 CURVE",
"350 926.182 LINE",
"435.445 995.712 OFFCURVE",
"542.791 1042 OFFCURVE",
"661 1042 CURVE SMOOTH",
"874 1041 OFFCURVE",
"983 879 OFFCURVE",
"983 584 CURVE SMOOTH",
"983 320 OFFCURVE",
"899 118 OFFCURVE"
);
}
);
width = 1259;
},
{
anchors = (
{
name = top;
position = "{782, 1162}";
}
);
layerId = "5F2F3E34-E24A-4A89-B41B-C326736566A0";
name = Bold;
paths = (
{
closed = 1;
nodes = (
"146 -516 LINE",
"560 -456 LINE",
"560 54.0582 LINE",
"633.616 10.6806 OFFCURVE",
"718.895 -18 OFFCURVE",
"814 -18 CURVE SMOOTH",
"1060 -18 OFFCURVE",
"1307 168 OFFCURVE",
"1307 588 CURVE SMOOTH",
"1307 978 OFFCURVE",
"1121 1180 OFFCURVE",
"864 1180 CURVE SMOOTH",
"725.354 1180 OFFCURVE",
"595.775 1139.41 OFFCURVE",
"484.058 1044.06 CURVE",
"432 1162 LINE",
"146 1162 LINE"
);
},
{
closed = 1;
nodes = (
"687 234 CURVE SMOOTH",
"644.308 234 OFFCURVE",
"601.376 249.782 OFFCURVE",
"560 276.662 CURVE",
"560 872 LINE",
"618.468 911.49 OFFCURVE",
"670.064 924 OFFCURVE",
"723 924 CURVE SMOOTH",
"824 924 OFFCURVE",
"895 848 OFFCURVE",
"895 585 CURVE SMOOTH",
"895 305 OFFCURVE",
"779 234 OFFCURVE"
);
}
);
width = 1389;
}
);
unicode = 0070;
userData = {
anchors = (
);
com.typemytype.robofont.layerData = {
b = {
anchors = (
);
components = (
);
contours = (
{
points = (
{
segmentType = line;
smooth = 0;
x = 202;
y = 928;
},
{
smooth = 0;
x = 273;
y = 1078;
},
{
smooth = 0;
x = 426;
y = 1184;
},
{
segmentType = curve;
smooth = 1;
x = 616;
y = 1184;
},
{
smooth = 0;
x = 959;
y = 1184;
},
{
smooth = 0;
x = 1106;
y = 897;
},
{
segmentType = curve;
smooth = 1;
x = 1106;
y = 589;
},
{
smooth = 0;
x = 1106;
y = 303;
},
{
smooth = 0;
x = 970;
y = "-14";
},
{
segmentType = curve;
smooth = 1;
x = 610;
y = "-14";
},
{
smooth = 0;
x = 366;
y = "-14";
},
{
smooth = 0;
x = 258;
y = 119;
},
{
segmentType = curve;
smooth = 0;
x = 210;
y = 203;
},
{
segmentType = line;
smooth = 0;
x = 210;
y = 311;
},
{
smooth = 0;
x = 272;
y = 204;
},
{
smooth = 0;
x = 380;
y = 68;
},
{
segmentType = curve;
smooth = 1;
x = 603;
y = 68;
},
{
smooth = 0;
x = 922;
y = 68;
},
{
smooth = 0;
x = 1009;
y = 351;
},
{
segmentType = curve;
smooth = 1;
x = 1009;
y = 581;
},
{
smooth = 0;
x = 1009;
y = 798;
},
{
smooth = 0;
x = 939;
y = 1101;
},
{
segmentType = curve;
smooth = 1;
x = 618;
y = 1101;
},
{
smooth = 0;
x = 422;
y = 1101;
},
{
smooth = 0;
x = 313;
y = 1007;
},
{
segmentType = curve;
smooth = 0;
x = 211;
y = 850;
}
);
},
{
points = (
{
segmentType = line;
smooth = 0;
x = 251;
y = "-468";
},
{
segmentType = line;
smooth = 0;
x = 155;
y = "-489";
},
{
segmentType = line;
smooth = 0;
x = 155;
y = 1172;
},
{
segmentType = line;
smooth = 0;
x = 231;
y = 1172;
},
{
segmentType = line;
smooth = 0;
x = 251;
y = 924;
}
);
}
);
lib = {
};
name = p;
unicodes = (
);
width = 1224;
};
};
components = (
);
contours = (
);
name = p;
points = (
);
position = 992;
segmentType = curve;
unicodes = (
);
width = 1206;
};
},
{
glyphname = q;
lastChange = "2014-02-15 22:20:08 -0800";
layers = (
{
layerId = "67845082-4271-4E32-8C80-EE8FB13E39CE";
name = Light;
paths = (
{
closed = 1;
nodes = (
"1075 -528 LINE",
"1075 1172 LINE",
"993 1172 LINE",
"983.679 1004.22 LINE",
"897.159 1125.89 OFFCURVE",
"754.983 1190 OFFCURVE",
"603 1190 CURVE SMOOTH",
"260 1190 OFFCURVE",
"118 895 OFFCURVE",
"118 587 CURVE SMOOTH",
"118 295 OFFCURVE",
"255 -18 OFFCURVE",
"615 -18 CURVE SMOOTH",
"769.289 -18 OFFCURVE",
"894.749 42.4696 OFFCURVE",
"979 154.564 CURVE",
"979 -506 LINE"
);
},
{
closed = 1;
nodes = (
"622 62 CURVE SMOOTH",
"303 62 OFFCURVE",
"216 345 OFFCURVE",
"216 579 CURVE SMOOTH",
"216 796 OFFCURVE",
"280 1110 OFFCURVE",
"601 1110 CURVE SMOOTH",
"754.399 1110 OFFCURVE",
"883.489 1052.27 OFFCURVE",
"979 910.975 CURVE",
"979 251.325 LINE",
"895.745 125.517 OFFCURVE",
"768.977 62 OFFCURVE"
);
}
);
width = 1221;
},
{
anchors = (
{
name = bot;
position = "{581, 0}";
},
{
name = top;
position = "{579, 1168}";
}
);
layerId = "B5E80BC0-A253-4265-9E84-E8FF94ED18F5";
name = Regular;
paths = (
{
closed = 1;
nodes = (
"1099 -453 LINE",
"1099 1168 LINE",
"959 1168 LINE",
"929 1038 LINE",
"845 1124 OFFCURVE",
"724 1186 OFFCURVE",
"566 1186 CURVE SMOOTH",
"251 1186 OFFCURVE",
"94 924 OFFCURVE",
"94 580 CURVE SMOOTH",
"94 279 OFFCURVE",
"247 -18 OFFCURVE",
"592 -18 CURVE SMOOTH",
"734 -18 OFFCURVE",
"836 36 OFFCURVE",
"909 103 CURVE",
"909 -478 LINE"
);
},
{
closed = 1;
nodes = (
"599 118 CURVE SMOOTH",
"360 118 OFFCURVE",
"276 320 OFFCURVE",
"276 584 CURVE SMOOTH",
"276 879 OFFCURVE",
"385 1041 OFFCURVE",
"598 1042 CURVE SMOOTH",
"716 1042 OFFCURVE",
"824 996 OFFCURVE",
"909 926 CURVE",
"909 247 LINE",
"835 169 OFFCURVE",
"739 118 OFFCURVE"
);
}
);
width = 1259;
},
{
layerId = "5F2F3E34-E24A-4A89-B41B-C326736566A0";
name = Bold;
paths = (
{
closed = 1;
nodes = (
"1243 -456 LINE",
"1243 1162 LINE",
"957 1162 LINE",
"904.942 1044.06 LINE",
"793.225 1139.41 OFFCURVE",
"663.646 1180 OFFCURVE",
"525 1180 CURVE SMOOTH",
"268 1180 OFFCURVE",
"82 978 OFFCURVE",
"82 588 CURVE SMOOTH",
"82 168 OFFCURVE",
"329 -18 OFFCURVE",
"575 -18 CURVE SMOOTH",
"670.105 -18 OFFCURVE",
"755.385 10.6804 OFFCURVE",
"829 54.058 CURVE",
"829 -516 LINE"
);
},
{
closed = 1;
nodes = (
"702 234 CURVE SMOOTH",
"610 234 OFFCURVE",
"494 305 OFFCURVE",
"494 585 CURVE SMOOTH",
"494 848 OFFCURVE",
"565 924 OFFCURVE",
"666 924 CURVE SMOOTH",
"718.937 924 OFFCURVE",
"770.533 911.49 OFFCURVE",
"829.235 872.532 CURVE",
"829 276.662 LINE",
"787.625 249.782 OFFCURVE",
"744.692 234 OFFCURVE"
);
}
);
width = 1389;
}
);
unicode = 0071;
userData = {
anchors = (
);
components = (
);
contours = (
);
name = q;
position = 1031;
unicodes = (
);
width = 1208;
};
},
{
glyphname = r;
lastChange = "2014-02-15 22:20:08 -0800";
layers = (
{
anchors = (
{
name = bot;
position = "{317, 0}";
},
{
name = top;
position = "{401, 1172}";
}
);
layerId = "67845082-4271-4E32-8C80-EE8FB13E39CE";
name = Light;
paths = (
{
closed = 1;
nodes = (
"148 0 LINE",
"244 0 LINE",
"240.852 928.13 LINE",
"370.254 1062.99 OFFCURVE",
"541.356 1099 OFFCURVE",
"653 1099 CURVE",
"653 1189 LINE",
"516.085 1189 OFFCURVE",
"350.343 1128.14 OFFCURVE",
"235.314 989.939 CURVE",
"219 1172 LINE",
"148 1172 LINE"
);
}
);
width = 705;
},
{
anchors = (
{
name = bot;
position = "{458, 0}";
},
{
name = top;
position = "{460, 1168}";
}
);
layerId = "B5E80BC0-A253-4265-9E84-E8FF94ED18F5";
name = Regular;
paths = (
{
closed = 1;
nodes = (
"168 0 LINE",
"354 0 LINE",
"353.131 880.556 LINE",
"440.015 944.832 OFFCURVE",
"567.29 1012.73 OFFCURVE",
"737 1026 CURVE",
"718 1180 LINE",
"625.722 1180 OFFCURVE",
"463.151 1117.79 OFFCURVE",
"337.243 982.099 CURVE",
"308 1168 LINE",
"168 1168 LINE"
);
}
);
width = 798;
},
{
anchors = (
{
name = bot;
position = "{499, 0}";
},
{
name = top;
position = "{522, 1162}";
}
);
layerId = "5F2F3E34-E24A-4A89-B41B-C326736566A0";
name = Bold;
paths = (
{
closed = 1;
nodes = (
"150 0 LINE",
"562 0 LINE",
"562 736.631 LINE",
"678.172 794.985 OFFCURVE",
"819.228 836 OFFCURVE",
"938 836 CURVE",
"896 1173 LINE",
"745.924 1173 OFFCURVE",
"620.487 1087.03 OFFCURVE",
"526.894 980.376 CURVE",
"464 1162 LINE",
"150 1162 LINE"
);
}
);
width = 958;
}
);
unicode = 0072;
userData = {
anchors = (
);
com.typemytype.robofont.layerData = {
b = {
anchors = (
);
components = (
);
contours = (
);
lib = {
};
name = r;
unicodes = (
);
width = 704;
};
};
components = (
);
contours = (
);
name = r;
position = 132;
unicodes = (
);
width = 708;
};
},
{
glyphname = s;
lastChange = "2014-02-15 22:20:08 -0800";
layers = (
{
anchors = (
{
name = bot;
position = "{498, 0}";
},
{
name = top;
position = "{501, 1172}";
}
);
layerId = "67845082-4271-4E32-8C80-EE8FB13E39CE";
name = Light;
paths = (
{
closed = 1;
nodes = (
"474 -18 CURVE SMOOTH",
"688 -18 OFFCURVE",
"858 71 OFFCURVE",
"867 304 CURVE SMOOTH",
"876 533 OFFCURVE",
"732 588 OFFCURVE",
"594 634 CURVE SMOOTH",
"440 685 LINE SMOOTH",
"295 733 OFFCURVE",
"196 754 OFFCURVE",
"196 889 CURVE SMOOTH",
"196 1060 OFFCURVE",
"336 1110 OFFCURVE",
"457 1110 CURVE SMOOTH",
"584 1110 OFFCURVE",
"693 1076 OFFCURVE",
"775 1012 CURVE",
"814 1078 LINE",
"732 1148 OFFCURVE",
"591 1190 OFFCURVE",
"451 1190 CURVE SMOOTH",
"295 1190 OFFCURVE",
"103 1120 OFFCURVE",
"103 888 CURVE SMOOTH",
"103 693 OFFCURVE",
"267 645 OFFCURVE",
"414 600 CURVE SMOOTH",
"555 557 LINE SMOOTH",
"698 513 OFFCURVE",
"776 472 OFFCURVE",
"772 305 CURVE SMOOTH",
"767 109 OFFCURVE",
"621 62 OFFCURVE",
"480 62 CURVE SMOOTH",
"359 62 OFFCURVE",
"240 106 OFFCURVE",
"152 179 CURVE",
"113 110 LINE",
"178 43 OFFCURVE",
"332 -18 OFFCURVE"
);
}
);
width = 948;
},
{
anchors = (
{
name = bot;
position = "{498, 0}";
},
{
name = top;
position = "{500, 1168}";
}
);
layerId = "B5E80BC0-A253-4265-9E84-E8FF94ED18F5";
name = Regular;
paths = (
{
closed = 1;
nodes = (
"515 -18 CURVE SMOOTH",
"734 -18 OFFCURVE",
"917 79 OFFCURVE",
"917 331 CURVE SMOOTH",
"917 531 OFFCURVE",
"802 607 OFFCURVE",
"628 660 CURVE SMOOTH",
"415 725 LINE SMOOTH",
"295 762 OFFCURVE",
"270 806 OFFCURVE",
"270 888 CURVE SMOOTH",
"273 1019 OFFCURVE",
"403 1042 OFFCURVE",
"509 1042 CURVE SMOOTH",
"621 1042 OFFCURVE",
"726 1016 OFFCURVE",
"808 963 CURVE",
"872 1079 LINE",
"788 1143 OFFCURVE",
"658 1186 OFFCURVE",
"488 1186 CURVE SMOOTH",
"298 1186 OFFCURVE",
"95 1096 OFFCURVE",
"95 878 CURVE SMOOTH",
"95 698 OFFCURVE",
"196 616 OFFCURVE",
"357 569 CURVE SMOOTH",
"581 503 LINE SMOOTH",
"702 467 OFFCURVE",
"750 427 OFFCURVE",
"745 300 CURVE SMOOTH",
"739 158 OFFCURVE",
"613 126 OFFCURVE",
"503 126 CURVE SMOOTH",
"397 126 OFFCURVE",
"263 176 OFFCURVE",
"172 237 CURVE",
"115 110 LINE",
"200 42 OFFCURVE",
"353 -18 OFFCURVE"
);
}
);
width = 1008;
},
{
anchors = (
{
name = bot;
position = "{589, 0}";
},
{
name = top;
position = "{532, 1162}";
}
);
layerId = "5F2F3E34-E24A-4A89-B41B-C326736566A0";
name = Bold;
paths = (
{
closed = 1;
nodes = (
"565 -18 CURVE SMOOTH",
"830 -18 OFFCURVE",
"1018 87 OFFCURVE",
"1029 333 CURVE SMOOTH",
"1035 467 OFFCURVE",
"1007 574 OFFCURVE",
"724 687 CURVE SMOOTH",
"532 764 LINE SMOOTH",
"482 784 OFFCURVE",
"475 811 OFFCURVE",
"479 839 CURVE SMOOTH",
"486 887 OFFCURVE",
"528 902 OFFCURVE",
"605 902 CURVE SMOOTH",
"692 902 OFFCURVE",
"798 874 OFFCURVE",
"921 817 CURVE",
"1011 1061 LINE",
"940 1104 OFFCURVE",
"783 1180 OFFCURVE",
"578 1180 CURVE SMOOTH",
"232 1180 OFFCURVE",
"79 1014 OFFCURVE",
"79 828 CURVE SMOOTH",
"79 681 OFFCURVE",
"142 572 OFFCURVE",
"344 491 CURVE SMOOTH",
"580 396 LINE SMOOTH",
"624 378 OFFCURVE",
"632 352 OFFCURVE",
"632 331 CURVE SMOOTH",
"632 282 OFFCURVE",
"599 250 OFFCURVE",
"509 250 CURVE SMOOTH",
"399 250 OFFCURVE",
"270 300 OFFCURVE",
"164 363 CURVE",
"80 103 LINE",
"188 44 OFFCURVE",
"343 -18 OFFCURVE"
);
}
);
width = 1101;
}
);
unicode = 0073;
userData = {
anchors = (
);
com.typemytype.robofont.layerData = {
b = {
anchors = (
);
components = (
);
contours = (
);
lib = {
};
name = s;
unicodes = (
);
width = 942;
};
};
components = (
);
contours = (
);
name = s;
points = (
);
position = 752;
segmentType = line;
unicodes = (
);
width = 912;
x = 387;
y = "-17";
};
},
{
glyphname = t;
lastChange = "2014-02-15 22:20:08 -0800";
layers = (
{
anchors = (
{
name = bot;
position = "{484, 0}";
},
{
name = caron.alt;
position = "{289, 1578}";
},
{
name = mid;
position = "{338, 683}";
},
{
name = top;
position = "{297, 1472}";
}
);
layerId = "67845082-4271-4E32-8C80-EE8FB13E39CE";
name = Light;
paths = (
{
closed = 1;
nodes = (
"525 -12 CURVE SMOOTH",
"585 -12 OFFCURVE",
"649 -2 OFFCURVE",
"714 18 CURVE",
"698 89 LINE",
"644 73 OFFCURVE",
"587 63 OFFCURVE",
"536 63 CURVE SMOOTH",
"428 63 OFFCURVE",
"342 106 OFFCURVE",
"342 228 CURVE SMOOTH",
"342 1103 LINE",
"682 1103 LINE",
"682 1172 LINE",
"342 1172 LINE",
"342 1562 LINE",
"259 1543 LINE",
"247 1172 LINE",
"58 1172 LINE",
"58 1103 LINE",
"246 1103 LINE",
"246 227 LINE SMOOTH",
"246 59 OFFCURVE",
"369 -12 OFFCURVE"
);
}
);
width = 768;
},
{
anchors = (
{
name = bot;
position = "{510, 0}";
},
{
name = caron.alt;
position = "{389, 1468}";
},
{
name = mid;
position = "{387, 683}";
},
{
name = top;
position = "{312, 1578}";
}
);
layerId = "B5E80BC0-A253-4265-9E84-E8FF94ED18F5";
name = Regular;
paths = (
{
closed = 1;
nodes = (
"540 -14 CURVE SMOOTH",
"622 -14 OFFCURVE",
"703 0 OFFCURVE",
"777 35 CURVE",
"746 164 LINE",
"682 144 OFFCURVE",
"628 132 OFFCURVE",
"587 132 CURVE SMOOTH",
"449 132 OFFCURVE",
"431 216 OFFCURVE",
"431 287 CURVE SMOOTH",
"431 1045 LINE",
"764 1045 LINE",
"764 1168 LINE",
"431 1168 LINE",
"431 1576 LINE",
"269 1530 LINE",
"249 1168 LINE",
"58 1168 LINE",
"58 1045 LINE",
"245 1045 LINE",
"245 289 LINE SMOOTH",
"245 105 OFFCURVE",
"351 -14 OFFCURVE"
);
}
);
width = 849;
},
{
anchors = (
{
name = bot;
position = "{609, 0}";
},
{
name = caron.alt;
position = "{490, 1568}";
},
{
name = mid;
position = "{433, 683}";
},
{
name = top;
position = "{402, 1578}";
}
);
layerId = "5F2F3E34-E24A-4A89-B41B-C326736566A0";
name = Bold;
paths = (
{
closed = 1;
nodes = (
"676 -12 CURVE SMOOTH",
"783 -12 OFFCURVE",
"891 11 OFFCURVE",
"982 48 CURVE",
"925 308 LINE",
"878 296 OFFCURVE",
"824 285 OFFCURVE",
"774 285 CURVE SMOOTH",
"690 285 OFFCURVE",
"619 317 OFFCURVE",
"619 426 CURVE SMOOTH",
"619 945 LINE",
"933 945 LINE",
"933 1162 LINE",
"619 1162 LINE",
"619 1612 LINE",
"246 1526 LINE",
"222 1162 LINE",
"16 1162 LINE",
"16 945 LINE",
"208 945 LINE",
"208 447 LINE SMOOTH",
"208 105 OFFCURVE",
"437 -12 OFFCURVE"
);
}
);
width = 1026;
}
);
unicode = 0074;
userData = {
anchors = (
);
com.fontlab.hintData = {
hhints = (
{
position = "-12";
width = 75;
}
);
vhints = (
{
position = 246;
width = 96;
}
);
};
com.typemytype.robofont.layerData = {
b = {
anchors = (
);
components = (
);
contours = (
);
lib = {
};
name = t;
unicodes = (
);
width = 746;
};
};
components = (
);
contours = (
);
name = t;
position = 273;
unicodes = (
);
width = 777;
};
},
{
glyphname = u;
lastChange = "2014-02-15 22:20:08 -0800";
layers = (
{
anchors = (
{
name = ogonek;
position = "{1046, 0}";
},
{
name = top;
position = "{621, 1172}";
}
);
layerId = "67845082-4271-4E32-8C80-EE8FB13E39CE";
name = Light;
paths = (
{
closed = 1;
nodes = (
"535 -18 CURVE SMOOTH",
"717 -18 OFFCURVE",
"880 58 OFFCURVE",
"988 204 CURVE",
"1006 0 LINE",
"1077 0 LINE",
"1077 1172 LINE",
"979 1172 LINE",
"979 290 LINE",
"859 130 OFFCURVE",
"722 62 OFFCURVE",
"535 62 CURVE SMOOTH",
"273 62 OFFCURVE",
"236 237 OFFCURVE",
"236 453 CURVE SMOOTH",
"236 1172 LINE",
"138 1172 LINE",
"138 444 LINE SMOOTH",
"138 213 OFFCURVE",
"198 -18 OFFCURVE"
);
}
);
width = 1223;
},
{
anchors = (
{
name = ogonek;
position = "{1060, 0}";
},
{
name = top;
position = "{650, 1168}";
}
);
layerId = "B5E80BC0-A253-4265-9E84-E8FF94ED18F5";
name = Regular;
paths = (
{
closed = 1;
nodes = (
"558 -18 CURVE SMOOTH",
"764 -18 OFFCURVE",
"885 79 OFFCURVE",
"965 165 CURVE",
"992 0 LINE",
"1133 0 LINE",
"1133 1168 LINE",
"943 1168 LINE",
"943 298 LINE",
"848 205 OFFCURVE",
"762 126 OFFCURVE",
"569 126 CURVE SMOOTH",
"385 126 OFFCURVE",
"340 265 OFFCURVE",
"340 429 CURVE SMOOTH",
"340 1168 LINE",
"150 1168 LINE",
"150 429 LINE SMOOTH",
"150 141 OFFCURVE",
"276 -18 OFFCURVE"
);
}
);
width = 1293;
},
{
anchors = (
{
name = ogonek;
position = "{1102, 0}";
},
{
name = top;
position = "{702, 1162}";
}
);
layerId = "5F2F3E34-E24A-4A89-B41B-C326736566A0";
name = Bold;
paths = (
{
closed = 1;
nodes = (
"552 -18 CURVE SMOOTH",
"762 -18 OFFCURVE",
"862 71 OFFCURVE",
"925 129 CURVE",
"968 0 LINE",
"1283 0 LINE",
"1283 1162 LINE",
"871 1162 LINE",
"871 330 LINE",
"841 287 OFFCURVE",
"774 234 OFFCURVE",
"684 234 CURVE SMOOTH",
"614 234 OFFCURVE",
"546 271 OFFCURVE",
"546 382 CURVE SMOOTH",
"546 1162 LINE",
"134 1162 LINE",
"134 452 LINE SMOOTH",
"134 80 OFFCURVE",
"329 -18 OFFCURVE"
);
}
);
width = 1427;
}
);
unicode = 0075;
userData = {
anchors = (
);
com.typemytype.robofont.guides = (
);
com.typemytype.robofont.layerData = {
b = {
anchors = (
);
components = (
);
contours = (
);
lib = {
};
name = u;
unicodes = (
);
width = 1223;
};
};
components = (
);
contours = (
);
name = u;
position = 945;
unicodes = (
);
width = 1148;
};
},
{
glyphname = v;
lastChange = "2014-02-15 22:20:08 -0800";
layers = (
{
layerId = "67845082-4271-4E32-8C80-EE8FB13E39CE";
name = Light;
paths = (
{
closed = 1;
nodes = (
"497 0 LINE",
"577 0 LINE",
"1016 1172 LINE",
"921 1172 LINE",
"539 120 LINE",
"154 1172 LINE",
"60 1172 LINE"
);
}
);
width = 1076;
},
{
layerId = "B5E80BC0-A253-4265-9E84-E8FF94ED18F5";
name = Regular;
paths = (
{
closed = 1;
nodes = (
"486 0 LINE",
"667 0 LINE",
"1080 1168 LINE",
"895 1168 LINE",
"580 175 LINE",
"246 1168 LINE",
"63 1168 LINE"
);
}
);
width = 1152;
},
{
layerId = "5F2F3E34-E24A-4A89-B41B-C326736566A0";
name = Bold;
paths = (
{
closed = 1;
nodes = (
"375 0 LINE",
"893 0 LINE",
"1250 1162 LINE",
"806 1162 LINE",
"632 354 LINE",
"456 1162 LINE",
"17 1162 LINE"
);
}
);
width = 1267;
}
);
unicode = 0076;
userData = {
anchors = (
);
com.typemytype.robofont.layerData = {
b = {
anchors = (
);
components = (
);
contours = (
);
lib = {
};
name = v;
unicodes = (
);
width = 1008;
};
};
components = (
);
contours = (
);
name = v;
position = 1152;
unicodes = (
);
width = 1009;
};
},
{
glyphname = w;
lastChange = "2014-02-15 22:20:08 -0800";
layers = (
{
anchors = (
{
name = top;
position = "{821, 1172}";
}
);
layerId = "67845082-4271-4E32-8C80-EE8FB13E39CE";
name = Light;
paths = (
{
closed = 1;
nodes = (
"1143 0 LINE",
"1254 0 LINE",
"1580 1172 LINE",
"1490 1172 LINE",
"1199 88 LINE",
"867 1172 LINE",
"765 1172 LINE",
"439 88 LINE",
"135 1172 LINE",
"46 1172 LINE",
"379 1 LINE",
"493 1 LINE",
"819 1072 LINE"
);
}
);
width = 1626;
},
{
anchors = (
{
name = bot;
position = "{798, 0}";
},
{
name = top;
position = "{800, 1168}";
}
);
layerId = "B5E80BC0-A253-4265-9E84-E8FF94ED18F5";
name = Regular;
paths = (
{
closed = 1;
nodes = (
"1066 0 LINE",
"1266 0 LINE",
"1579 1168 LINE",
"1400 1168 LINE",
"1172 152 LINE",
"903 1168 LINE",
"701 1168 LINE",
"444 154 LINE",
"196 1168 LINE",
"22 1168 LINE",
"342 0 LINE",
"541 0 LINE",
"802 1006 LINE"
);
}
);
width = 1608;
},
{
anchors = (
{
name = top;
position = "{835, 1162}";
}
);
layerId = "5F2F3E34-E24A-4A89-B41B-C326736566A0";
name = Bold;
paths = (
{
closed = 1;
nodes = (
"932 0 LINE",
"1346 0 LINE",
"1627 1162 LINE",
"1253 1162 LINE",
"1118 434 LINE",
"1007 1162 LINE",
"660 1162 LINE",
"544 444 LINE",
"414 1162 LINE",
"31 1162 LINE",
"318 0 LINE",
"727 0 LINE",
"827 585 LINE"
);
}
);
width = 1657;
}
);
unicode = 0077;
userData = {
anchors = (
);
com.typemytype.robofont.layerData = {
b = {
anchors = (
);
components = (
);
contours = (
);
lib = {
};
name = w;
unicodes = (
);
width = 1625;
};
};
components = (
);
contours = (
);
name = w;
position = 1480;
unicodes = (
);
width = 1626;
};
},
{
glyphname = x;
lastChange = "2014-02-15 22:20:08 -0800";
layers = (
{
layerId = "67845082-4271-4E32-8C80-EE8FB13E39CE";
name = Light;
paths = (
{
closed = 1;
nodes = (
"46 0 LINE",
"149 0 LINE",
"494 528 LINE",
"854 0 LINE",
"955 0 LINE",
"543 588 LINE",
"932 1172 LINE",
"839 1172 LINE",
"494 656 LINE",
"144 1172 LINE",
"50 1172 LINE",
"443 591 LINE"
);
}
);
width = 1001;
},
{
layerId = "B5E80BC0-A253-4265-9E84-E8FF94ED18F5";
name = Regular;
paths = (
{
closed = 1;
nodes = (
"69 0 LINE",
"262 0 LINE",
"559 467 LINE",
"846 0 LINE",
"1037 0 LINE",
"653 584 LINE",
"1044 1168 LINE",
"852 1168 LINE",
"553 712 LINE",
"256 1168 LINE",
"63 1168 LINE",
"459 584 LINE"
);
}
);
width = 1116;
},
{
layerId = "5F2F3E34-E24A-4A89-B41B-C326736566A0";
name = Bold;
paths = (
{
closed = 1;
nodes = (
"20 0 LINE",
"482 0 LINE",
"626 299 LINE",
"779 0 LINE",
"1235 0 LINE",
"844 584 LINE",
"1240 1162 LINE",
"776 1162 LINE",
"634 880 LINE",
"484 1162 LINE",
"11 1162 LINE",
"418 584 LINE"
);
}
);
width = 1251;
}
);
unicode = 0078;
userData = {
anchors = (
);
com.typemytype.robofont.layerData = {
b = {
anchors = (
);
components = (
);
contours = (
);
lib = {
};
name = x;
unicodes = (
);
width = 937;
};
};
components = (
);
contours = (
);
name = x;
position = 1152;
unicodes = (
);
width = 938;
};
},
{
glyphname = y;
lastChange = "2014-02-15 22:20:08 -0800";
layers = (
{
anchors = (
{
name = top;
position = "{561, 1172}";
}
);
layerId = "67845082-4271-4E32-8C80-EE8FB13E39CE";
name = Light;
paths = (
{
closed = 1;
nodes = (
"178 -406 LINE",
"463 -406 OFFCURVE",
"496 -230 OFFCURVE",
"568 -40 CURVE SMOOTH",
"1027 1172 LINE",
"930 1172 LINE",
"544 136 LINE",
"153 1172 LINE",
"52 1172 LINE",
"498 27 LINE",
"413 -225 OFFCURVE",
"395 -330 OFFCURVE",
"158 -339 CURVE"
);
}
);
width = 1095;
},
{
anchors = (
{
name = bot;
position = "{598, 0}";
},
{
name = top;
position = "{600, 1168}";
}
);
layerId = "B5E80BC0-A253-4265-9E84-E8FF94ED18F5";
name = Regular;
paths = (
{
closed = 1;
nodes = (
"211 -424 LINE",
"488 -424 OFFCURVE",
"572 -259 OFFCURVE",
"652 -37 CURVE SMOOTH",
"1089 1168 LINE",
"894 1168 LINE",
"593 220 LINE",
"238 1168 LINE",
"56 1168 LINE",
"507 23 LINE",
"445 -186 OFFCURVE",
"396 -290 OFFCURVE",
"171 -302 CURVE"
);
}
);
width = 1152;
},
{
anchors = (
{
name = top;
position = "{667, 1162}";
}
);
layerId = "5F2F3E34-E24A-4A89-B41B-C326736566A0";
name = Bold;
paths = (
{
closed = 1;
nodes = (
"245 -579 LINE",
"617 -548 OFFCURVE",
"757 -397 OFFCURVE",
"878 -30 CURVE SMOOTH",
"1270 1162 LINE",
"879 1162 LINE",
"693 510 LINE",
"460 1162 LINE",
"41 1162 LINE",
"502 51 LINE",
"450 -164 OFFCURVE",
"386 -263 OFFCURVE",
"127 -299 CURVE"
);
}
);
width = 1305;
}
);
unicode = 0079;
userData = {
anchors = (
);
com.typemytype.robofont.layerData = {
b = {
anchors = (
);
components = (
);
contours = (
);
lib = {
};
name = y;
unicodes = (
);
width = 1007;
};
};
components = (
);
contours = (
);
name = y;
position = 1152;
unicodes = (
);
width = 1008;
};
},
{
glyphname = z;
lastChange = "2014-02-15 22:20:08 -0800";
layers = (
{
anchors = (
{
name = top;
position = "{481, 1172}";
}
);
layerId = "67845082-4271-4E32-8C80-EE8FB13E39CE";
name = Light;
paths = (
{
closed = 1;
nodes = (
"101 0 LINE",
"834 0 LINE",
"834 81 LINE",
"203 81 LINE",
"852 1091 LINE",
"853 1172 LINE",
"141 1172 LINE",
"141 1099 LINE",
"758 1099 LINE",
"101 87 LINE"
);
}
);
width = 927;
},
{
anchors = (
{
name = bot;
position = "{531, 0}";
},
{
name = top;
position = "{533, 1168}";
}
);
layerId = "B5E80BC0-A253-4265-9E84-E8FF94ED18F5";
name = Regular;
paths = (
{
closed = 1;
nodes = (
"110 0 LINE",
"888 0 LINE",
"888 145 LINE",
"292 145 LINE",
"888 1043 LINE",
"888 1168 LINE",
"140 1168 LINE",
"140 1028 LINE",
"712 1028 LINE",
"110 136 LINE"
);
}
);
width = 999;
},
{
anchors = (
{
name = top;
position = "{563, 1162}";
}
);
layerId = "5F2F3E34-E24A-4A89-B41B-C326736566A0";
name = Bold;
paths = (
{
closed = 1;
nodes = (
"94 0 LINE",
"988 0 LINE",
"988 310 LINE",
"557 310 LINE",
"973 906 LINE",
"973 1162 LINE",
"99 1162 LINE",
"99 849 LINE",
"515 849 LINE",
"94 259 LINE"
);
}
);
width = 1061;
}
);
unicode = 007A;
userData = {
anchors = (
);
com.typemytype.robofont.layerData = {
b = {
anchors = (
);
components = (
);
contours = (
);
lib = {
};
name = z;
unicodes = (
);
width = 927;
};
};
components = (
);
contours = (
);
name = z;
position = 1099;
unicodes = (
);
width = 941;
};
},
{
glyphname = bar;
lastChange = "2014-02-15 22:20:08 -0800";
layers = (
{
layerId = "67845082-4271-4E32-8C80-EE8FB13E39CE";
name = Light;
paths = (
{
closed = 1;
nodes = (
"63 -92 LINE",
"171 -92 LINE",
"171 1712 LINE",
"63 1712 LINE"
);
}
);
width = 233;
},
{
layerId = "B5E80BC0-A253-4265-9E84-E8FF94ED18F5";
name = Regular;
paths = (
{
closed = 1;
nodes = (
"271 -111 LINE",
"449 -111 LINE",
"449 1696 LINE",
"271 1696 LINE"
);
}
);
width = 720;
},
{
layerId = "5F2F3E34-E24A-4A89-B41B-C326736566A0";
name = Bold;
paths = (
{
closed = 1;
nodes = (
"300 -161 LINE",
"658 -161 LINE",
"658 1656 LINE",
"300 1656 LINE"
);
}
);
width = 959;
}
);
unicode = 007C;
userData = {
position = 63;
width = 108;
};
},
{
glyphname = asciitilde;
lastChange = "2014-02-15 22:20:08 -0800";
layers = (
{
layerId = "67845082-4271-4E32-8C80-EE8FB13E39CE";
name = Light;
paths = (
{
closed = 1;
nodes = (
"77 675 CURVE",
"116 675 LINE",
"116 763 OFFCURVE",
"154 792 OFFCURVE",
"211 792 CURVE SMOOTH",
"321 792 OFFCURVE",
"503 687 OFFCURVE",
"634 687 CURVE SMOOTH",
"702 687 OFFCURVE",
"771 697 OFFCURVE",
"771 893 CURVE",
"725 893 LINE",
"725 798 OFFCURVE",
"685 767 OFFCURVE",
"625 767 CURVE SMOOTH",
"517 767 OFFCURVE",
"343 866 OFFCURVE",
"222 866 CURVE SMOOTH",
"170 866 OFFCURVE",
"77 858 OFFCURVE"
);
}
);
width = 845;
},
{
layerId = "B5E80BC0-A253-4265-9E84-E8FF94ED18F5";
name = Regular;
paths = (
{
closed = 1;
nodes = (
"139 634 CURVE",
"215 634 LINE",
"215 722 OFFCURVE",
"245 752 OFFCURVE",
"295 752 CURVE SMOOTH",
"398 752 OFFCURVE",
"585 630 OFFCURVE",
"777 630 CURVE SMOOTH",
"914 630 OFFCURVE",
"939 731 OFFCURVE",
"939 880 CURVE",
"863 880 LINE",
"863 796 OFFCURVE",
"836 768 OFFCURVE",
"790 768 CURVE SMOOTH",
"693 768 OFFCURVE",
"511 894 OFFCURVE",
"320 894 CURVE SMOOTH",
"163 894 OFFCURVE",
"139 781 OFFCURVE"
);
}
);
width = 1044;
},
{
layerId = "5F2F3E34-E24A-4A89-B41B-C326736566A0";
name = Bold;
paths = (
{
closed = 1;
nodes = (
"184 584 CURVE",
"320 584 LINE",
"320 673 OFFCURVE",
"351 703 OFFCURVE",
"403 703 CURVE SMOOTH",
"512 703 OFFCURVE",
"715 569 OFFCURVE",
"919 569 CURVE SMOOTH",
"1065 569 OFFCURVE",
"1166 719 OFFCURVE",
"1166 943 CURVE",
"1030 943 LINE",
"1030 870 OFFCURVE",
"999 845 OFFCURVE",
"947 845 CURVE SMOOTH",
"834 845 OFFCURVE",
"622 967 OFFCURVE",
"425 972 CURVE",
"274 972 OFFCURVE",
"184 837 OFFCURVE"
);
}
);
width = 1299;
}
);
unicode = 007E;
userData = {
position = 637;
width = 126;
};
},
{
glyphname = sterling;
lastChange = "2014-02-15 22:20:08 -0800";
layers = (
{
layerId = "67845082-4271-4E32-8C80-EE8FB13E39CE";
name = Light;
paths = (
{
closed = 1;
nodes = (
"123 0 LINE",
"900 0 LINE",
"900 71 LINE",
"221 71 LINE",
"353 194 OFFCURVE",
"410 316 OFFCURVE",
"410 435 CURVE SMOOTH",
"410 498 OFFCURVE",
"394 559 OFFCURVE",
"365 620 CURVE",
"805 620 LINE",
"805 683 LINE",
"340 683 LINE",
"263 800 OFFCURVE",
"228 905 OFFCURVE",
"228 992 CURVE SMOOTH",
"228 1204 OFFCURVE",
"429 1245 OFFCURVE",
"555 1245 CURVE SMOOTH",
"664 1245 OFFCURVE",
"768 1217 OFFCURVE",
"857 1159 CURVE",
"886 1225 LINE",
"803 1289 OFFCURVE",
"678 1324 OFFCURVE",
"546 1324 CURVE SMOOTH",
"385 1324 OFFCURVE",
"134 1263 OFFCURVE",
"134 995 CURVE SMOOTH",
"134 900 OFFCURVE",
"170 793 OFFCURVE",
"244 683 CURVE",
"70 683 LINE",
"70 620 LINE",
"275 620 LINE",
"305 556 OFFCURVE",
"319 496 OFFCURVE",
"319 438 CURVE SMOOTH",
"319 303 OFFCURVE",
"245 180 OFFCURVE",
"123 62 CURVE"
);
}
);
width = 968;
},
{
layerId = "B5E80BC0-A253-4265-9E84-E8FF94ED18F5";
name = Regular;
paths = (
{
closed = 1;
nodes = (
"168 0 LINE",
"965 0 LINE",
"965 132 LINE",
"349 132 LINE",
"446 216 OFFCURVE",
"511 339 OFFCURVE",
"511 461 CURVE SMOOTH",
"511 509 OFFCURVE",
"501 558 OFFCURVE",
"478 603 CURVE",
"896 603 LINE",
"896 700 LINE",
"441 700 LINE",
"384 784 OFFCURVE",
"351 886 OFFCURVE",
"351 961 CURVE SMOOTH",
"351 1119 OFFCURVE",
"462 1185 OFFCURVE",
"610 1185 CURVE SMOOTH",
"714 1185 OFFCURVE",
"835 1153 OFFCURVE",
"950 1097 CURVE",
"1000 1219 LINE",
"868 1289 OFFCURVE",
"723 1325 OFFCURVE",
"593 1325 CURVE SMOOTH",
"368 1325 OFFCURVE",
"186 1215 OFFCURVE",
"186 974 CURVE SMOOTH",
"186 885 OFFCURVE",
"221 784 OFFCURVE",
"288 700 CURVE",
"113 700 LINE",
"113 603 LINE",
"336 603 LINE",
"356 562 OFFCURVE",
"366 519 OFFCURVE",
"366 475 CURVE SMOOTH",
"366 349 OFFCURVE",
"286 218 OFFCURVE",
"168 126 CURVE"
);
}
);
width = 1152;
},
{
layerId = "5F2F3E34-E24A-4A89-B41B-C326736566A0";
name = Bold;
paths = (
{
closed = 1;
nodes = (
"180 0 LINE",
"1120 0 LINE",
"1120 318 LINE",
"548 318 LINE",
"586 343.5 OFFCURVE",
"621 369 OFFCURVE",
"646.5 405.625 CURVE SMOOTH",
"672 442.25 OFFCURVE",
"688 490 OFFCURVE",
"688 560 CURVE",
"986 560 LINE",
"986 725 LINE",
"675 725 LINE",
"639 773 OFFCURVE",
"603 844 OFFCURVE",
"603 904 CURVE SMOOTH",
"603 972.5 OFFCURVE",
"677 1007.25 OFFCURVE",
"769.875 1012.75 CURVE SMOOTH",
"862.75 1018.25 OFFCURVE",
"974.5 994.5 OFFCURVE",
"1050 946 CURVE",
"1155 1177 LINE",
"1102 1223 OFFCURVE",
"987 1322 OFFCURVE",
"717 1322 CURVE SMOOTH",
"381 1322 OFFCURVE",
"228 1167 OFFCURVE",
"228 956 CURVE SMOOTH",
"228 820 OFFCURVE",
"312 744 OFFCURVE",
"338 718 CURVE",
"182 718 LINE",
"182 560 LINE",
"362 561 LINE",
"362 484 OFFCURVE",
"342 427.75 OFFCURVE",
"309.25 387.75 CURVE SMOOTH",
"276.5 347.75 OFFCURVE",
"231 324 OFFCURVE",
"180 312 CURVE"
);
}
);
width = 1278;
}
);
unicode = 00A3;
userData = {
position = 218;
width = 92;
};
},
{
glyphname = currency;
lastChange = "2014-02-15 22:20:08 -0800";
layers = (
{
layerId = "67845082-4271-4E32-8C80-EE8FB13E39CE";
name = Light;
paths = (
{
closed = 1;
nodes = (
"151 533 LINE",
"281 663 LINE",
"346 615 OFFCURVE",
"431 589 OFFCURVE",
"532 589 CURVE SMOOTH",
"637 589 OFFCURVE",
"724 617 OFFCURVE",
"789 668 CURVE",
"924 533 LINE",
"973 583 LINE",
"839 717 LINE",
"891 780 OFFCURVE",
"919 865 OFFCURVE",
"919 966 CURVE SMOOTH",
"919 1069 OFFCURVE",
"890 1155 OFFCURVE",
"836 1218 CURVE",
"973 1355 LINE",
"924 1405 LINE",
"786 1267 LINE",
"721 1316 OFFCURVE",
"635 1343 OFFCURVE",
"532 1343 CURVE SMOOTH",
"433 1343 OFFCURVE",
"349 1318 OFFCURVE",
"285 1271 CURVE",
"151 1405 LINE",
"102 1355 LINE",
"233 1224 LINE",
"176 1160 OFFCURVE",
"145 1072 OFFCURVE",
"145 966 CURVE SMOOTH",
"145 862 OFFCURVE",
"175 775 OFFCURVE",
"230 711 CURVE",
"102 583 LINE"
);
},
{
closed = 1;
nodes = (
"532 667 CURVE SMOOTH",
"354 667 OFFCURVE",
"243 782 OFFCURVE",
"243 966 CURVE SMOOTH",
"243 1150 OFFCURVE",
"354 1265 OFFCURVE",
"532 1265 CURVE SMOOTH",
"710 1265 OFFCURVE",
"821 1150 OFFCURVE",
"821 966 CURVE SMOOTH",
"821 782 OFFCURVE",
"710 667 OFFCURVE"
);
}
);
width = 1063;
},
{
layerId = "B5E80BC0-A253-4265-9E84-E8FF94ED18F5";
name = Regular;
paths = (
{
closed = 1;
nodes = (
"180 430 LINE",
"369 619 LINE",
"434 578 OFFCURVE",
"509 558 OFFCURVE",
"585 558 CURVE SMOOTH",
"671 558 OFFCURVE",
"754 584 OFFCURVE",
"825 633 CURVE",
"1028 430 LINE",
"1152 555 LINE",
"950 757 LINE",
"999 829 OFFCURVE",
"1026 913 OFFCURVE",
"1026 1000 CURVE SMOOTH",
"1026 1076 OFFCURVE",
"1006 1150 OFFCURVE",
"965 1215 CURVE",
"1152 1402 LINE",
"1028 1526 LINE",
"842 1341 LINE",
"775 1385 OFFCURVE",
"697 1409 OFFCURVE",
"617 1409 CURVE SMOOTH",
"530 1409 OFFCURVE",
"446 1382 OFFCURVE",
"374 1333 CURVE",
"180 1526 LINE",
"56 1402 LINE",
"250 1208 LINE",
"202 1137 OFFCURVE",
"175 1053 OFFCURVE",
"175 967 CURVE SMOOTH",
"175 887 OFFCURVE",
"199 809 OFFCURVE",
"243 742 CURVE",
"56 555 LINE"
);
},
{
closed = 1;
nodes = (
"592 699 CURVE SMOOTH",
"446 699 OFFCURVE",
"318 829 OFFCURVE",
"318 975 CURVE SMOOTH",
"318 1130 OFFCURVE",
"456 1266 OFFCURVE",
"610 1266 CURVE SMOOTH",
"756 1266 OFFCURVE",
"884 1138 OFFCURVE",
"884 992 CURVE SMOOTH",
"884 840 OFFCURVE",
"744 699 OFFCURVE"
);
}
);
width = 1212;
},
{
layerId = "5F2F3E34-E24A-4A89-B41B-C326736566A0";
name = Bold;
paths = (
{
closed = 1;
nodes = (
"312 399 LINE",
"512 598 LINE",
"582 556 OFFCURVE",
"657 534 OFFCURVE",
"739 534 CURVE SMOOTH",
"831 534 OFFCURVE",
"914 560 OFFCURVE",
"993 614 CURVE",
"1207 399 LINE",
"1338 531 LINE",
"1125 745 LINE",
"1180 823 OFFCURVE",
"1205 909 OFFCURVE",
"1205 1001 CURVE SMOOTH",
"1205 1084 OFFCURVE",
"1184 1158 OFFCURVE",
"1140 1227 CURVE",
"1338 1426 LINE",
"1207 1558 LINE",
"1012 1362 LINE",
"939 1410 OFFCURVE",
"861 1433 OFFCURVE",
"774 1433 CURVE SMOOTH",
"682 1433 OFFCURVE",
"596 1407 OFFCURVE",
"517 1352 CURVE",
"312 1558 LINE",
"181 1426 LINE",
"386 1220 LINE",
"333 1141 OFFCURVE",
"307 1059 OFFCURVE",
"307 967 CURVE SMOOTH",
"307 880 OFFCURVE",
"330 801 OFFCURVE",
"378 728 CURVE",
"181 531 LINE"
);
},
{
closed = 1;
nodes = (
"758 723 CURVE SMOOTH",
"576 723 OFFCURVE",
"511 848 OFFCURVE",
"511 972 CURVE SMOOTH",
"511 1101 OFFCURVE",
"584 1242 OFFCURVE",
"766 1242 CURVE SMOOTH",
"940 1242 OFFCURVE",
"1002 1116 OFFCURVE",
"1002 992 CURVE SMOOTH",
"1002 862 OFFCURVE",
"934 723 OFFCURVE"
);
}
);
width = 1480;
}
);
unicode = 00A4;
userData = {
position = 822;
width = 118;
};
},
{
glyphname = yen;
lastChange = "2014-02-15 22:22:06 -0800";
layers = (
{
layerId = "67845082-4271-4E32-8C80-EE8FB13E39CE";
name = Light;
paths = (
{
closed = 1;
nodes = (
"710 680 LINE",
"1203 1620 LINE",
"1102 1620 LINE",
"633 715 LINE",
"166 1620 LINE",
"61 1620 LINE",
"548 680 LINE",
"286 680 LINE",
"286 612 LINE",
"580 612 LINE",
"580 470 LINE",
"286 470 LINE",
"286 402 LINE",
"580 402 LINE",
"580 0 LINE",
"678 0 LINE",
"678 402 LINE",
"963 402 LINE",
"963 470 LINE",
"678 470 LINE",
"678 612 LINE",
"963 612 LINE",
"963 680 LINE"
);
}
);
width = 1259;
},
{
layerId = "B5E80BC0-A253-4265-9E84-E8FF94ED18F5";
name = Regular;
paths = (
{
closed = 1;
nodes = (
"502 0 LINE",
"692 0 LINE",
"692 389 LINE",
"988 389 LINE",
"988 488 LINE",
"692 488 LINE",
"692 584 LINE",
"988 584 LINE",
"988 688 LINE",
"725 688 LINE",
"1206 1579 LINE",
"1012 1579 LINE",
"592 788 LINE",
"172 1579 LINE",
"-17 1579 LINE",
"461 688 LINE",
"200 688 LINE",
"200 584 LINE",
"502 584 LINE",
"502 488 LINE",
"200 488 LINE",
"200 389 LINE",
"502 389 LINE"
);
}
);
width = 1200;
},
{
layerId = "5F2F3E34-E24A-4A89-B41B-C326736566A0";
name = Bold;
paths = (
{
closed = 1;
nodes = (
"1428 1578 LINE",
"1000 1578 LINE",
"720 967 LINE",
"444 1578 LINE",
"8 1578 LINE",
"379 803 LINE",
"168 803 LINE",
"168 677 LINE",
"431 677 LINE",
"497 513 LINE",
"168 513 LINE",
"168 385 LINE",
"497 385 LINE",
"497 0 LINE",
"923 0 LINE",
"923 385 LINE",
"1245 385 LINE",
"1245 513 LINE",
"923 513 LINE",
"985 677 LINE",
"1245 677 LINE",
"1245 803 LINE",
"1039 803 LINE"
);
}
);
width = 1436;
}
);
unicode = 00A5;
userData = {
position = 427;
width = 105;
};
},
{
glyphname = brokenbar;
lastChange = "2014-02-15 22:20:08 -0800";
layers = (
{
layerId = "67845082-4271-4E32-8C80-EE8FB13E39CE";
name = Light;
paths = (
{
closed = 1;
nodes = (
"144 -163 LINE",
"227 -163 LINE",
"227 497 LINE",
"144 497 LINE"
);
},
{
closed = 1;
nodes = (
"144 960 LINE",
"227 960 LINE",
"227 1620 LINE",
"144 1620 LINE"
);
}
);
width = 371;
},
{
layerId = "B5E80BC0-A253-4265-9E84-E8FF94ED18F5";
name = Regular;
paths = (
{
closed = 1;
nodes = (
"264 0 LINE",
"452 0 LINE",
"452 690 LINE",
"264 690 LINE"
);
},
{
closed = 1;
nodes = (
"264 889 LINE",
"452 889 LINE",
"452 1579 LINE",
"264 1579 LINE"
);
}
);
width = 732;
},
{
layerId = "5F2F3E34-E24A-4A89-B41B-C326736566A0";
name = Bold;
paths = (
{
closed = 1;
nodes = (
"265 -204 LINE",
"621 -204 LINE",
"621 564 LINE",
"265 564 LINE"
);
},
{
closed = 1;
nodes = (
"265 933 LINE",
"621 933 LINE",
"621 1701 LINE",
"265 1701 LINE"
);
}
);
width = 878;
}
);
unicode = 00A6;
userData = {
position = 67;
width = 123;
};
},
